<svg width="24" height="24" viewBox="0 0 24 24" fill="none" xmlns="http://www.w3.org/2000/svg">
<path fill-rule="evenodd" clip-rule="evenodd" d="M21.1273 12.2042C21.1273 11.566 21.07 10.9524 20.9637 10.3633H12.4873V13.8446H17.3309C17.1223 14.9696 16.4882 15.9228 15.535 16.561V18.8192H18.4437C20.1455 17.2524 21.1273 14.9451 21.1273 12.2042Z" fill="#4285F4"/>
<path fill-rule="evenodd" clip-rule="evenodd" d="M12.4866 21C14.9166 21 16.9538 20.1941 18.4429 18.8195L15.5343 16.5613C14.7284 17.1013 13.6975 17.4204 12.4866 17.4204C10.1425 17.4204 8.15839 15.8372 7.45067 13.71H4.44385V16.0418C5.92476 18.9831 8.96839 21 12.4866 21Z" fill="#34A853"/>
<path fill-rule="evenodd" clip-rule="evenodd" d="M7.4514 13.7098C7.2714 13.1698 7.16912 12.593 7.16912 11.9998C7.16912 11.4066 7.2714 10.8298 7.4514 10.2898V7.95801H4.44458C3.83503 9.17301 3.4873 10.5476 3.4873 11.9998C3.4873 13.4521 3.83503 14.8266 4.44458 16.0416L7.4514 13.7098Z" fill="#FBBC05"/>
<path fill-rule="evenodd" clip-rule="evenodd" d="M12.4866 6.57955C13.8079 6.57955 14.9943 7.03364 15.927 7.92546L18.5084 5.34409C16.9498 3.89182 14.9125 3 12.4866 3C8.96839 3 5.92476 5.01682 4.44385 7.95818L7.45067 10.29C8.15839 8.16273 10.1425 6.57955 12.4866 6.57955Z" fill="#EA4335"/>
</svg>
