<svg width="24" height="24" viewBox="0 0 24 24" fill="none" xmlns="http://www.w3.org/2000/svg">
<rect width="24" height="24" rx="12" fill="#FFE812"/>
<path d="M12.0001 6.58496C13.1773 6.58496 14.2662 6.81408 15.2666 7.27233C16.267 7.73057 17.0579 8.3537 17.6393 9.14168C18.2207 9.92964 18.5113 10.7892 18.5113 11.7202C18.5113 12.6512 18.2207 13.512 17.6393 14.3024C17.0579 15.0928 16.2682 15.7171 15.2702 16.1754C14.2722 16.6336 13.1822 16.8627 12.0001 16.8627C11.627 16.8627 11.2418 16.836 10.8446 16.7827C9.11987 17.9804 8.20182 18.5866 8.09039 18.6011C8.03709 18.6205 7.9862 18.6181 7.93777 18.5939C7.91838 18.5793 7.90385 18.5599 7.89416 18.5357C7.88447 18.5114 7.87963 18.4896 7.87963 18.4702V18.4411C7.90871 18.252 8.12913 17.464 8.54094 16.0772C7.60591 15.6116 6.86345 14.9946 6.31358 14.226C5.76371 13.4574 5.48877 12.6221 5.48877 11.7202C5.48877 10.7892 5.77945 9.92964 6.36082 9.14168C6.94218 8.3537 7.73308 7.73057 8.73351 7.27233C9.73394 6.81408 10.8228 6.58496 12.0001 6.58496Z" fill="#3A2020"/>
</svg>
