<svg width="25" height="24" viewBox="0 0 25 24" fill="none" xmlns="http://www.w3.org/2000/svg">
<path fill-rule="evenodd" clip-rule="evenodd" d="M6.2674 22.087C6.28916 22.3362 6.40351 22.5681 6.58789 22.7372C6.77226 22.9062 7.01328 22.9999 7.2634 23H18.2264C18.4765 22.9999 18.7175 22.9062 18.9019 22.7372C19.0863 22.5681 19.2006 22.3362 19.2224 22.087L19.4744 19.193L20.1914 10.969L20.3074 9.631H5.1824L6.2674 22.087ZM21.4444 4.53H19.8474L18.7584 1.666C18.6838 1.47019 18.5515 1.30165 18.379 1.18271C18.2065 1.06378 18.0019 1.00006 17.7924 1H7.6984C7.2684 1 6.8844 1.265 6.7314 1.666L5.6424 4.53H3.8374C3.70479 4.53 3.57762 4.58268 3.48385 4.67645C3.39008 4.77021 3.3374 4.89739 3.3374 5.03V7.131C3.3374 7.26361 3.39008 7.39079 3.48385 7.48455C3.57762 7.57832 3.70479 7.631 3.8374 7.631H21.4444C21.577 7.631 21.7042 7.57832 21.798 7.48455C21.8917 7.39079 21.9444 7.26361 21.9444 7.131V5.03C21.9444 4.89739 21.8917 4.77021 21.798 4.67645C21.7042 4.58268 21.577 4.53 21.4444 4.53Z" fill="#B8C3D9"/>
</svg>
