<svg width="24" height="24" viewBox="0 0 24 24" fill="none" xmlns="http://www.w3.org/2000/svg">
<path fill-rule="evenodd" clip-rule="evenodd" d="M12 17.439C9.336 17.439 7.113 15.878 6.605 13.804C6.491 13.336 6.942 12.902 7.522 12.902H16.478C17.058 12.902 17.509 13.336 17.395 13.804C16.887 15.878 14.664 17.439 12 17.439M9.286 7.57498C9.67852 7.57472 10.0551 7.73039 10.3328 8.00776C10.6106 8.28512 10.7667 8.66146 10.767 9.05398C10.7673 9.4465 10.6116 9.82305 10.3342 10.1008C10.0569 10.3785 9.68052 10.5347 9.288 10.535C9.09364 10.5351 8.90116 10.497 8.72155 10.4227C8.54194 10.3484 8.37871 10.2395 8.24119 10.1022C7.96345 9.82484 7.80727 9.4485 7.807 9.05598C7.80673 8.66346 7.96241 8.28691 8.23977 8.00917C8.51714 7.73143 8.89348 7.57525 9.286 7.57498M14.921 7.57498C15.1198 7.56754 15.3181 7.60024 15.5039 7.67115C15.6898 7.74206 15.8595 7.84971 16.0028 7.98768C16.1461 8.12564 16.2601 8.29108 16.3381 8.47411C16.416 8.65714 16.4563 8.85401 16.4564 9.05294C16.4565 9.25188 16.4165 9.4488 16.3389 9.63194C16.2612 9.81507 16.1474 9.98067 16.0042 10.1188C15.8611 10.257 15.6916 10.3649 15.5058 10.436C15.32 10.5072 15.1218 10.5402 14.923 10.533C14.5401 10.5192 14.1776 10.3574 13.9115 10.0818C13.6455 9.80613 13.4966 9.43805 13.4964 9.05494C13.4961 8.67184 13.6444 8.30356 13.9101 8.02755C14.1758 7.75155 14.5382 7.58932 14.921 7.57498M12 0.97998C5.925 0.97998 1 5.90398 1 11.98C1 18.055 5.925 22.98 12 22.98C18.075 22.98 23 18.055 23 11.98C23 5.90398 18.075 0.97998 12 0.97998" fill="#B8C3D9"/>
</svg>
