<svg width="25" height="25" viewBox="0 0 25 25" fill="none" xmlns="http://www.w3.org/2000/svg">
<path fill-rule="evenodd" clip-rule="evenodd" d="M23.0048 12.9788C22.9995 13.5863 22.5026 14.0744 21.8952 14.0691L10.1666 13.9658C9.55912 13.9605 9.07099 13.4637 9.07634 12.8562C9.08169 12.2487 9.57849 11.7605 10.186 11.7659L21.9145 11.8691C22.522 11.8745 23.0101 12.3713 23.0048 12.9788Z" fill="#B8C3D9"/>
<path fill-rule="evenodd" clip-rule="evenodd" d="M15.8412 18.9256C15.4155 18.4922 15.4218 17.7958 15.8552 17.3701L20.3491 12.9563L15.9335 8.46219C15.5077 8.02885 15.5139 7.33239 15.9472 6.90661C16.3805 6.48084 17.077 6.48697 17.5028 6.92031L22.6895 12.1992C22.894 12.4073 23.0074 12.6881 23.0048 12.9799C23.0022 13.2717 22.8838 13.5504 22.6757 13.7549L17.3968 18.9396C16.9634 19.3653 16.2669 19.3591 15.8412 18.9256Z" fill="#B8C3D9"/>
<path fill-rule="evenodd" clip-rule="evenodd" d="M9.80417 20.1549C10.1489 20.1579 10.4808 20.0239 10.7267 19.7822C10.9727 19.5406 11.1125 19.2112 11.1156 18.8664L11.1305 17.1725C11.1358 16.565 11.6326 16.0768 12.2401 16.0822C12.8476 16.0875 13.3357 16.5843 13.3304 17.1918L13.3155 18.8858C13.3073 19.814 12.9307 20.7009 12.2686 21.3515C11.6065 22.0021 10.713 22.363 9.7848 22.3548L5.33698 22.3157C4.40875 22.3075 3.52179 21.9309 2.87122 21.2688C2.22064 20.6067 1.85975 19.7132 1.86792 18.785L1.97342 6.80045C1.98198 5.87248 2.35872 4.98544 3.0208 4.33518C3.68289 3.68492 4.57612 3.32422 5.50409 3.33239L9.95191 3.37155C10.8801 3.37972 11.7671 3.75629 12.4177 4.41842C13.0682 5.08055 13.4291 5.974 13.421 6.90222L13.4061 8.59215C13.4007 9.19964 12.9039 9.68778 12.2965 9.68243C11.689 9.67708 11.2008 9.18028 11.2062 8.57279L11.2211 6.88285C11.2241 6.53809 11.09 6.20624 10.8484 5.9603C10.6068 5.71437 10.2773 5.5745 9.93255 5.57146L5.48472 5.53231C5.14005 5.52927 4.80827 5.66325 4.56236 5.90477C4.31644 6.1463 4.17651 6.4756 4.17333 6.82027L4.06784 18.8043C4.0648 19.1491 4.19885 19.481 4.44049 19.7269C4.68213 19.9728 5.01157 20.1127 5.35634 20.1157L9.80417 20.1549Z" fill="#B8C3D9"/>
</svg>
