<svg width="24" height="24" viewBox="0 0 24 24" fill="none" xmlns="http://www.w3.org/2000/svg">
<path d="M21.111 4.259L12.38 0.673999C12.137 0.573999 11.864 0.573999 11.62 0.673999L2.88904 4.259C2.51404 4.413 2.26904 4.778 2.26904 5.184V13.519C2.26904 17.316 7.07204 21.009 11.552 23.293C11.834 23.437 12.166 23.437 12.447 23.293C16.927 21.009 21.73 17.316 21.73 13.519V5.184C21.731 4.779 21.486 4.413 21.111 4.259ZM12 6.497C13.217 6.497 14.203 7.483 14.203 8.7C14.203 9.917 13.217 10.902 12 10.902C10.783 10.902 9.79704 9.916 9.79704 8.699C9.79704 7.482 10.783 6.497 12 6.497ZM12 16.503C10.023 16.503 7.10504 16.225 7.10504 15.182C7.10504 14.139 8.47604 11.896 12 11.896C15.524 11.896 16.895 14.139 16.895 15.182C16.895 16.225 13.977 16.503 12 16.503Z" fill="#B8C3D9"/>
</svg>
