<svg width="24" height="24" viewBox="0 0 24 24" fill="none" xmlns="http://www.w3.org/2000/svg">
<path fill-rule="evenodd" clip-rule="evenodd" d="M22.3601 20.84L18.9231 16.03C18.6391 15.6358 18.2275 15.3521 17.7581 15.227L17.7041 15.292C16.8091 16.352 15.6711 17.542 14.1211 19.04C13.5525 19.5899 12.792 19.8967 12.0011 19.895C11.2105 19.8972 10.4502 19.5908 9.88206 19.041C8.30006 17.511 7.14406 16.298 6.24206 15.224C5.76843 15.3469 5.35275 15.6317 5.06706 16.029L1.63006 20.84C1.51798 20.997 1.45133 21.1819 1.43742 21.3743C1.42352 21.5667 1.4629 21.7593 1.55123 21.9308C1.63957 22.1023 1.77346 22.2461 1.93819 22.3466C2.10292 22.447 2.29213 22.5001 2.48506 22.5H21.5051C22.3591 22.5 22.8551 21.535 22.3591 20.84" fill="#B8C3D9"/>
<path fill-rule="evenodd" clip-rule="evenodd" d="M12.0001 6.302C12.2664 6.29591 12.5313 6.34309 12.7791 6.44078C13.027 6.53846 13.2528 6.68468 13.4434 6.87084C13.6339 7.05701 13.7854 7.27937 13.8888 7.52487C13.9923 7.77037 14.0456 8.03407 14.0458 8.30047C14.0459 8.56688 13.9928 8.83063 13.8896 9.07623C13.7864 9.32184 13.6352 9.54435 13.4448 9.73071C13.2544 9.91706 13.0287 10.0635 12.781 10.1614C12.5332 10.2594 12.2684 10.3068 12.0021 10.301C11.4716 10.3011 10.9629 10.0905 10.5877 9.71556C10.2125 9.34058 10.0017 8.83193 10.0016 8.3015C10.0014 7.77106 10.212 7.2623 10.587 6.88714C10.962 6.51197 11.4706 6.30113 12.0011 6.301M11.2731 17.603C11.4694 17.7907 11.7306 17.8955 12.0023 17.8953C12.2739 17.8951 12.535 17.79 12.7311 17.602C17.3491 13.14 18.8031 10.902 18.8031 8.302C18.8031 3.898 14.6161 0.470996 10.0061 1.784C7.09607 2.614 5.20007 5.276 5.20007 8.302C5.20007 10.904 6.65507 13.141 11.2731 17.602" fill="#B8C3D9"/>
</svg>
