<svg width="24" height="24" viewBox="0 0 24 24" fill="none" xmlns="http://www.w3.org/2000/svg">
<path fill-rule="evenodd" clip-rule="evenodd" d="M17.207 10.415L11.623 15.999C11.4355 16.1865 11.1812 16.2918 10.916 16.2918C10.6509 16.2918 10.3966 16.1865 10.209 15.999L6.79305 12.582C6.7002 12.4892 6.62656 12.3789 6.57631 12.2576C6.52606 12.1363 6.5002 12.0063 6.5002 11.875C6.5002 11.7437 6.52606 11.6137 6.57631 11.4924C6.62656 11.3711 6.7002 11.2608 6.79305 11.168C6.88589 11.0752 6.99612 11.0015 7.11742 10.9513C7.23873 10.901 7.36875 10.8752 7.50005 10.8752C7.63135 10.8752 7.76137 10.901 7.88267 10.9513C8.00398 11.0015 8.1142 11.0752 8.20705 11.168L10.916 13.877L15.793 9.001C15.8859 8.90816 15.9961 8.83451 16.1174 8.78426C16.2387 8.73401 16.3687 8.70815 16.5 8.70815C16.6314 8.70815 16.7614 8.73401 16.8827 8.78426C17.004 8.83451 17.1142 8.90816 17.207 9.001C17.2999 9.09385 17.3735 9.20407 17.4238 9.32537C17.474 9.44668 17.4999 9.5767 17.4999 9.708C17.4999 9.8393 17.474 9.96932 17.4238 10.0906C17.3735 10.2119 17.2999 10.3222 17.207 10.415ZM19.7001 2.8H18.07V1.8C18.07 1.53478 17.9647 1.28043 17.7772 1.09289C17.5896 0.905357 17.3353 0.8 17.07 0.8C16.8048 0.8 16.5505 0.905357 16.3629 1.09289C16.1754 1.28043 16.07 1.53478 16.07 1.8V2.8H7.93005V1.8C7.93005 1.53478 7.82469 1.28043 7.63716 1.09289C7.44962 0.905357 7.19527 0.8 6.93005 0.8C6.66483 0.8 6.41048 0.905357 6.22294 1.09289C6.03541 1.28043 5.93005 1.53478 5.93005 1.8V2.8H4.30005C3.76962 2.8 3.26091 3.01071 2.88584 3.38579C2.51076 3.76086 2.30005 4.26957 2.30005 4.8V20.2C2.30005 20.7304 2.51076 21.2391 2.88584 21.6142C3.26091 21.9893 3.76962 22.2 4.30005 22.2H19.7001C20.2305 22.2 20.7392 21.9893 21.1143 21.6142C21.4893 21.2391 21.7001 20.7304 21.7001 20.2V4.8C21.7001 4.26957 21.4893 3.76086 21.1143 3.38579C20.7392 3.01071 20.2305 2.8 19.7001 2.8Z" fill="#B8C3D9"/>
</svg>
