<svg width="25" height="24" viewBox="0 0 25 24" fill="none" xmlns="http://www.w3.org/2000/svg">
<path fill-rule="evenodd" clip-rule="evenodd" d="M12.5 1.565C6.45938 1.565 1.5625 5.818 1.5625 11.065C1.5625 13.592 2.70625 15.882 4.55833 17.585L3.65417 21.834C3.63491 21.9249 3.64237 22.0191 3.6757 22.1062C3.70903 22.1932 3.76692 22.2696 3.8429 22.3269C3.91888 22.3842 4.00995 22.42 4.10595 22.4305C4.20194 22.4409 4.29906 22.4255 4.38646 22.386L9.31458 20.153C10.3524 20.4267 11.4238 20.5653 12.5 20.565C18.5406 20.565 23.4375 16.312 23.4375 11.065C23.4375 5.818 18.5406 1.565 12.5 1.565Z" fill="#B8C3D9"/>
</svg>
