<svg width="156" height="54" viewBox="0 0 156 54" fill="none" xmlns="http://www.w3.org/2000/svg">
<g clip-path="url(#clip0_9_469)">
<path d="M62.7603 46.2523V29.7883H68.1643V36.0603H76.8723V29.7883H82.2483V46.2523H76.8723V39.8683H68.1643V46.2523H62.7603ZM90.4648 46.2523C89.2328 46.2523 88.2808 46.075 87.6088 45.7203C86.9554 45.3657 86.5074 44.8803 86.2648 44.2643C86.0221 43.6297 85.9008 42.9017 85.9008 42.0803V37.8523C85.9008 37.1057 86.0221 36.4243 86.2648 35.8083C86.5261 35.1737 86.9834 34.6697 87.6368 34.2963C88.2901 33.9043 89.2328 33.7083 90.4648 33.7083H96.2608C97.7168 33.7083 98.8274 33.8857 99.5928 34.2403C100.376 34.5763 100.908 35.0617 101.188 35.6963C101.487 36.3123 101.636 37.031 101.636 37.8523V41.4363H96.7368C95.0568 41.4363 93.7781 41.399 92.9008 41.3243C92.0421 41.2497 91.4354 41.203 91.0808 41.1843V41.6043C91.0621 42.351 91.5101 42.7243 92.4248 42.7243H93.2928C94.7861 42.7243 96.1674 42.6963 97.4368 42.6403C98.7061 42.5657 99.6488 42.5003 100.264 42.4443L101.944 45.1043C101.944 45.291 101.786 45.4683 101.468 45.6363C101.151 45.8043 100.591 45.9537 99.7888 46.0843C99.0048 46.1963 97.8848 46.2523 96.4288 46.2523H90.4648ZM91.0808 38.7483H96.4568V38.3563C96.4568 37.983 96.4194 37.7217 96.3448 37.5723C96.2888 37.423 96.0928 37.3297 95.7568 37.2923C95.4208 37.255 94.8514 37.2363 94.0488 37.2363H92.4248C91.5288 37.2363 91.0808 37.6097 91.0808 38.3563V38.7483ZM105.027 46.2523V30.7403L104.747 28.5003H110.123V46.2523H105.027ZM114.31 46.2523V32.0283L114.03 29.7883H132.062V33.5963H119.77V36.1443H129.038V40.0363H119.77V46.2523H114.31ZM137.133 32.5043C135.248 32.5043 134.305 31.7017 134.305 30.0963C134.305 29.2003 134.539 28.5843 135.005 28.2483C135.491 27.8937 136.2 27.7163 137.133 27.7163C138.123 27.7163 138.841 27.8937 139.289 28.2483C139.756 28.5843 139.989 29.2003 139.989 30.0963C139.989 31.7017 139.037 32.5043 137.133 32.5043ZM134.557 46.2523V33.7083H139.653V46.2523H134.557ZM148.228 46.2523C146.81 46.2523 145.839 45.9537 145.316 45.3563C144.794 44.759 144.532 43.863 144.532 42.6683V37.2363H142.236V33.7083H143.412C143.73 33.7083 143.982 33.6523 144.168 33.5403C144.374 33.4097 144.504 33.1857 144.56 32.8683L145.092 29.8723H149.684V33.7083H154.36V37.2363H149.684V41.5763C149.684 42.043 149.796 42.351 150.02 42.5003C150.244 42.6497 150.58 42.7243 151.028 42.7243H153.828L154.388 45.9723C153.996 46.0283 153.399 46.0937 152.596 46.1683C151.794 46.2243 150.916 46.2523 149.964 46.2523H148.228Z" fill="#3361FF"/>
<path d="M62.0157 15.6973C60.277 12.9094 58.25 11.0458 55.3744 8.43045C51.6165 5.0155 49.8161 2.4457 44.5952 4.45862C43.8952 6.06194 43.8952 7.96054 44.5952 9.56526C46.9917 9.69151 48.2577 8.68926 50.2671 8.43045C51.1536 10.5682 53.647 12.3104 52.879 16.1062C52.7555 16.1434 52.6328 16.1721 52.5122 16.2065C51.8522 15.8684 51.0309 15.6636 50.1373 15.6636C48.8623 15.6636 47.7331 16.0725 47.0135 16.7052C45.4789 16.654 43.7746 15.9575 41.7308 16.3706C39.9914 16.6722 38.4554 18.1773 37.5387 17.5889C36.5126 16.8181 35.9866 16.6694 35.739 16.048C35.4248 15.2407 35.5581 15.4609 35.5581 13.92C35.5581 12.121 37.5927 9.70974 37.611 9.22229C37.6131 9.21598 37.6131 9.20756 37.6131 9.20125C37.74 8.88003 37.8158 8.44167 37.8158 7.95633C37.8158 7.16729 37.611 6.50099 37.3332 6.26674C37.0814 4.77704 36.669 2.43798 36.0855 1.48763C33.893 -0.328905 30.929 -0.437616 28.1432 0.920228C27.2623 1.90565 26.6963 4.48176 26.3828 6.17767C26.3737 6.17767 26.3667 6.17486 26.3554 6.17486C25.9641 6.17486 25.6485 6.97231 25.6485 7.95633C25.6485 8.80288 25.8827 9.51055 26.1983 9.6908C26.6051 10.4932 27.9973 12.4907 27.9973 14.141C27.9973 15.0941 28.0703 15.4609 27.5211 16.3054C27.0954 16.9556 26.4978 17.3869 25.4654 17.9564C23.1088 15.5451 20.8588 15.7176 16.3308 16.8756C15.6302 16.1455 14.4105 15.6629 13.0288 15.6629C11.9389 15.6629 10.9549 15.9596 10.2409 16.4407C10.1539 16.3924 10.0593 16.3412 9.97649 16.2815C9.50517 12.7852 12.6865 10.1804 13.9595 8.42975C15.4794 8.99224 16.9508 9.59822 19.0669 9.56456C19.5908 7.33702 20.3034 7.45485 19.635 5.02462C13.6362 1.73732 12.3667 5.25256 8.85501 8.42905C5.93101 11.0725 3.12415 13.1647 1.5068 16.0739C1.27815 16.4877 1.05582 17.2824 0.875571 17.7355C0.648328 18.3113 0.0297234 18.8366 0.343234 19.2097C0.637106 19.5534 4.30314 22.7762 6.77826 24.0653C7.63533 24.7646 8.86202 25.332 10.278 25.609C11.5686 25.8629 12.8079 25.8355 13.8171 25.583C14.2422 25.5697 14.6763 25.5445 15.1315 25.5024C15.2023 26.1547 15.3489 26.8364 15.586 27.5181C16.1113 29.0338 16.9684 30.2731 17.9264 31.0502C18.0253 31.2529 18.1312 31.457 18.2336 31.6576C18.3942 32.3688 18.6117 33.1031 18.895 33.8423C19.4954 35.4085 20.2858 36.7663 21.1338 37.7924C21.671 39.2295 22.1017 42.2433 22.3464 44.9688C25.1961 46.274 28.3627 46.9999 31.7188 46.9999C35.2516 46.9999 38.5831 46.1927 41.5449 44.7486C41.8037 41.8533 42.1733 38.8887 42.6159 37.6458C43.419 36.6401 44.1617 35.3362 44.734 33.8423C45.0174 33.1024 45.2369 32.3702 45.3954 31.6604C45.5385 31.403 45.6753 31.1442 45.8169 30.8861C46.6978 30.104 47.4757 28.9328 47.9673 27.5181C48.1574 26.9682 48.2914 26.4205 48.372 25.8867C48.4379 25.7402 48.5039 25.5957 48.5656 25.4491C54.7439 26.3104 59.8036 23.2861 62.6799 19.0821C62.9057 18.7532 63.0341 18.5946 63.316 18.0735C63.598 17.5524 62.837 17.1148 62.5908 16.6743C62.4021 16.3369 62.2107 16.0108 62.0157 15.6973Z" fill="#3361FF"/>
</g>
<defs>
<clipPath id="clip0_9_469">
<rect width="155" height="54" fill="white" transform="translate(0.119141)"/>
</clipPath>
</defs>
</svg>
