<svg width="32" height="33" viewBox="0 0 32 33" fill="none" xmlns="http://www.w3.org/2000/svg">
<rect y="0.0917969" width="32" height="32" rx="16" fill="#E6ECFC"/>
<path fill-rule="evenodd" clip-rule="evenodd" d="M20.0693 11.6382C20.0693 12.1726 19.9641 12.7018 19.7597 13.1955C19.5552 13.6892 19.2555 14.1378 18.8777 14.5157C18.4999 14.8936 18.0513 15.1934 17.5576 15.398C17.0639 15.6025 16.5348 15.7078 16.0004 15.7079C14.9212 15.708 13.8861 15.2794 13.1229 14.5163C12.3597 13.7533 11.9308 12.7183 11.9307 11.639C11.9307 11.1046 12.0359 10.5755 12.2403 10.0818C12.4448 9.58803 12.7444 9.1394 13.1223 8.76149C13.8853 7.99828 14.9203 7.56945 15.9996 7.56934C17.0788 7.56923 18.1139 7.99785 18.8771 8.76091C19.6403 9.52397 20.0692 10.559 20.0693 11.6382M16 16.9528C10.1401 16.9528 7.8606 20.6821 7.8606 22.417C7.8606 24.1511 12.713 24.6133 16 24.6133C19.287 24.6133 24.1394 24.1511 24.1394 22.417C24.1394 20.6821 21.8599 16.9528 16 16.9528Z" fill="#3361FF"/>
</svg>
