<svg width="19" height="22" viewBox="0 0 19 22" fill="none" xmlns="http://www.w3.org/2000/svg">
<path fill-rule="evenodd" clip-rule="evenodd" d="M12.566 15.877C12.566 16.1157 12.4712 16.3446 12.3024 16.5134C12.1336 16.6822 11.9047 16.777 11.666 16.777C11.4273 16.777 11.1984 16.6822 11.0296 16.5134C10.8608 16.3446 10.766 16.1157 10.766 15.877V10.871C10.766 10.6323 10.8608 10.4034 11.0296 10.2346C11.1984 10.0658 11.4273 9.971 11.666 9.971C11.9047 9.971 12.1336 10.0658 12.3024 10.2346C12.4712 10.4034 12.566 10.6323 12.566 10.871V15.877ZM8.433 15.877C8.433 16.1157 8.33818 16.3446 8.1694 16.5134C8.00061 16.6822 7.77169 16.777 7.533 16.777C7.29431 16.777 7.06539 16.6822 6.8966 16.5134C6.72782 16.3446 6.633 16.1157 6.633 15.877V10.871C6.633 10.6323 6.72782 10.4034 6.8966 10.2346C7.06539 10.0658 7.29431 9.971 7.533 9.971C7.77169 9.971 8.00061 10.0658 8.1694 10.2346C8.33818 10.4034 8.433 10.6323 8.433 10.871V15.877ZM6.529 3C6.529 2.73478 6.63436 2.48043 6.82189 2.29289C7.00943 2.10536 7.26378 2 7.529 2H11.673C12.224 2 12.673 2.448 12.673 3V3.941H6.529V3ZM17.799 3.941H14.673V3C14.673 1.346 13.328 0 11.673 0H7.529C5.875 0 4.529 1.346 4.529 3V3.941H1.2C0.88174 3.941 0.576516 4.06743 0.351472 4.29247C0.126428 4.51752 0 4.82274 0 5.141V5.741C0 6.05926 0.126428 6.36448 0.351472 6.58953C0.576516 6.81457 0.88174 6.941 1.2 6.941H1.331L1.803 18.977C1.82755 19.5967 2.09107 20.1829 2.53831 20.6126C2.98555 21.0423 3.58178 21.2822 4.202 21.282H14.998C15.618 21.2822 16.214 21.0423 16.661 20.6125C17.1079 20.1827 17.371 19.5966 17.395 18.977L17.869 6.927C18.1734 6.9114 18.4603 6.77978 18.6706 6.55919C18.881 6.3386 18.9989 6.04581 19 5.741V5.141C19 4.479 18.462 3.941 17.799 3.941Z" fill="#F8424D"/>
</svg>
