<svg width="24" height="24" viewBox="0 0 24 24" fill="none" xmlns="http://www.w3.org/2000/svg">
<path fill-rule="evenodd" clip-rule="evenodd" d="M10.9038 21.5267C11.5698 21.9667 12.4288 21.9667 13.0938 21.5267C15.2088 20.1307 19.8138 16.7937 21.7978 13.0597C24.4128 8.1337 21.3418 3.2207 17.2818 3.2207C14.9678 3.2207 13.5758 4.4297 12.8058 5.4687C12.7133 5.59596 12.592 5.69952 12.4518 5.77093C12.3116 5.84233 12.1566 5.87956 11.9993 5.87956C11.8419 5.87956 11.6869 5.84233 11.5467 5.77093C11.4065 5.69952 11.2852 5.59596 11.1928 5.4687C10.4228 4.4297 9.03076 3.2207 6.71676 3.2207C2.65676 3.2207 -0.414244 8.1337 2.20176 13.0597C4.18376 16.7937 8.79076 20.1307 10.9038 21.5267Z" fill="#FB0000"/>
</svg>
