<svg width="25" height="24" viewBox="0 0 25 24" fill="none" xmlns="http://www.w3.org/2000/svg">
<path d="M22.4894 20.1509L17.8824 15.544C18.9674 14.106 19.6184 12.3239 19.6184 10.3879C19.6184 5.65195 15.7644 1.79895 11.0294 1.79895C6.29343 1.79995 2.44043 5.65295 2.44043 10.389C2.44043 15.124 6.29343 18.978 11.0294 18.978C12.9644 18.978 14.7474 18.327 16.1854 17.242L20.7924 21.849C21.0264 22.083 21.3334 22.2 21.6404 22.2C21.9474 22.2 22.2544 22.083 22.4894 21.8479C22.9574 21.3799 22.9574 20.6199 22.4894 20.1509ZM4.84043 10.389C4.84043 6.97595 7.61643 4.19995 11.0294 4.19995C14.4414 4.19995 17.2174 6.97595 17.2174 10.3879C17.2174 13.7999 14.4414 16.576 11.0294 16.576C7.61643 16.577 4.84043 13.801 4.84043 10.389Z" fill="#e6ecfc"/>
</svg>
