<svg width="22" height="19" viewBox="0 0 22 19" fill="none" xmlns="http://www.w3.org/2000/svg">
<mask id="path-1-inside-1_392_1091" fill="white">
<path fill-rule="evenodd" clip-rule="evenodd" d="M9.67182 18.306C10.3378 18.746 11.1968 18.746 11.8618 18.306C13.9768 16.91 18.5818 13.573 20.5658 9.839C23.1808 4.913 20.1098 0 16.0498 0C13.7358 0 12.3438 1.209 11.5738 2.248C11.4813 2.37525 11.3601 2.47882 11.2199 2.55022C11.0797 2.62163 10.9246 2.65885 10.7673 2.65885C10.61 2.65885 10.4549 2.62163 10.3148 2.55022C10.1746 2.47882 10.0533 2.37525 9.96082 2.248C9.19082 1.209 7.79882 0 5.48482 0C1.42482 0 -1.64618 4.913 0.969822 9.839C2.95182 13.573 7.55882 16.91 9.67182 18.306"/>
</mask>
<path fill-rule="evenodd" clip-rule="evenodd" d="M9.67182 18.306C10.3378 18.746 11.1968 18.746 11.8618 18.306C13.9768 16.91 18.5818 13.573 20.5658 9.839C23.1808 4.913 20.1098 0 16.0498 0C13.7358 0 12.3438 1.209 11.5738 2.248C11.4813 2.37525 11.3601 2.47882 11.2199 2.55022C11.0797 2.62163 10.9246 2.65885 10.7673 2.65885C10.61 2.65885 10.4549 2.62163 10.3148 2.55022C10.1746 2.47882 10.0533 2.37525 9.96082 2.248C9.19082 1.209 7.79882 0 5.48482 0C1.42482 0 -1.64618 4.913 0.969822 9.839C2.95182 13.573 7.55882 16.91 9.67182 18.306" fill="white"/>
<path d="M11.8618 18.306L11.311 17.4714L11.31 17.472L11.8618 18.306ZM20.5658 9.839L21.4489 10.3082L21.4491 10.3079L20.5658 9.839ZM11.5738 2.248L10.7704 1.65256L10.7649 1.66009L11.5738 2.248ZM9.96082 2.248L10.7698 1.66007L10.7642 1.65259L9.96082 2.248ZM0.969822 9.839L1.8531 9.37016L1.85301 9.36998L0.969822 9.839ZM9.1206 19.1404C10.1206 19.801 11.4138 19.8015 12.4136 19.14L11.31 17.472C10.9798 17.6905 10.555 17.691 10.223 17.4716L9.1206 19.1404ZM12.4127 19.1406C13.4937 18.4271 15.2155 17.2149 16.9265 15.6974C18.6263 14.1898 20.3753 12.3289 21.4489 10.3082L19.6827 9.36979C18.7724 11.0831 17.2268 12.7577 15.5994 14.2011C13.9832 15.6346 12.3449 16.7889 11.311 17.4714L12.4127 19.1406ZM21.4491 10.3079C24.3356 4.87041 21.032 -1 16.0498 -1V1C19.1876 1 22.026 4.95559 19.6826 9.37012L21.4491 10.3079ZM16.0498 -1C13.3272 -1 11.6667 0.443209 10.7704 1.65259L12.3772 2.84341C13.021 1.97479 14.1444 1 16.0498 1V-1ZM10.7649 1.66009C10.7652 1.65971 10.7655 1.6594 10.766 1.65918L11.6738 3.44126C11.9546 3.29823 12.1975 3.0908 12.3827 2.83591L10.7649 1.66009ZM10.766 1.65918C10.7664 1.65897 10.7668 1.65885 10.7673 1.65885V3.65885C11.0824 3.65885 11.393 3.58429 11.6738 3.44126L10.766 1.65918ZM10.7673 1.65885C10.7678 1.65885 10.7683 1.65897 10.7687 1.65918L9.86084 3.44126C10.1416 3.58429 10.4522 3.65885 10.7673 3.65885V1.65885ZM10.7687 1.65918C10.7691 1.6594 10.7695 1.65971 10.7697 1.66009L9.1519 2.83591C9.33714 3.0908 9.58008 3.29824 9.86084 3.44126L10.7687 1.65918ZM10.7642 1.65259C9.86798 0.443209 8.20744 -1 5.48482 -1V1C7.39021 1 8.51367 1.97479 9.1574 2.84341L10.7642 1.65259ZM5.48482 -1C0.502574 -1 -2.80102 4.87049 0.0866369 10.308L1.85301 9.36998C-0.491338 4.95551 2.34707 1 5.48482 1V-1ZM0.0865412 10.3078C1.15925 12.3288 2.90837 14.1898 4.60816 15.6974C6.31919 17.2149 8.0409 18.427 9.12059 19.1404L10.2231 17.4716C9.18975 16.789 7.55145 15.6346 5.93524 14.2011C4.30777 12.7577 2.7624 11.0832 1.8531 9.37016L0.0865412 10.3078Z" fill="#FF0000" mask="url(#path-1-inside-1_392_1091)"/>
</svg>
