<svg width="90" height="90" viewBox="0 0 90 90" fill="none" xmlns="http://www.w3.org/2000/svg">
<rect width="90" height="90" rx="45" fill="#999CE6"/>
<path fill-rule="evenodd" clip-rule="evenodd" d="M54.7626 34.2232C54.7627 35.5625 54.4991 36.8886 53.9867 38.1259C53.4743 39.3632 52.7233 40.4875 51.7764 41.4346C50.8296 42.3816 49.7054 43.1329 48.4682 43.6455C47.231 44.1582 45.9049 44.4221 44.5657 44.4222C41.8611 44.4225 39.2671 43.3483 37.3544 41.436C35.4417 39.5238 34.367 36.93 34.3667 34.2253C34.3666 32.8861 34.6303 31.56 35.1426 30.3227C35.655 29.0854 36.406 27.9611 37.3529 27.014C39.2652 25.1013 41.859 24.0266 44.5636 24.0264C47.2683 24.0261 49.8623 25.1002 51.7749 27.0125C53.6876 28.9248 54.7623 31.5186 54.7626 34.2232ZM44.5647 47.542C29.8792 47.542 24.1667 56.8878 24.1667 61.2357C24.1667 65.5816 36.3272 66.7399 44.5647 66.7399C52.8022 66.7399 64.9626 65.5816 64.9626 61.2357C64.9626 56.8878 59.2501 47.542 44.5647 47.542Z" fill="#B8C3D9"/>
</svg>
