<svg width="24" height="23" viewBox="0 0 24 23" fill="none" xmlns="http://www.w3.org/2000/svg">
<path fill-rule="evenodd" clip-rule="evenodd" d="M12.3349 5.22684L3.27288 13.9113L2.03688 18.3292L1.22388 21.2396C1.2013 21.3209 1.20142 21.4065 1.22421 21.4878C1.24701 21.569 1.29169 21.6431 1.35377 21.7026C1.41586 21.7621 1.49317 21.8049 1.57796 21.8268C1.66275 21.8486 1.75204 21.8487 1.83688 21.8271L4.87189 21.047L9.48288 19.8625H9.48388L18.5459 11.1781L12.3359 5.22684H12.3349ZM22.2929 6.23309L17.4969 1.63596C17.4041 1.54689 17.2939 1.47623 17.1726 1.42801C17.0513 1.3798 16.9212 1.35498 16.7899 1.35498C16.6586 1.35498 16.5285 1.3798 16.4072 1.42801C16.2859 1.47623 16.1757 1.54689 16.0829 1.63596L13.6079 4.00688L19.8189 9.95909L22.2929 7.58721C22.3858 7.49829 22.4596 7.39268 22.5099 7.27642C22.5602 7.16016 22.5861 7.03553 22.5861 6.90967C22.5861 6.78381 22.5602 6.65919 22.5099 6.54293C22.4596 6.42667 22.3858 6.32105 22.2929 6.23213" fill="#484E5A"/>
</svg>
