<svg width="22" height="22" viewBox="0 0 22 22" fill="none" xmlns="http://www.w3.org/2000/svg">
<path d="M2.11111 15.5V19C2.11111 19.5304 2.34524 20.0391 2.76198 20.4142C3.17873 20.7893 3.74396 21 4.33333 21H17.6667C18.256 21 18.8213 20.7893 19.238 20.4142C19.6548 20.0391 19.8889 19.5304 19.8889 19V15.5M1 13V12C1 11.4696 1.23413 10.9609 1.65087 10.5858C2.06762 10.2107 2.63285 10 3.22222 10H18.7778C19.3671 10 19.9324 10.2107 20.3491 10.5858C20.7659 10.9609 21 11.4696 21 12V13M11 7V10M11 7C12.4022 7 13.2222 6.032 13.2222 4.375C13.2222 2.718 11 1 11 1C11 1 8.77778 2.718 8.77778 4.375C8.77778 6.032 9.59778 7 11 7Z" stroke="#B8C3D9" stroke-width="2" stroke-linecap="round" stroke-linejoin="round"/>
<path d="M1 13C1 13.7956 1.35119 14.5587 1.97631 15.1213C2.60143 15.6839 3.44928 16 4.33333 16C5.21739 16 6.06524 15.6839 6.69036 15.1213C7.31548 14.5587 7.66667 13.7956 7.66667 13C7.66667 13.7956 8.01786 14.5587 8.64298 15.1213C9.2681 15.6839 10.1159 16 11 16C11.8841 16 12.7319 15.6839 13.357 15.1213C13.9821 14.5587 14.3333 13.7956 14.3333 13C14.3333 13.7956 14.6845 14.5587 15.3096 15.1213C15.9348 15.6839 16.7826 16 17.6667 16C18.5507 16 19.3986 15.6839 20.0237 15.1213C20.6488 14.5587 21 13.7956 21 13" stroke="#B8C3D9" stroke-width="2" stroke-linecap="round" stroke-linejoin="round"/>
</svg>
