<svg width="20" height="20" viewBox="0 0 20 20" fill="none" xmlns="http://www.w3.org/2000/svg">
<path d="M13.2857 20L9.2381 15.2778L10.5714 13.7222L13.2857 16.8889L18.6667 10.6111L20 12.1667L13.2857 20ZM9.52381 7.77778L17.1429 2.22222H1.90476L9.52381 7.77778ZM9.52381 10L1.90476 4.44445V15.5556H6.80953L8.71429 17.7778H1.90476C1.38095 17.7778 0.932382 17.56 0.559049 17.1244C0.185716 16.6889 -0.000633304 16.1659 1.61695e-06 15.5556V2.22222C1.61695e-06 1.61111 0.186668 1.08778 0.560002 0.652224C0.933335 0.216668 1.38159 -0.000738854 1.90476 1.88644e-06H17.1429C17.6667 1.88644e-06 18.1152 0.217779 18.4886 0.653335C18.8619 1.08889 19.0483 1.61185 19.0476 2.22222V7.05556L17.1429 9.27778V4.44445L9.52381 10Z" fill="#B8C3D9"/>
</svg>
