<svg width="24" height="24" viewBox="0 0 24 24" fill="none" xmlns="http://www.w3.org/2000/svg">
<path fill-rule="evenodd" clip-rule="evenodd" d="M12 17.4395C9.336 17.4395 7.113 15.8785 6.605 13.8045C6.491 13.3365 6.942 12.9025 7.522 12.9025H16.478C17.058 12.9025 17.509 13.3365 17.395 13.8045C16.887 15.8785 14.664 17.4395 12 17.4395ZM9.286 7.57547C9.67852 7.5752 10.0551 7.73088 10.3328 8.00824C10.6106 8.28561 10.7667 8.66195 10.767 9.05447C10.7673 9.44699 10.6116 9.82354 10.3342 10.1013C10.0569 10.379 9.68052 10.5352 9.288 10.5355C9.09364 10.5356 8.90117 10.4974 8.72155 10.4232C8.54194 10.3489 8.37871 10.24 8.24119 10.1027C7.96345 9.82533 7.80727 9.44899 7.807 9.05647C7.80674 8.66395 7.96241 8.2874 8.23977 8.00966C8.51714 7.73192 8.89348 7.57573 9.286 7.57547ZM14.921 7.57547C15.1198 7.56802 15.3181 7.60073 15.5039 7.67164C15.6898 7.74255 15.8595 7.8502 16.0028 7.98816C16.1461 8.12613 16.2601 8.29157 16.3381 8.4746C16.416 8.65763 16.4563 8.8545 16.4564 9.05343C16.4565 9.25237 16.4165 9.44929 16.3389 9.63242C16.2612 9.81556 16.1474 9.98115 16.0042 10.1193C15.8611 10.2575 15.6916 10.3653 15.5058 10.4365C15.32 10.5077 15.1218 10.5406 14.923 10.5335C14.5401 10.5196 14.1776 10.3579 13.9115 10.0823C13.6455 9.80661 13.4966 9.43854 13.4964 9.05543C13.4961 8.67233 13.6444 8.30405 13.9101 8.02804C14.1758 7.75204 14.5382 7.58981 14.921 7.57547ZM12 0.980469C5.925 0.980469 1 5.90447 1 11.9805C1 18.0555 5.925 22.9805 12 22.9805C18.075 22.9805 23 18.0555 23 11.9805C23 5.90447 18.075 0.980469 12 0.980469Z" fill="#B8C3D9"/>
</svg>
