<svg width="24" height="25" viewBox="0 0 24 25" fill="none" xmlns="http://www.w3.org/2000/svg">
<path fill-rule="evenodd" clip-rule="evenodd" d="M12 15.8262C11.5185 15.8262 11.0417 15.7313 10.5969 15.5471C10.152 15.3628 9.74785 15.0928 9.40738 14.7523C9.06692 14.4118 8.79685 14.0076 8.61259 13.5628C8.42833 13.1179 8.33349 12.6412 8.33349 12.1597C8.33349 11.6782 8.42833 11.2014 8.61259 10.7566C8.79685 10.3117 9.06692 9.90754 9.40738 9.56707C9.74785 9.22661 10.152 8.95653 10.5969 8.77227C11.0417 8.58802 11.5185 8.49318 12 8.49318C12.9724 8.49318 13.905 8.87947 14.5926 9.56707C15.2802 10.2547 15.6665 11.1873 15.6665 12.1597C15.6665 13.1321 15.2802 14.0647 14.5926 14.7523C13.905 15.4399 12.9724 15.8262 12 15.8262ZM21.033 14.1112C20.53 13.5903 20.2492 12.8943 20.25 12.1702V12.1492C20.2492 11.4251 20.53 10.7291 21.033 10.2082L21.972 9.23818C22.358 8.83818 22.432 8.23018 22.155 7.74918L20.897 5.57118C20.762 5.33673 20.5542 5.15268 20.3052 5.04693C20.0562 4.94119 19.7794 4.91951 19.517 4.98518L18.202 5.31318C17.4958 5.48998 16.7485 5.38338 16.12 5.01618L16.102 5.00618C15.4829 4.6464 15.0274 4.06073 14.831 3.37218L14.455 2.06318C14.3809 1.80286 14.2239 1.5738 14.0079 1.41068C13.7919 1.24755 13.5287 1.15926 13.258 1.15918H10.742C10.187 1.15918 9.69699 1.52818 9.54499 2.06318L9.13999 3.47218C8.96217 4.1019 8.54417 4.63661 7.97599 4.96118C7.91731 4.994 7.85929 5.028 7.80199 5.06318C7.2319 5.40268 6.55057 5.50263 5.90699 5.34118L4.48199 4.98518C4.21964 4.91959 3.94307 4.9412 3.69409 5.04674C3.44512 5.15229 3.23727 5.33603 3.10199 5.57018L1.84499 7.74918C1.70979 7.98361 1.65452 8.25567 1.68754 8.52428C1.72055 8.79288 1.84005 9.04346 2.02799 9.23818L2.96699 10.2082C3.46999 10.7292 3.75099 11.4252 3.75099 12.1482V12.1702C3.75099 12.8942 3.46999 13.5902 2.96699 14.1112L2.46399 14.6312C2.15032 14.9555 1.95079 15.3732 1.89558 15.821C1.84037 16.2688 1.93249 16.7224 2.15799 17.1132L3.10299 18.7482C3.38099 19.2302 3.94299 19.4692 4.48299 19.3342L5.90799 18.9782C6.55157 18.8167 7.2329 18.9167 7.80299 19.2562C7.85999 19.2912 7.91799 19.3252 7.97699 19.3582C8.54599 19.6802 8.96099 20.2172 9.14099 20.8472L9.54499 22.2562C9.69699 22.7912 10.187 23.1592 10.742 23.1592H13.258C13.813 23.1592 14.303 22.7912 14.455 22.2562L14.859 20.8472C15.039 20.2172 15.454 19.6802 16.023 19.3582C16.082 19.3252 16.14 19.2912 16.197 19.2562C16.7671 18.9167 17.4484 18.8167 18.092 18.9782L19.517 19.3342C19.7793 19.3998 20.0559 19.3782 20.3049 19.2726C20.5539 19.1671 20.7617 18.9833 20.897 18.7492L22.155 16.5702C22.2902 16.3357 22.3455 16.0637 22.3124 15.7951C22.2794 15.5265 22.1599 15.2759 21.972 15.0812L21.032 14.1112H21.033Z" fill="#B8C3D9"/>
</svg>
