<svg width="60" height="60" viewBox="0 0 60 60" fill="none" xmlns="http://www.w3.org/2000/svg">
<rect width="60" height="60" rx="30" fill="#999CE6"/>
<path fill-rule="evenodd" clip-rule="evenodd" d="M37.6147 21.5942C37.6149 22.6388 37.4092 23.6731 37.0096 24.6383C36.6099 25.6034 36.0241 26.4803 35.2855 27.219C34.547 27.9577 33.6702 28.5437 32.7051 28.9436C31.7401 29.3434 30.7058 29.5493 29.6612 29.5494C27.5516 29.5496 25.5282 28.7117 24.0364 27.2202C22.5445 25.7286 21.7062 23.7054 21.706 21.5958C21.7059 20.5512 21.9115 19.5169 22.3112 18.5517C22.7108 17.5866 23.2966 16.7097 24.0352 15.971C25.5268 14.4791 27.5499 13.6408 29.6596 13.6406C31.7692 13.6404 33.7925 14.4783 35.2844 15.9698C36.7763 17.4614 37.6145 19.4846 37.6147 21.5942ZM29.6604 31.9828C18.2057 31.9828 13.75 39.2726 13.75 42.6639C13.75 46.0537 23.2351 46.9572 29.6604 46.9572C36.0856 46.9572 45.5707 46.0537 45.5707 42.6639C45.5707 39.2726 41.115 31.9828 29.6604 31.9828Z" fill="#B8C3D9"/>
</svg>
