<svg width="32" height="32" viewBox="0 0 32 32" fill="none" xmlns="http://www.w3.org/2000/svg">
<rect width="32" height="32" rx="16" fill="#E6ECFC"/>
<g clip-path="url(#clip0_318_1797)">
<path fill-rule="evenodd" clip-rule="evenodd" d="M24.4374 17.6879C24.4374 15.9921 23.2674 14.5761 21.6962 14.1726V13.6746C21.6962 10.5314 19.1394 7.97461 15.9962 7.97461C12.8537 7.97461 10.2969 10.5314 10.2969 13.6746V14.1726C8.72493 14.5761 7.55493 15.9921 7.55493 17.6879C7.55592 18.6534 7.93998 19.5791 8.62279 20.2618C9.3056 20.9445 10.2314 21.3283 11.1969 21.3291C11.4356 21.3291 11.6645 21.2343 11.8333 21.0655C12.0021 20.8967 12.0969 20.6678 12.0969 20.4291V13.6746C12.0969 11.5244 13.8459 9.77461 15.9962 9.77461C18.1464 9.77461 19.8962 11.5244 19.8962 13.6746V20.0564L17.9912 21.9614C17.9078 22.0451 17.8087 22.1114 17.6995 22.1566C17.5903 22.2018 17.4733 22.2249 17.3552 22.2246H15.9129C15.6742 22.2246 15.4453 22.3194 15.2765 22.4882C15.1078 22.657 15.0129 22.8859 15.0129 23.1246C15.0129 23.3633 15.1078 23.5922 15.2765 23.761C15.4453 23.9298 15.6742 24.0246 15.9129 24.0246H17.3552C18.0767 24.0246 18.7547 23.7441 19.2647 23.2341L21.2109 21.2871C23.0214 21.0786 24.4374 19.5539 24.4374 17.6879Z" fill="#3361FF"/>
</g>
<defs>
<clipPath id="clip0_318_1797">
<rect width="18" height="18" fill="white" transform="translate(6.99609 7)"/>
</clipPath>
</defs>
</svg>
