<svg width="24" height="24" viewBox="0 0 24 24" fill="none" xmlns="http://www.w3.org/2000/svg">
<path fill-rule="evenodd" clip-rule="evenodd" d="M17.2068 10.415L11.6228 15.999C11.4353 16.1865 11.181 16.2918 10.9158 16.2918C10.6506 16.2918 10.3963 16.1865 10.2088 15.999L6.7928 12.582C6.69996 12.4892 6.62631 12.379 6.57607 12.2577C6.52582 12.1364 6.49996 12.0064 6.49996 11.875C6.49996 11.7437 6.52582 11.6137 6.57607 11.4924C6.62631 11.3711 6.69996 11.2609 6.7928 11.168C6.88565 11.0752 6.99587 11.0016 7.11718 10.9513C7.23849 10.9011 7.3685 10.8752 7.4998 10.8752C7.63111 10.8752 7.76112 10.9011 7.88243 10.9513C8.00374 11.0016 8.11396 11.0752 8.2068 11.168L10.9158 13.877L15.7928 9.00105C15.8856 8.9082 15.9959 8.83456 16.1172 8.78431C16.2385 8.73406 16.3685 8.7082 16.4998 8.7082C16.6311 8.7082 16.7611 8.73406 16.8824 8.78431C17.0037 8.83456 17.114 8.9082 17.2068 9.00105C17.2996 9.09389 17.3733 9.20412 17.4235 9.32542C17.4738 9.44673 17.4997 9.57675 17.4997 9.70805C17.4997 9.83935 17.4738 9.96937 17.4235 10.0907C17.3733 10.212 17.2996 10.3222 17.2068 10.415ZM19.6998 2.80005H18.0698V1.80005C18.0698 1.53483 17.9644 1.28048 17.7769 1.09294C17.5894 0.905406 17.335 0.800049 17.0698 0.800049C16.8046 0.800049 16.5502 0.905406 16.3627 1.09294C16.1752 1.28048 16.0698 1.53483 16.0698 1.80005V2.80005H7.9298V1.80005C7.9298 1.53483 7.82445 1.28048 7.63691 1.09294C7.44938 0.905406 7.19502 0.800049 6.9298 0.800049C6.66459 0.800049 6.41023 0.905406 6.2227 1.09294C6.03516 1.28048 5.9298 1.53483 5.9298 1.80005V2.80005H4.2998C3.76937 2.80005 3.26066 3.01076 2.88559 3.38584C2.51052 3.76091 2.2998 4.26962 2.2998 4.80005V20.2001C2.2998 20.7305 2.51052 21.2392 2.88559 21.6143C3.26066 21.9893 3.76937 22.2001 4.2998 22.2001H19.6998C20.2302 22.2001 20.7389 21.9893 21.114 21.6143C21.4891 21.2392 21.6998 20.7305 21.6998 20.2001V4.80005C21.6998 4.26962 21.4891 3.76091 21.114 3.38584C20.7389 3.01076 20.2302 2.80005 19.6998 2.80005Z" fill="#D1D7E6"/>
</svg>
