<svg width="60" height="60" viewBox="0 0 60 60" fill="none" xmlns="http://www.w3.org/2000/svg">
<path fill-rule="evenodd" clip-rule="evenodd" d="M30 42.795C29.2044 42.795 28.4413 42.4789 27.8787 41.9163C27.3161 41.3537 27 40.5906 27 39.795C27 38.9994 27.3161 38.2363 27.8787 37.6737C28.4413 37.1111 29.2044 36.795 30 36.795C30.7956 36.795 31.5587 37.1111 32.1213 37.6737C32.6839 38.2363 33 38.9994 33 39.795C33 40.5906 32.6839 41.3537 32.1213 41.9163C31.5587 42.4789 30.7956 42.795 30 42.795V42.795ZM27.5 18.2075C27.5 17.5445 27.7634 16.9086 28.2322 16.4397C28.7011 15.9709 29.337 15.7075 30 15.7075C30.663 15.7075 31.2989 15.9709 31.7678 16.4397C32.2366 16.9086 32.5 17.5445 32.5 18.2075V30.7075C32.5 31.3705 32.2366 32.0064 31.7678 32.4753C31.2989 32.9441 30.663 33.2075 30 33.2075C29.337 33.2075 28.7011 32.9441 28.2322 32.4753C27.7634 32.0064 27.5 31.3705 27.5 30.7075V18.2075ZM30 2.5C14.8125 2.5 2.5 14.8125 2.5 30C2.5 45.19 14.8125 57.5 30 57.5C45.1875 57.5 57.5 45.19 57.5 30C57.5 14.8125 45.1875 2.5 30 2.5Z" fill="#B8C3D9"/>
</svg>
