<svg width="1325" height="600" viewBox="0 0 1325 600" fill="none" xmlns="http://www.w3.org/2000/svg">
<path fill-rule="evenodd" clip-rule="evenodd" d="M405.967 115.96H402.954C402.605 115.959 402.271 115.821 402.024 115.574C401.778 115.327 401.639 114.993 401.639 114.644V111.631C401.639 110.903 402.232 110.316 402.954 110.316H405.967C406.316 110.317 406.65 110.456 406.896 110.702C407.143 110.949 407.282 111.282 407.283 111.631V114.644C407.283 114.817 407.25 114.988 407.184 115.148C407.118 115.308 407.021 115.453 406.898 115.575C406.776 115.698 406.631 115.795 406.471 115.861C406.311 115.927 406.14 115.96 405.967 115.96ZM395.521 115.96H392.508C392.159 115.959 391.826 115.82 391.579 115.573C391.333 115.326 391.194 114.992 391.193 114.644V111.631C391.193 110.903 391.786 110.316 392.508 110.316H395.521C395.869 110.317 396.203 110.456 396.449 110.703C396.696 110.949 396.835 111.283 396.836 111.631V114.644C396.835 114.992 396.696 115.326 396.45 115.573C396.203 115.82 395.87 115.959 395.521 115.96ZM385.068 115.96H382.055C381.706 115.959 381.373 115.82 381.126 115.573C380.88 115.326 380.741 114.992 380.74 114.644V111.631C380.74 110.903 381.333 110.316 382.055 110.316H385.068C385.416 110.317 385.75 110.456 385.996 110.703C386.243 110.949 386.382 111.283 386.383 111.631V114.644C386.384 114.817 386.35 114.988 386.284 115.148C386.218 115.308 386.121 115.453 385.999 115.575C385.877 115.698 385.732 115.795 385.572 115.861C385.412 115.927 385.241 115.96 385.068 115.96ZM374.621 115.96H371.609C371.26 115.959 370.926 115.82 370.68 115.573C370.433 115.327 370.294 114.993 370.293 114.644V111.631C370.293 110.903 370.886 110.316 371.609 110.316H374.621C375.35 110.316 375.943 110.909 375.943 111.631V114.644C375.939 114.993 375.799 115.326 375.551 115.573C375.304 115.819 374.97 115.958 374.621 115.96ZM364.175 115.96H361.162C360.813 115.96 360.478 115.821 360.23 115.575C359.982 115.328 359.843 114.993 359.841 114.644V111.631C359.841 110.903 360.434 110.316 361.162 110.316H364.175C364.523 110.317 364.857 110.456 365.103 110.703C365.35 110.949 365.489 111.283 365.49 111.631V114.644C365.489 114.992 365.35 115.326 365.104 115.573C364.857 115.82 364.524 115.959 364.175 115.96ZM395.138 104.568H392.125C391.777 104.567 391.443 104.428 391.197 104.181C390.95 103.935 390.811 103.601 390.81 103.253V100.234C390.811 99.8856 390.95 99.5519 391.197 99.3056C391.443 99.0592 391.777 98.9203 392.125 98.9189H395.138C395.867 98.9189 396.453 99.5119 396.453 100.234V103.247C396.454 103.42 396.421 103.592 396.355 103.752C396.29 103.913 396.193 104.058 396.071 104.181C395.948 104.304 395.803 104.401 395.643 104.468C395.483 104.534 395.311 104.568 395.138 104.568ZM384.692 104.568H381.679C381.331 104.567 380.997 104.428 380.751 104.181C380.504 103.935 380.365 103.601 380.364 103.253V100.234C380.365 99.8856 380.504 99.5519 380.751 99.3056C380.997 99.0592 381.331 98.9203 381.679 98.9189H384.692C385.04 98.9203 385.374 99.0592 385.62 99.3056C385.867 99.5519 386.006 99.8856 386.007 100.234V103.247C386.008 103.42 385.975 103.592 385.909 103.752C385.844 103.913 385.747 104.058 385.625 104.181C385.502 104.304 385.357 104.401 385.197 104.468C385.037 104.534 384.865 104.568 384.692 104.568ZM374.245 104.568H371.232C370.883 104.568 370.547 104.43 370.3 104.183C370.052 103.937 369.912 103.602 369.911 103.253V100.234C369.911 99.5119 370.503 98.9189 371.232 98.9189H374.245C374.593 98.9203 374.927 99.0592 375.173 99.3056C375.42 99.5519 375.559 99.8856 375.56 100.234V103.247C375.56 103.976 374.967 104.568 374.245 104.568ZM385.068 128.197H382.055C381.707 128.196 381.373 128.057 381.127 127.81C380.88 127.564 380.741 127.23 380.74 126.882V123.869C380.74 123.14 381.333 122.553 382.055 122.553H385.068C385.417 122.554 385.75 122.693 385.997 122.94C386.243 123.186 386.382 123.52 386.383 123.869V126.882C386.384 127.055 386.35 127.226 386.284 127.386C386.218 127.546 386.121 127.691 385.999 127.813C385.877 127.935 385.732 128.032 385.572 128.098C385.412 128.164 385.241 128.197 385.068 128.197ZM374.621 128.197H371.609C371.26 128.196 370.927 128.057 370.68 127.811C370.433 127.564 370.294 127.23 370.293 126.882V123.869C370.293 123.14 370.886 122.553 371.609 122.553H374.621C375.35 122.553 375.943 123.146 375.943 123.869V126.882C375.939 127.231 375.798 127.564 375.551 127.81C375.304 128.056 374.97 128.195 374.621 128.197ZM897.04 479.247H901.129C902.117 479.247 902.913 480.051 902.913 481.031V485.12C902.913 486.109 902.109 486.905 901.129 486.905H897.04C896.567 486.903 896.114 486.715 895.78 486.38C895.445 486.046 895.257 485.593 895.255 485.12V481.031C895.254 480.796 895.3 480.564 895.39 480.347C895.479 480.131 895.611 479.934 895.777 479.768C895.943 479.602 896.14 479.471 896.356 479.381C896.573 479.292 896.805 479.246 897.04 479.247ZM911.217 479.247H915.306C916.286 479.247 917.09 480.051 917.09 481.031V485.12C917.09 486.109 916.286 486.905 915.306 486.905H911.217C910.744 486.903 910.291 486.715 909.957 486.38C909.622 486.046 909.434 485.593 909.432 485.12V481.031C909.432 480.051 910.236 479.247 911.217 479.247ZM925.402 479.247H929.491C930.472 479.247 931.276 480.051 931.276 481.031V485.12C931.276 486.109 930.472 486.905 929.491 486.905H925.402C924.422 486.905 923.618 486.101 923.618 485.12V481.031C923.617 480.797 923.663 480.564 923.753 480.348C923.842 480.131 923.974 479.934 924.139 479.768C924.305 479.603 924.502 479.471 924.719 479.382C924.935 479.292 925.168 479.246 925.402 479.247ZM939.58 479.247H943.669C944.649 479.247 945.454 480.051 945.454 481.031V485.12C945.454 486.109 944.649 486.905 943.669 486.905H939.58C939.106 486.905 938.651 486.717 938.315 486.383C937.979 486.048 937.789 485.594 937.787 485.12V481.031C937.792 480.558 937.983 480.106 938.318 479.772C938.654 479.438 939.107 479.25 939.58 479.247ZM953.758 479.247H957.847C958.835 479.247 959.64 480.051 959.64 481.031V485.12C959.64 486.109 958.835 486.905 957.847 486.905H953.758C953.285 486.903 952.832 486.715 952.498 486.38C952.163 486.046 951.975 485.593 951.973 485.12V481.031C951.973 480.051 952.777 479.247 953.758 479.247ZM911.736 494.706H915.825C916.805 494.706 917.61 495.51 917.61 496.491V500.588C917.61 501.568 916.805 502.373 915.825 502.373H911.736C911.263 502.372 910.809 502.184 910.474 501.85C910.14 501.515 909.952 501.061 909.951 500.588V496.499C909.95 496.264 909.995 496.031 910.084 495.813C910.173 495.595 910.304 495.398 910.47 495.231C910.636 495.064 910.834 494.932 911.051 494.842C911.268 494.752 911.501 494.706 911.736 494.706ZM925.914 494.706H930.003C930.983 494.706 931.787 495.51 931.787 496.491V500.588C931.787 501.568 930.983 502.373 930.003 502.373H925.914C925.441 502.371 924.988 502.182 924.654 501.848C924.32 501.514 924.131 501.061 924.129 500.588V496.499C924.128 496.264 924.173 496.031 924.262 495.813C924.351 495.595 924.482 495.397 924.648 495.231C924.814 495.064 925.011 494.932 925.229 494.842C925.446 494.752 925.679 494.706 925.914 494.706ZM940.091 494.706H944.18C945.169 494.706 945.973 495.51 945.973 496.491V500.588C945.973 501.568 945.169 502.373 944.18 502.373H940.091C939.111 502.373 938.306 501.568 938.306 500.588V496.499C938.306 495.51 939.111 494.706 940.091 494.706ZM925.402 462.639H929.491C930.472 462.639 931.276 463.443 931.276 464.424V468.513C931.276 469.501 930.472 470.297 929.491 470.297H925.402C924.929 470.295 924.476 470.107 924.142 469.773C923.808 469.438 923.62 468.986 923.618 468.513V464.424C923.617 464.189 923.663 463.957 923.752 463.74C923.842 463.523 923.973 463.327 924.139 463.161C924.305 462.995 924.502 462.863 924.718 462.774C924.935 462.684 925.167 462.638 925.402 462.639ZM939.58 462.639H943.669C944.649 462.639 945.454 463.443 945.454 464.424V468.513C945.454 469.501 944.649 470.297 943.669 470.297H939.58C939.106 470.297 938.651 470.109 938.315 469.775C937.979 469.441 937.789 468.987 937.787 468.513V464.424C937.792 463.951 937.983 463.498 938.318 463.164C938.654 462.831 939.107 462.642 939.58 462.639Z" fill="#E1E4E5"/>
<path d="M844.067 518.31H366.985C353.06 518.31 341.768 507.018 341.768 493.093V194.169C341.768 180.245 353.06 168.952 366.985 168.952H844.067C857.992 168.952 869.284 180.245 869.284 194.169V493.093C869.284 507.018 857.992 518.31 844.067 518.31Z" fill="white" stroke="#E1E4E5" stroke-width="4.518"/>
<path d="M869.284 201.901H341.768V194.169C341.768 180.245 353.06 168.952 366.985 168.952H844.067C857.992 168.952 869.284 180.245 869.284 194.169V201.901Z" fill="white" stroke="#E1E4E5" stroke-width="4.518"/>
<path d="M366.053 190.414C366.727 190.423 367.395 190.299 368.02 190.047C368.645 189.796 369.214 189.423 369.694 188.95C370.174 188.477 370.554 187.914 370.814 187.292C371.074 186.671 371.208 186.004 371.208 185.33C371.208 184.656 371.074 183.99 370.814 183.368C370.554 182.747 370.174 182.183 369.694 181.71C369.214 181.237 368.645 180.864 368.02 180.613C367.395 180.362 366.727 180.237 366.053 180.247C364.717 180.265 363.442 180.809 362.504 181.76C361.566 182.712 361.04 183.994 361.04 185.33C361.04 186.666 361.566 187.948 362.504 188.9C363.442 189.851 364.717 190.395 366.053 190.414ZM386.386 190.414C387.734 190.414 389.027 189.878 389.981 188.925C390.934 187.971 391.469 186.678 391.469 185.33C391.469 183.982 390.934 182.689 389.981 181.736C389.027 180.782 387.734 180.247 386.386 180.247C385.038 180.247 383.745 180.782 382.791 181.736C381.838 182.689 381.302 183.982 381.302 185.33C381.302 186.678 381.838 187.971 382.791 188.925C383.745 189.878 385.038 190.414 386.386 190.414ZM407.283 190.414C410.402 190.414 412.93 188.138 412.93 185.331C412.93 182.523 410.402 180.248 407.283 180.248C404.163 180.248 401.635 182.523 401.635 185.331C401.635 188.138 404.163 190.414 407.283 190.414Z" fill="#E1E4E5"/>
<path d="M957.023 431.334H479.942C466.017 431.334 454.724 420.041 454.724 406.116V107.193C454.724 93.2676 466.017 81.9746 479.942 81.9746H957.023C970.948 81.9746 982.241 93.2676 982.241 107.193V406.116C982.241 420.041 970.948 431.334 957.023 431.334Z" fill="white" stroke="#E1E4E5" stroke-width="4.518"/>
<path d="M982.241 114.924H454.724V107.193C454.724 93.2676 466.017 81.9746 479.942 81.9746H957.023C970.948 81.9746 982.241 93.2676 982.241 107.193V114.924Z" fill="white" stroke="#E1E4E5" stroke-width="4.518"/>
<path d="M479.01 103.437C479.683 103.447 480.352 103.322 480.977 103.071C481.602 102.82 482.171 102.447 482.65 101.974C483.13 101.501 483.511 100.938 483.771 100.317C484.03 99.6953 484.164 99.0285 484.164 98.355C484.164 97.6815 484.03 97.0147 483.771 96.3933C483.511 95.772 483.13 95.2085 482.65 94.7356C482.171 94.2628 481.602 93.8899 480.977 93.6387C480.352 93.3875 479.683 93.263 479.01 93.2725C477.674 93.2912 476.4 93.8349 475.462 94.786C474.524 95.7372 473.998 97.0192 473.998 98.355C473.998 99.6907 474.524 100.973 475.462 101.924C476.4 102.875 477.674 103.419 479.01 103.437ZM499.342 103.437C500.015 103.447 500.684 103.322 501.309 103.071C501.934 102.82 502.503 102.447 502.982 101.974C503.462 101.501 503.843 100.938 504.103 100.317C504.362 99.6953 504.496 99.0285 504.496 98.355C504.496 97.6815 504.362 97.0147 504.103 96.3933C503.843 95.772 503.462 95.2085 502.982 94.7356C502.503 94.2628 501.934 93.8899 501.309 93.6387C500.684 93.3875 500.015 93.263 499.342 93.2725C498.006 93.2912 496.732 93.8349 495.794 94.786C494.856 95.7372 494.33 97.0192 494.33 98.355C494.33 99.6907 494.856 100.973 495.794 101.924C496.732 102.875 498.006 103.419 499.342 103.437ZM520.239 103.437C523.358 103.437 525.887 101.162 525.887 98.3545C525.887 95.5475 523.358 93.2715 520.239 93.2715C517.12 93.2715 514.591 95.5475 514.591 98.3545C514.591 101.162 517.12 103.437 520.239 103.437Z" fill="#E1E4E5"/>
<path d="M900.953 283.635H667.407C662.861 283.635 659.176 287.32 659.176 291.865C659.176 296.411 662.861 300.096 667.407 300.096H900.953C905.499 300.096 909.184 296.411 909.184 291.865C909.184 287.32 905.499 283.635 900.953 283.635Z" fill="#E1E4E5"/>
<path d="M900.953 330.962H667.407C662.861 330.962 659.176 334.647 659.176 339.192C659.176 343.738 662.861 347.423 667.407 347.423H900.953C905.499 347.423 909.184 343.738 909.184 339.192C909.184 334.647 905.499 330.962 900.953 330.962Z" fill="#E1E4E5"/>
<path d="M863.062 235.596H667.648C662.969 235.596 659.176 239.389 659.176 244.068C659.176 248.747 662.969 252.54 667.648 252.54H863.062C867.741 252.54 871.534 248.747 871.534 244.068C871.534 239.389 867.741 235.596 863.062 235.596Z" fill="#E1E4E5"/>
<path d="M912.27 185.896H667.407C662.861 185.896 659.176 189.581 659.176 194.127C659.176 198.673 662.861 202.357 667.407 202.357H912.27C916.816 202.357 920.501 198.673 920.501 194.127C920.501 189.581 916.816 185.896 912.27 185.896Z" fill="#E1E4E5"/>
<path d="M537.734 239.195C541.448 239.195 544.459 236.184 544.459 232.47C544.459 228.756 541.448 225.745 537.734 225.745C534.02 225.745 531.009 228.756 531.009 232.47C531.009 236.184 534.02 239.195 537.734 239.195Z" fill="#E1E4E5" stroke="#E1E4E5" stroke-width="4.203"/>
<path d="M605.823 244.808C603.51 244.45 601.174 244.261 598.834 244.24C584.725 244.138 571.282 250.324 562.058 261.163C552.833 272.002 548.757 286.403 550.905 300.559" stroke="#E1E4E5" stroke-width="11.348" stroke-linecap="round" stroke-linejoin="round"/>
<path d="M608.345 248.022C608.345 255.142 606.943 262.192 604.218 268.771C601.493 275.349 597.5 281.326 592.465 286.361C587.43 291.395 581.453 295.389 574.875 298.114C568.297 300.839 561.246 302.241 554.126 302.241C539.746 302.24 525.956 296.528 515.788 286.36C505.62 276.192 499.907 262.401 499.907 248.022C499.906 233.642 505.618 219.85 515.786 209.682C525.955 199.514 539.746 193.802 554.126 193.802C568.506 193.802 582.297 199.514 592.466 209.682C602.634 219.85 608.346 233.642 608.345 248.022Z" stroke="#E1E4E5" stroke-width="11.348" stroke-linecap="round" stroke-linejoin="round"/>
<path d="M390.339 363.237C395.954 363.237 400.505 367.789 400.505 373.403C400.505 379.018 395.954 383.569 390.339 383.569C384.724 383.569 380.173 379.018 380.173 373.403C380.173 367.789 384.724 363.237 390.339 363.237Z" fill="#3664FF"/>
<path d="M402.2 270.613C396.273 270.613 391.469 275.418 391.469 281.344C391.469 287.271 396.273 292.075 402.2 292.075C408.127 292.075 412.931 287.271 412.931 281.344C412.931 275.418 408.127 270.613 402.2 270.613Z" fill="#E1E4E5"/>
<path d="M486.917 494.267C480.99 494.267 476.186 489.462 476.186 483.536C476.186 477.609 480.99 472.805 486.917 472.805C492.844 472.805 497.648 477.609 497.648 483.536C497.648 489.462 492.844 494.267 486.917 494.267Z" fill="#E1E4E5"/>
<path d="M398.106 456.399L372.805 481.7C371.884 482.621 371.884 484.115 372.805 485.036C373.726 485.957 375.22 485.957 376.141 485.036L401.442 459.735C402.363 458.814 402.363 457.32 401.442 456.399C400.521 455.478 399.027 455.478 398.106 456.399Z" fill="#E1E4E5"/>
<path d="M395.629 474.514L388.332 481.81C387.411 482.732 387.411 484.225 388.332 485.147C389.253 486.068 390.747 486.068 391.668 485.147L398.965 477.85C399.886 476.929 399.886 475.435 398.965 474.514C398.044 473.593 396.55 473.593 395.629 474.514Z" fill="#E1E4E5"/>
<path d="M422.951 151.383L439.343 134.991C439.94 134.394 439.94 133.426 439.343 132.829C438.746 132.232 437.778 132.233 437.181 132.83L420.789 149.222C420.192 149.819 420.192 150.787 420.789 151.384C421.386 151.981 422.354 151.981 422.951 151.383Z" fill="#E1E4E5"/>
<path d="M424.555 139.646L429.282 134.919C429.879 134.322 429.879 133.354 429.282 132.757C428.685 132.16 427.717 132.16 427.12 132.757L422.393 137.484C421.796 138.082 421.796 139.049 422.393 139.646C422.99 140.243 423.958 140.243 424.555 139.646Z" fill="#E1E4E5"/>
<path fill-rule="evenodd" clip-rule="evenodd" d="M603.662 489.151L573.905 393.72C570.767 383.653 581.033 374.632 590.559 379.092L679.305 420.684C689.822 425.611 688.053 441.146 676.695 443.553L640.16 451.314L626.605 489.58C622.702 500.567 607.139 500.264 603.662 489.151Z" fill="#3664FF"/>
<path d="M821.827 479.289C817.775 481.628 812.593 480.24 810.254 476.188C807.914 472.136 809.303 466.954 813.355 464.615C817.407 462.275 822.588 463.664 824.928 467.716C827.267 471.768 825.879 476.949 821.827 479.289Z" fill="#3664FF"/>
<path d="M933.654 247.728C929.602 250.068 924.421 248.679 922.081 244.627C919.742 240.575 921.13 235.394 925.182 233.054C929.234 230.715 934.416 232.103 936.755 236.155C939.095 240.207 937.706 245.389 933.654 247.728Z" fill="#3664FF"/>
<path d="M519.663 365.283C522.7 367.036 523.741 370.92 521.987 373.957C520.234 376.994 516.35 378.035 513.313 376.281C510.276 374.528 509.235 370.644 510.989 367.607C512.742 364.57 516.626 363.529 519.663 365.283Z" fill="#E1E4E5"/>
<path d="M950.26 376.359C943.11 372.231 933.967 374.68 929.839 381.83C925.711 388.98 928.161 398.123 935.311 402.251C942.461 406.379 951.603 403.929 955.731 396.779C959.859 389.629 957.41 380.487 950.26 376.359Z" fill="#E1E4E5"/>
</svg>
