<svg width="1324" height="600" viewBox="0 0 1324 600" fill="none" xmlns="http://www.w3.org/2000/svg">
<g clip-path="url(#clip0_533_3180)">
<path d="M1018.94 564.077C1018.86 564.286 1018.71 564.455 1018.5 564.547C1018.3 564.64 1018.06 564.649 1017.85 564.572L343.396 316.261C343.185 316.183 343.015 316.025 342.921 315.823C342.828 315.621 342.82 315.39 342.898 315.182C342.977 314.973 343.135 314.804 343.34 314.711C343.544 314.619 343.777 314.61 343.988 314.687L1018.44 562.998C1018.65 563.076 1018.83 563.233 1018.92 563.436C1019.01 563.638 1019.02 563.869 1018.94 564.077Z" fill="#F2F2F2"/>
<path d="M659.666 92.0186H498.953C486.346 92.0327 474.259 96.994 465.345 105.814C456.43 114.634 451.416 126.593 451.401 139.066V153.439C451.071 153.349 450.725 153.336 450.389 153.402C450.054 153.467 449.738 153.609 449.467 153.816C449.196 154.022 448.978 154.289 448.829 154.593C448.68 154.898 448.604 155.233 448.609 155.571V166.624C448.604 166.963 448.68 167.297 448.829 167.602C448.978 167.907 449.196 168.173 449.467 168.38C449.738 168.587 450.054 168.728 450.389 168.794C450.725 168.859 451.071 168.846 451.401 168.756V185.492C451.071 185.402 450.725 185.389 450.389 185.454C450.054 185.52 449.738 185.662 449.467 185.868C449.196 186.075 448.978 186.341 448.829 186.646C448.68 186.951 448.604 187.286 448.609 187.624V215.256C448.604 215.594 448.68 215.929 448.829 216.234C448.978 216.538 449.196 216.805 449.467 217.012C449.738 217.218 450.054 217.36 450.389 217.425C450.725 217.491 451.071 217.478 451.401 217.388V227.492C451.071 227.402 450.725 227.389 450.389 227.455C450.054 227.52 449.738 227.662 449.467 227.868C449.196 228.075 448.978 228.342 448.829 228.646C448.68 228.951 448.604 229.286 448.609 229.624V257.256C448.604 257.594 448.68 257.929 448.829 258.234C448.978 258.539 449.196 258.805 449.467 259.012C449.738 259.218 450.054 259.36 450.389 259.426C450.725 259.491 451.071 259.478 451.401 259.388V551.183C451.416 563.656 456.43 575.615 465.345 584.435C474.259 593.255 486.346 598.216 498.953 598.23H659.666C672.273 598.216 684.359 593.255 693.274 584.435C702.188 575.615 707.203 563.656 707.217 551.183V139.066C707.203 126.593 702.188 114.634 693.274 105.814C684.359 96.994 672.273 92.0327 659.666 92.0186ZM697.163 551.183C697.152 561.019 693.198 570.449 686.168 577.404C679.138 584.359 669.607 588.272 659.666 588.283H498.953C489.011 588.272 479.48 584.359 472.45 577.404C465.421 570.449 461.467 561.019 461.455 551.183V139.066C461.467 129.23 465.421 119.8 472.45 112.845C479.48 105.889 489.011 101.977 498.953 101.966H659.666C669.607 101.977 679.138 105.889 686.168 112.845C693.198 119.8 697.152 129.23 697.163 139.066V551.183Z" fill="#3F3D56"/>
<path d="M659.666 593.809H498.953C487.531 593.796 476.58 589.301 468.503 581.31C460.426 573.319 455.883 562.484 455.87 551.182V139.066C455.883 127.765 460.426 116.93 468.503 108.939C476.58 100.947 487.531 96.4523 498.953 96.4395H659.666C671.088 96.4523 682.039 100.947 690.116 108.939C698.193 116.93 702.736 127.765 702.749 139.066V551.182C702.736 562.484 698.193 573.319 690.116 581.31C682.039 589.301 671.088 593.796 659.666 593.809Z" fill="#E6E6E6"/>
<path d="M663.637 587.178H494.982C487.278 587.169 479.892 584.137 474.444 578.748C468.997 573.358 465.933 566.05 465.924 558.428V131.821C465.933 124.199 468.997 116.891 474.444 111.502C479.892 106.112 487.278 103.08 494.982 103.071H516.976C518.25 103.073 519.47 103.574 520.371 104.465C521.271 105.356 521.777 106.563 521.779 107.823C521.783 111.545 523.279 115.113 525.939 117.745C528.599 120.376 532.205 121.857 535.967 121.861H620.418C624.179 121.857 627.786 120.376 630.446 117.745C633.105 115.113 634.602 111.545 634.606 107.823C634.607 106.563 635.114 105.356 636.014 104.465C636.914 103.574 638.135 103.073 639.408 103.071H663.637C671.341 103.08 678.727 106.112 684.174 111.501C689.622 116.891 692.686 124.199 692.695 131.821V558.428C692.686 566.05 689.622 573.358 684.174 578.748C678.727 584.137 671.341 587.169 663.637 587.178Z" fill="white"/>
<path d="M586.571 112.742H566.463C565.87 112.742 565.302 112.509 564.883 112.095C564.464 111.68 564.229 111.118 564.229 110.532C564.229 109.946 564.464 109.383 564.883 108.969C565.302 108.554 565.87 108.321 566.463 108.321H586.571C587.163 108.321 587.732 108.554 588.151 108.969C588.57 109.383 588.805 109.946 588.805 110.532C588.805 111.118 588.57 111.68 588.151 112.095C587.732 112.509 587.163 112.742 586.571 112.742Z" fill="white"/>
<path d="M600.534 112.189C601.151 112.189 601.651 111.694 601.651 111.084C601.651 110.473 601.151 109.979 600.534 109.979C599.917 109.979 599.417 110.473 599.417 111.084C599.417 111.694 599.917 112.189 600.534 112.189Z" fill="white"/>
<path d="M698.128 189.416H460.269V191.935H698.128V189.416Z" fill="#E6E6E6"/>
<path d="M698.128 239.795H460.269V242.314H698.128V239.795Z" fill="#E6E6E6"/>
<path d="M698.128 343.91H460.269V346.429H698.128V343.91Z" fill="#E6E6E6"/>
<path d="M698.128 448.025H460.269V450.544H698.128V448.025Z" fill="#E6E6E6"/>
<path d="M698.128 529.471H460.269V531.99H698.128V529.471Z" fill="#E6E6E6"/>
<path d="M633.007 190.677H630.461V345.17H633.007V190.677Z" fill="#E6E6E6"/>
<path d="M513.933 345.125H511.387V530.73H513.933V345.125Z" fill="#E6E6E6"/>
<path d="M692.695 396.037H512.659V398.556H692.695V396.037Z" fill="#E6E6E6"/>
<path d="M633.282 530.729H630.736V587.177H633.282V530.729Z" fill="#E6E6E6"/>
<path d="M631.31 292.885H465.499V295.404H631.31V292.885Z" fill="#E6E6E6"/>
<path d="M500.127 101.48L497.778 102.452L535.3 191.162L537.649 190.19L500.127 101.48Z" fill="#E6E6E6"/>
<path d="M615.688 121.86H613.142V190.676H615.688V121.86Z" fill="#E6E6E6"/>
<path d="M681.336 228.88C681.336 251.45 646.068 304.041 635.761 318.928C635.45 319.378 635.033 319.747 634.545 320.001C634.058 320.255 633.515 320.388 632.964 320.388C632.413 320.388 631.871 320.255 631.383 320.001C630.896 319.747 630.479 319.378 630.168 318.928C619.861 304.041 584.593 251.45 584.593 228.88C584.593 216.187 589.689 204.014 598.76 195.038C607.832 186.063 620.135 181.021 632.964 181.021C645.793 181.021 658.097 186.063 667.168 195.038C676.24 204.014 681.336 216.187 681.336 228.88Z" fill="#3664FF"/>
<path d="M632.964 249.871C646.556 249.871 657.574 238.969 657.574 225.521C657.574 212.074 646.556 201.172 632.964 201.172C619.372 201.172 608.354 212.074 608.354 225.521C608.354 238.969 619.372 249.871 632.964 249.871Z" fill="white"/>
<path d="M631.351 345.894L538.15 530.138L540.427 531.265L633.628 347.021L631.351 345.894Z" fill="#E6E6E6"/>
<path d="M765.578 386.421C766.677 387.006 767.892 387.345 769.138 387.414C770.383 387.484 771.629 387.283 772.788 386.824C773.946 386.366 774.989 385.662 775.842 384.762C776.696 383.862 777.34 382.787 777.728 381.614L808.049 381.096L799.148 368.229L771.719 370.694C769.684 370.179 767.529 370.42 765.662 371.372C763.795 372.324 762.345 373.921 761.588 375.859C760.832 377.798 760.82 379.944 761.555 381.891C762.29 383.837 763.722 385.449 765.578 386.421Z" fill="#FFB8B8"/>
<path d="M783.78 386.047C783.31 386.047 782.845 385.953 782.413 385.77C781.981 385.587 781.59 385.32 781.266 384.984C780.941 384.648 780.688 384.251 780.522 383.816C780.357 383.38 780.282 382.917 780.303 382.452L780.915 368.696C780.949 367.876 781.278 367.096 781.843 366.497C782.408 365.897 783.171 365.518 783.995 365.427L819.121 361.441L817.943 384.365L783.952 386.042C783.895 386.045 783.837 386.047 783.78 386.047Z" fill="#E6E6E6"/>
<path d="M826.559 574.606L816.669 577.802L799.504 541.58L814.101 536.863L826.559 574.606Z" fill="#FFB8B8"/>
<path d="M832.213 583.275L800.324 593.579L800.193 593.18C799.66 591.568 799.454 589.867 799.586 588.175C799.718 586.484 800.185 584.835 800.961 583.322C801.737 581.809 802.807 580.462 804.109 579.358C805.411 578.255 806.92 577.415 808.55 576.889L828.028 570.595L832.213 583.275Z" fill="#2F2E41"/>
<path d="M855.69 589.754L845.285 589.753L840.336 550.048L855.691 550.049L855.69 589.754Z" fill="#FFB8B8"/>
<path d="M858.343 599.731L824.796 599.729V599.309C824.796 597.613 825.134 595.933 825.79 594.366C826.446 592.798 827.408 591.374 828.62 590.174C829.833 588.975 831.272 588.023 832.856 587.374C834.441 586.725 836.138 586.391 837.853 586.391H837.854L858.343 586.391L858.343 599.731Z" fill="#2F2E41"/>
<path d="M839.887 580.089C839.037 580.088 838.216 579.779 837.58 579.22C836.944 578.661 836.537 577.891 836.435 577.056L823.021 466.101L803.386 497.288L826.424 555.539C826.738 556.345 826.736 557.236 826.42 558.041C826.103 558.845 825.495 559.503 824.714 559.887L805.17 569.349C804.724 569.565 804.236 569.684 803.74 569.698C803.243 569.712 802.75 569.621 802.292 569.43C801.834 569.24 801.423 568.954 801.086 568.594C800.749 568.233 800.494 567.805 800.338 567.338L778.679 502.595C777.047 497.723 776.834 492.495 778.064 487.508L792.068 430.646L792.232 430.558L823.8 413.449L823.981 413.515L861.158 426.94L857.267 499.835L860.094 575.494C860.132 576.393 859.812 577.271 859.201 577.937C858.591 578.604 857.74 579.007 856.832 579.057L840.105 580.082C840.032 580.086 839.96 580.089 839.887 580.089Z" fill="#2F2E41"/>
<path d="M819.409 452.254C813.854 452.254 809.175 450.689 806.247 446.709L806.153 446.581L808.047 426.912L791.198 436.166C790.848 436.358 790.448 436.439 790.051 436.399C789.653 436.358 789.278 436.198 788.975 435.94C788.673 435.681 788.458 435.337 788.359 434.954C788.26 434.571 788.283 434.167 788.424 433.797L809.437 378.584L823.312 333.606C824 330.007 825.777 326.699 828.408 324.12C831.038 321.542 834.398 319.815 838.043 319.168C850.403 316.922 857.765 321.048 866.265 330.205C868.321 332.433 869.835 335.096 870.692 337.991C871.549 340.887 871.726 343.937 871.209 346.911L863.167 392.386L865.53 433.159C865.711 433.862 865.663 434.604 865.392 435.278C865.121 435.952 864.642 436.523 864.022 436.912C857.45 441.051 837.297 452.252 819.409 452.254Z" fill="#E6E6E6"/>
<path d="M847.529 312.357C859.041 312.357 868.372 303.124 868.372 291.735C868.372 280.345 859.041 271.112 847.529 271.112C836.018 271.112 826.686 280.345 826.686 291.735C826.686 303.124 836.018 312.357 847.529 312.357Z" fill="#FFB8B8"/>
<path d="M852.958 438.737C854.092 438.222 855.098 437.468 855.906 436.527C856.714 435.586 857.303 434.482 857.632 433.291C857.962 432.101 858.023 430.853 857.813 429.637C857.602 428.42 857.125 427.264 856.414 426.25L874.289 402.012L858.548 401.273L843.986 424.403C842.344 425.698 841.238 427.544 840.878 429.591C840.519 431.639 840.932 433.746 842.038 435.513C843.143 437.279 844.866 438.583 846.879 439.178C848.891 439.772 851.054 439.615 852.958 438.737Z" fill="#FFB8B8"/>
<path d="M862.64 425.06C861.767 425.182 860.88 424.974 860.157 424.475L848.323 416.31C847.612 415.823 847.11 415.09 846.917 414.256C846.724 413.421 846.854 412.546 847.28 411.801L868.348 374.713L847.159 349.477C846.046 348.152 845.224 346.612 844.746 344.955C844.268 343.299 844.143 341.562 844.38 339.855C844.617 338.148 845.211 336.509 846.124 335.041C847.036 333.574 848.247 332.31 849.68 331.331C851.113 330.352 852.736 329.679 854.446 329.355C856.157 329.03 857.916 329.062 859.614 329.447C861.311 329.832 862.908 330.563 864.305 331.592C865.701 332.622 866.866 333.927 867.724 335.426L891.121 376.284C891.286 376.575 891.373 376.903 891.373 377.237C891.373 377.571 891.286 377.899 891.12 378.19L865.172 423.353C864.933 423.769 864.608 424.131 864.22 424.416C863.831 424.701 863.386 424.903 862.914 425.009C862.823 425.03 862.731 425.047 862.64 425.06Z" fill="#E6E6E6"/>
<path d="M839.199 289.102C837.136 287.579 834.281 287.817 831.836 287.018C830.381 286.543 829.077 285.697 828.057 284.566C827.036 283.435 826.334 282.058 826.02 280.574C825.707 279.089 825.794 277.549 826.272 276.109C826.75 274.668 827.602 273.377 828.743 272.365C831.383 270.024 835.139 269.493 838.657 269.065C843.477 268.478 848.344 267.891 853.177 268.357C858.01 268.824 862.876 270.439 866.408 273.736C870.303 277.37 872.222 282.781 872.234 288.079C872.099 293.401 870.622 298.606 867.939 303.221C867.109 304.974 865.859 306.5 864.296 307.666C862.67 308.728 860.379 309.005 858.813 307.859C857.46 306.868 856.965 305.132 856.353 303.579C855.742 302.027 854.699 300.374 853.033 300.135C850.887 299.826 849.25 301.985 847.202 302.691C844.339 303.679 841.158 301.494 839.99 298.725C838.822 295.956 839.129 292.823 839.457 289.84" fill="#2F2E41"/>
<path d="M1022.92 599.16C1022.92 599.382 1022.83 599.596 1022.67 599.753C1022.51 599.91 1022.29 599.999 1022.07 600H302.432C302.207 600 301.991 599.911 301.832 599.754C301.673 599.596 301.583 599.383 301.583 599.16C301.583 598.937 301.673 598.724 301.832 598.566C301.991 598.409 302.207 598.32 302.432 598.32H1022.07C1022.29 598.321 1022.51 598.41 1022.67 598.567C1022.83 598.724 1022.92 598.937 1022.92 599.16Z" fill="#CCCCCC"/>
<path d="M632.964 355.665C639.057 355.665 643.997 350.778 643.997 344.749C643.997 338.721 639.057 333.834 632.964 333.834C626.872 333.834 621.932 338.721 621.932 344.749C621.932 350.778 626.872 355.665 632.964 355.665Z" fill="#3664FF"/>
<path d="M788.279 225.405C783.672 231.481 763.442 238.589 757.628 240.537C757.453 240.596 757.265 240.612 757.082 240.583C756.899 240.554 756.726 240.481 756.577 240.371C756.429 240.261 756.31 240.117 756.231 239.951C756.152 239.785 756.115 239.603 756.123 239.419C756.387 233.352 757.63 212.147 762.237 206.072C764.829 202.655 768.686 200.396 772.96 199.793C777.234 199.19 781.575 200.292 785.029 202.855C788.482 205.419 790.765 209.235 791.374 213.464C791.984 217.693 790.871 221.988 788.279 225.405Z" fill="#F2F2F2"/>
<path d="M775.944 223.029C780.518 223.029 784.226 219.36 784.226 214.834C784.226 210.308 780.518 206.64 775.944 206.64C771.37 206.64 767.662 210.308 767.662 214.834C767.662 219.36 771.37 223.029 775.944 223.029Z" fill="white"/>
<path d="M751.604 250.603C753.655 250.603 755.317 248.958 755.317 246.929C755.317 244.901 753.655 243.256 751.604 243.256C749.554 243.256 747.892 244.901 747.892 246.929C747.892 248.958 749.554 250.603 751.604 250.603Z" fill="#F2F2F2"/>
<path d="M384.475 392.055C391.255 402.304 391.038 436.556 390.83 446.347C390.824 446.643 390.745 446.933 390.6 447.192C390.455 447.451 390.249 447.671 389.999 447.833C389.749 447.995 389.462 448.094 389.165 448.122C388.867 448.149 388.567 448.105 388.29 447.992C379.138 444.263 347.325 430.753 340.545 420.504C338.654 417.65 337.351 414.456 336.708 411.103C336.066 407.751 336.098 404.306 336.801 400.965C337.505 397.624 338.867 394.454 340.81 391.635C342.753 388.815 345.238 386.402 348.124 384.533C351.01 382.665 354.239 381.377 357.628 380.743C361.017 380.11 364.499 380.144 367.875 380.842C371.25 381.541 374.454 382.89 377.302 384.814C380.151 386.738 382.588 389.199 384.475 392.055Z" fill="#F2F2F2"/>
<path d="M361.501 417.97C368.877 417.97 374.857 412.054 374.857 404.756C374.857 397.457 368.877 391.541 361.501 391.541C354.125 391.541 348.145 397.457 348.145 404.756C348.145 412.054 354.125 417.97 361.501 417.97Z" fill="white"/>
<path d="M397.316 464.819C400.623 464.819 403.304 462.167 403.304 458.896C403.304 455.624 400.623 452.972 397.316 452.972C394.01 452.972 391.329 455.624 391.329 458.896C391.329 462.167 394.01 464.819 397.316 464.819Z" fill="#F2F2F2"/>
</g>
<defs>
<clipPath id="clip0_533_3180">
<rect width="1324" height="600" fill="white"/>
</clipPath>
</defs>
</svg>
