<svg width="1324" height="600" viewBox="0 0 1324 600" fill="none" xmlns="http://www.w3.org/2000/svg">
<path d="M429.011 482.222C429.011 482.222 366.16 453.293 388.24 433.232C410.319 413.17 429.011 482.222 429.011 482.222Z" fill="#E6E6E6"/>
<path d="M427.918 488.973C427.918 488.973 399.029 394.068 441.569 398.607C484.108 403.146 427.918 488.973 427.918 488.973Z" fill="#E6E6E6"/>
<path d="M406.855 480.555L408.068 496.43L408.087 496.705C408.086 499.184 408.211 501.661 408.462 504.128C410.108 520.321 417.181 527.701 425.447 527.701C433.713 527.701 440.478 520.321 442.123 504.128C442.374 501.661 442.5 499.184 442.498 496.705L442.508 496.483L442.513 496.43L443.73 480.555H406.855Z" fill="#E6E6E6"/>
<path d="M442.511 496.432L442.506 496.485L442.496 496.706C442.498 499.185 442.372 501.663 442.121 504.129H408.46C408.209 501.663 408.084 499.185 408.085 496.706L408.066 496.432H442.511Z" fill="white"/>
<path d="M73.8609 496.039C73.8609 496.039 50.4904 485.282 58.7005 477.822C66.9105 470.363 73.8609 496.039 73.8609 496.039Z" fill="#E6E6E6"/>
<path d="M58.3832 494.898L59.2269 505.944L59.2403 506.135C59.2395 507.86 59.3266 509.584 59.5014 511.3C60.6463 522.567 65.5674 527.701 71.3187 527.701C77.07 527.701 81.7769 522.567 82.9218 511.3C83.0966 509.584 83.1837 507.86 83.1829 506.135L83.1896 505.981L83.193 505.944L84.04 494.898L58.3832 494.898Z" fill="#E6E6E6"/>
<path d="M319.314 334.921C320.191 334.315 320.88 333.476 321.304 332.499C321.728 331.521 321.869 330.444 321.712 329.391C321.555 328.337 321.106 327.348 320.416 326.537C319.725 325.725 318.821 325.123 317.806 324.8L304.721 320.627L297.531 326.857L313.403 335.268C314.326 335.757 315.365 335.983 316.407 335.922C317.45 335.861 318.455 335.514 319.314 334.921Z" fill="#FFB9B9"/>
<path d="M297.31 330.923L305.936 320.923L273.815 285.773L259.027 251.49C258.052 249.232 256.317 247.385 254.123 246.271C251.929 245.158 249.415 244.847 247.016 245.394C245.447 245.752 243.981 246.464 242.73 247.476C241.479 248.489 240.477 249.774 239.801 251.234C239.124 252.694 238.791 254.289 238.827 255.897C238.864 257.506 239.268 259.085 240.009 260.513L259.312 297.688L297.31 330.923Z" fill="#E6E6E6"/>
<path d="M317.917 463.4L316.264 460.834H313.211V459.715H316.874L318.858 462.793L317.917 463.4Z" fill="#04144E"/>
<path d="M311.066 460.834H304.632V459.715H311.066V460.834ZM302.487 460.834H296.052V459.715H302.487V460.834ZM293.908 460.834H287.474V459.715H293.908L293.908 460.834ZM285.329 460.834H278.894V459.715H285.329V460.834ZM276.75 460.834H270.316V459.715H276.75V460.834ZM268.171 460.834L262.21 460.829L261.668 460.757L261.815 459.648L262.321 459.715H268.171V460.834ZM259.542 460.475L253.163 459.628L253.311 458.519L259.689 459.366L259.542 460.475ZM251.037 459.345L244.659 458.498L244.806 457.388L251.185 458.236L251.037 459.345ZM242.533 458.215L236.155 457.368L236.302 456.259L242.681 457.106L242.533 458.215ZM234.029 457.086L227.65 456.238L227.798 455.129L234.176 455.976L234.029 457.086Z" fill="#04144E"/>
<path d="M222.733 458.33L221.615 458.299L221.728 454.321L225.673 454.846L225.525 455.955L222.812 455.595L222.733 458.33Z" fill="#04144E"/>
<path d="M221.878 488.29L220.759 488.259L220.973 480.769L222.092 480.8L221.878 488.29ZM222.163 478.304L221.045 478.272L221.259 470.782L222.377 470.813L222.163 478.304ZM222.449 468.317L221.33 468.285L221.544 460.795L222.663 460.827L222.449 468.317Z" fill="#04144E"/>
<path d="M220.574 494.734L220.688 490.756L221.806 490.787L221.728 493.522L224.455 493.31L224.542 494.425L220.574 494.734Z" fill="#04144E"/>
<path d="M226.683 494.26L226.596 493.144L233.022 492.644L233.109 493.76L226.683 494.26ZM235.251 493.594L235.164 492.478L241.589 491.979L241.676 493.095L235.251 493.594ZM243.818 492.929L243.731 491.813L250.157 491.313L250.244 492.429L243.818 492.929ZM252.385 492.263L252.299 491.147L258.725 490.648L258.811 491.764L252.385 492.263ZM260.953 491.598L260.866 490.482L267.292 489.982L267.379 491.098L260.953 491.598ZM269.521 490.932L269.434 489.816L275.86 489.317L275.946 490.433L269.521 490.932ZM278.088 490.266L278.001 489.151L284.427 488.651L284.514 489.767L278.088 490.266ZM286.656 489.601L286.569 488.485L292.995 487.986L293.081 489.101L286.656 489.601ZM295.223 488.935L295.136 487.819L301.562 487.32L301.649 488.436L295.223 488.935ZM303.791 488.27L303.704 487.154L310.13 486.654L310.216 487.77L303.791 488.27ZM312.358 487.604L312.272 486.488L318.698 485.989L318.784 487.105L312.358 487.604ZM320.926 486.939L320.839 485.823L327.265 485.323L327.351 486.439L320.926 486.939Z" fill="#04144E"/>
<path d="M329.494 486.272L329.407 485.157L331.82 484.969L330.509 482.936L331.45 482.329L333.777 485.939L329.494 486.272Z" fill="#04144E"/>
<path d="M329.109 480.764L324.911 474.252L325.852 473.645L330.05 480.157L329.109 480.764ZM323.512 472.081L319.315 465.569L320.256 464.963L324.453 471.475L323.512 472.081Z" fill="#04144E"/>
<path d="M308.454 510.354C329.472 510.354 346.51 493.319 346.51 472.304C346.51 451.29 329.472 434.254 308.454 434.254C287.437 434.254 270.399 451.29 270.399 472.304C270.399 493.319 287.437 510.354 308.454 510.354Z" fill="#3C4F90"/>
<path d="M339.794 516.51L284.11 417.747L271.798 430.057L326.642 516.23L339.794 516.51Z" fill="#04144E"/>
<path d="M171.063 513.992L296.142 387.252L306.496 407.676L187.852 519.588L171.063 513.992Z" fill="#04144E"/>
<path d="M221.99 500.563C235.899 500.563 247.174 489.289 247.174 475.382C247.174 461.476 235.899 450.202 221.99 450.202C208.082 450.202 196.807 461.476 196.807 475.382C196.807 489.289 208.082 500.563 221.99 500.563Z" fill="#04144E"/>
<path d="M188.413 482.657C188.264 482.657 188.122 482.716 188.017 482.821C187.912 482.926 187.853 483.068 187.853 483.217V487.693C187.853 487.842 187.912 487.984 188.017 488.089C188.122 488.194 188.264 488.253 188.413 488.253H202.403C202.552 488.253 202.694 488.194 202.799 488.089C202.904 487.984 202.963 487.842 202.963 487.693V483.217C202.963 483.068 202.904 482.926 202.799 482.821C202.694 482.716 202.552 482.657 202.403 482.657H188.413Z" fill="#3C4F90"/>
<path d="M220.59 420.267C220.442 420.267 220.299 420.326 220.194 420.431C220.09 420.536 220.031 420.678 220.03 420.826V425.303C220.031 425.451 220.09 425.593 220.194 425.698C220.299 425.803 220.442 425.862 220.59 425.862H234.581C234.729 425.862 234.872 425.803 234.977 425.698C235.081 425.593 235.14 425.451 235.141 425.303V420.826C235.14 420.678 235.081 420.536 234.977 420.431C234.872 420.326 234.729 420.267 234.581 420.267H220.59Z" fill="#3C4F90"/>
<path d="M288.587 411.033H274.036V399.842L279.633 397.604L288.587 404.318V411.033Z" fill="#04144E"/>
<path d="M275.878 394.769L274.36 395.487L277.232 401.557L278.75 400.839L275.878 394.769Z" fill="#04144E"/>
<path d="M277.485 387.507C277.379 387.507 277.274 387.538 277.184 387.596L267.299 393.952C267.175 394.033 267.087 394.159 267.056 394.304C267.024 394.449 267.052 394.601 267.132 394.726L269.553 398.491C269.634 398.615 269.76 398.703 269.905 398.735C270.05 398.766 270.202 398.739 270.327 398.659L280.212 392.302C280.336 392.222 280.424 392.095 280.455 391.95C280.487 391.805 280.459 391.654 280.379 391.529L277.958 387.764C277.918 387.702 277.867 387.649 277.806 387.607C277.746 387.565 277.678 387.535 277.606 387.52C277.566 387.511 277.526 387.507 277.485 387.507Z" fill="#3C4F90"/>
<path d="M299.779 409.914L288.306 354.237L301.737 351.999L310.895 396.851C311.289 398.477 311.292 400.173 310.905 401.8C310.517 403.428 309.75 404.94 308.666 406.214C307.581 407.488 306.211 408.488 304.666 409.131C303.122 409.774 301.447 410.042 299.779 409.914Z" fill="#04144E"/>
<path d="M342.049 343.268L328.763 342.319C328.585 342.306 328.413 342.251 328.261 342.159C328.109 342.066 327.981 341.939 327.888 341.787C327.795 341.635 327.739 341.463 327.726 341.286C327.713 341.108 327.742 340.93 327.812 340.766L347.112 295.203C347.184 295.032 347.299 294.881 347.444 294.765C347.59 294.649 347.762 294.571 347.945 294.538L361.051 292.198C361.247 292.163 361.448 292.181 361.635 292.25C361.822 292.319 361.986 292.436 362.113 292.59C362.239 292.744 362.322 292.928 362.353 293.125C362.384 293.321 362.362 293.522 362.29 293.708L343.171 342.559C343.084 342.782 342.929 342.97 342.727 343.098C342.525 343.225 342.287 343.285 342.049 343.268Z" fill="#04144E"/>
<path d="M330.56 338.85L341.193 339.969L358.542 296.323L347.349 298.002L330.56 338.85Z" fill="#3C4F90"/>
<path d="M214.714 458.596L200.723 472.585L180.576 384.734L191.769 386.413L214.714 458.596Z" fill="#04144E"/>
<path d="M198.41 386.279L195.994 385.554C191.246 387.647 186.079 388.619 180.895 388.395C179.775 388.348 178.717 387.869 177.944 387.059C177.17 386.248 176.742 385.169 176.748 384.048C176.748 382.894 177.206 381.788 178.022 380.972C178.838 380.156 179.945 379.697 181.099 379.697H202.207C202.779 379.697 203.327 379.924 203.731 380.328C204.135 380.732 204.362 381.28 204.362 381.852C204.362 382.572 204.193 383.283 203.87 383.927C203.546 384.57 203.076 385.13 202.498 385.56C201.92 385.99 201.249 386.279 200.54 386.404C199.83 386.529 199.101 386.486 198.41 386.279Z" fill="#04144E"/>
<path d="M332.108 331.34C331.568 331.339 331.042 331.516 330.612 331.844L313.431 344.981L294.198 347.489C290.887 347.921 288.594 351.523 288.306 354.797L310.945 351.654C314.09 351.351 317.062 350.075 319.449 348.005L333.72 335.664C334.101 335.335 334.372 334.898 334.497 334.412C334.621 333.925 334.594 333.412 334.419 332.941C334.243 332.47 333.928 332.064 333.515 331.778C333.101 331.492 332.611 331.339 332.108 331.34Z" fill="#04144E"/>
<path d="M323.715 322.947C323.174 322.946 322.649 323.124 322.219 323.452L305.037 336.588L285.805 339.097C282.494 339.529 280.2 343.13 279.913 346.405L302.552 343.261C305.697 342.958 308.669 341.683 311.055 339.613L325.327 327.271C325.708 326.943 325.978 326.506 326.103 326.019C326.228 325.532 326.201 325.019 326.025 324.548C325.85 324.078 325.534 323.672 325.121 323.385C324.708 323.099 324.217 322.946 323.715 322.947Z" fill="#04144E"/>
<path d="M334.197 356.756C330.196 356.748 326.253 355.801 322.685 353.992C319.116 352.183 316.022 349.561 313.651 346.339L315.907 344.684C317.717 347.156 320.009 349.235 322.645 350.796C325.281 352.357 328.206 353.368 331.244 353.767C334.281 354.166 337.368 353.945 340.318 353.118C343.268 352.291 346.019 350.874 348.406 348.954C350.793 347.033 352.765 344.649 354.205 341.945C355.644 339.241 356.52 336.273 356.781 333.221C357.041 330.169 356.679 327.096 355.718 324.187C354.757 321.279 353.217 318.595 351.189 316.299L353.287 314.446C356.53 318.12 358.645 322.652 359.376 327.498C360.107 332.344 359.424 337.298 357.408 341.766C355.393 346.233 352.13 350.024 348.013 352.683C343.896 355.342 339.099 356.756 334.197 356.756Z" fill="#04144E"/>
<path d="M353.784 513.712H155.674V527.701H353.784V513.712Z" fill="#04144E"/>
<path d="M305.234 349.314C306.224 348.918 307.082 348.253 307.713 347.394C308.344 346.535 308.721 345.517 308.802 344.455C308.883 343.392 308.665 342.329 308.172 341.384C307.679 340.439 306.931 339.652 306.013 339.111L294.183 332.135L285.789 336.611L299.394 348.339C300.185 349.02 301.148 349.472 302.178 349.644C303.208 349.816 304.265 349.702 305.234 349.314Z" fill="#FFB9B9"/>
<path d="M212.476 398.723L220.311 403.199L268.69 367.594C270.464 366.382 271.968 364.816 273.108 362.995C274.248 361.173 274.999 359.136 275.314 357.011C275.707 354.324 275.394 351.581 274.405 349.052C273.416 346.522 271.785 344.295 269.672 342.587C258.988 333.911 245.784 326.041 231.783 318.426L211.077 328.498C219.61 345.993 229.083 360.418 242.976 360.393L212.476 398.723Z" fill="#3C4F91"/>
<path d="M209.06 410.121C215.561 416.706 224.121 421.417 233.682 425.218C234.402 425.503 235.194 425.558 235.947 425.375C236.7 425.192 237.378 424.78 237.888 424.196C238.506 423.487 238.835 422.571 238.81 421.631C238.784 420.69 238.405 419.794 237.748 419.12L231.55 412.758L227.806 399.423C219.765 403.397 214.492 402.508 213.453 394.182L208.384 401.093C207.405 402.432 206.935 404.077 207.058 405.731C207.182 407.386 207.892 408.942 209.06 410.121Z" fill="#2F2E41"/>
<path d="M187.293 469.228L199.046 469.788L225.908 331.576L179.738 316.748C175.129 333.98 181.973 362.186 194.009 395.366L187.293 469.228Z" fill="#3C4F91"/>
<path d="M277.674 241.208C287.873 241.208 296.142 232.941 296.142 222.743C296.142 212.545 287.873 204.277 277.674 204.277C267.474 204.277 259.206 212.545 259.206 222.743C259.206 232.941 267.474 241.208 277.674 241.208Z" fill="#FFB9B9"/>
<path d="M243.815 245.403L255.568 253.796L273.476 235.89L264.522 224.699L243.815 245.403Z" fill="#FFB9B9"/>
<path d="M177.779 318.146C192.272 329.956 208.099 337.718 227.586 334.374C233.475 324.961 237.823 305.132 245.215 296.603C261.358 277.979 269.364 261.379 264.243 246.243C259.264 242.989 259.483 242.994 255.848 232.254C227.375 237.521 199.811 269.658 177.779 318.146Z" fill="#E6E6E6"/>
<path d="M187.105 480.743C195.47 484.699 205.127 486.188 215.412 486.478C216.187 486.499 216.949 486.28 217.594 485.849C218.239 485.419 218.734 484.799 219.012 484.076C219.35 483.198 219.345 482.225 218.998 481.35C218.651 480.475 217.987 479.763 217.139 479.356L209.135 475.506L201.042 464.265C194.853 470.756 189.595 471.729 185.762 464.265L183.372 472.495C182.912 474.089 183.034 475.795 183.718 477.307C184.402 478.818 185.603 480.037 187.105 480.743Z" fill="#2F2E41"/>
<path d="M284.669 340.529L295.302 332.695L271.797 291.287L264.998 254.575C264.55 252.157 263.269 249.971 261.377 248.397C259.486 246.824 257.103 245.963 254.642 245.963C253.033 245.963 251.445 246.332 250.001 247.041C248.557 247.75 247.294 248.78 246.31 250.053C245.326 251.326 244.647 252.808 244.324 254.384C244.002 255.96 244.045 257.59 244.451 259.147L255.008 299.681L284.669 340.529Z" fill="#E6E6E6"/>
<path d="M231.224 425.303H225.068V458.876H231.224V425.303Z" fill="#04144E"/>
<path d="M292.293 217.386C293.016 218.252 293.943 218.925 294.991 219.344C296.039 219.762 297.175 219.914 298.296 219.784C300.519 219.438 302.498 217.542 302.64 215.296C302.763 213.358 301.623 211.58 300.427 210.049C297.788 206.673 294.654 203.715 291.132 201.275C289.452 200.112 287.599 199.042 285.559 198.916C284.55 198.854 283.539 199.028 282.529 198.985C280.672 198.905 278.932 198.102 277.12 197.686C275.26 197.271 273.333 197.261 271.469 197.656C269.604 198.051 267.847 198.842 266.314 199.975C265.293 200.755 264.369 201.656 263.562 202.657C261.331 205.385 259.835 208.638 259.216 212.107C258.242 217.606 259.458 223.637 256.815 228.556C259.916 228.267 262.402 225.903 265.348 224.892C267.534 224.15 269.907 224.171 272.079 224.952C272.639 225.239 273.269 225.357 273.895 225.292C274.412 225.109 274.863 224.779 275.194 224.342L280.827 218.214C281.973 216.967 283.275 215.638 284.961 215.465C285.967 215.43 286.968 215.629 287.884 216.045C290.143 216.899 292.328 217.937 294.416 219.148" fill="#2F2E41"/>
<path d="M281.592 345.286L279.913 346.405L291.106 357.596L297.821 351.441L286.628 342.488L281.592 345.286Z" fill="#04144E"/>
<path d="M164.998 163.512H26.3984V306.899H164.998V163.512Z" fill="#E6E6E6"/>
<path d="M157.599 171.167H33.796V299.245H157.599V171.167Z" fill="white"/>
<path d="M57.8824 301.484H62.2918L62.2638 299.709L62.1883 295.772L61.4893 255.289L61.4798 255.1L61.1211 234.416L60.243 184.133H60.0449L59.1097 234.784L58.7415 255.11L58.732 255.299L57.8824 301.484Z" fill="#E6E6E6"/>
<path d="M73.0098 294.053L71.3698 290.938L59.6018 297.133L61.2418 300.248L73.0098 294.053Z" fill="#E6E6E6"/>
<path d="M98.5896 167.346H92.9932V302.759H98.5896V167.346Z" fill="#E6E6E6"/>
<path d="M164.998 232.254H26.3984V237.85H164.998V232.254Z" fill="#E6E6E6"/>
<path d="M1159.26 346.654H692.814C689.63 346.65 686.577 345.382 684.326 343.128C682.075 340.873 680.808 337.816 680.804 334.628V46.623C680.807 44.2872 681.735 42.0478 683.384 40.396C685.034 38.7443 687.27 37.8152 689.603 37.8125H1162.32C1164.69 37.8152 1166.97 38.7604 1168.64 40.4407C1170.32 42.1209 1171.27 44.3991 1171.27 46.7754V334.628C1171.26 337.816 1170 340.873 1167.75 343.128C1165.5 345.382 1162.44 346.65 1159.26 346.654Z" fill="#F2F2F2"/>
<path d="M1142.24 329.623H707.53C701.158 329.623 695.974 324.762 695.974 318.787V67.988C695.974 63.5566 699.815 59.9512 704.537 59.9512H1145.1C1149.9 59.9512 1153.8 63.616 1153.8 68.1204V318.787C1153.8 324.762 1148.62 329.623 1142.24 329.623Z" fill="white"/>
<path d="M1171.1 45.9348H680.636V39.8122C680.64 36.6132 681.912 33.5467 684.172 31.2854C686.431 29.0241 689.494 27.7526 692.689 27.75H1159.05C1162.24 27.7526 1165.31 29.0241 1167.56 31.2854C1169.82 33.5467 1171.1 36.6132 1171.1 39.8122V45.9348Z" fill="#CCCCCC"/>
<path d="M1094.39 287.559H757.509C754.132 287.555 750.894 286.21 748.507 283.819C746.119 281.428 744.775 278.186 744.771 274.805V112.16C744.774 109.631 745.779 107.207 747.565 105.418C749.351 103.63 751.772 102.624 754.298 102.621H1097.45C1100.02 102.624 1102.48 103.646 1104.29 105.463C1106.11 107.28 1107.13 109.743 1107.13 112.313V274.805C1107.13 278.186 1105.78 281.428 1103.4 283.819C1101.01 286.21 1097.77 287.555 1094.39 287.559ZM754.298 104.079C752.158 104.081 750.107 104.933 748.594 106.449C747.081 107.964 746.23 110.018 746.227 112.16V274.805C746.231 277.8 747.42 280.671 749.535 282.789C751.65 284.907 754.518 286.098 757.509 286.102H1094.39C1097.38 286.098 1100.25 284.907 1102.37 282.789C1104.48 280.671 1105.67 277.8 1105.68 274.805V112.313C1105.67 110.13 1104.81 108.037 1103.26 106.493C1101.72 104.95 1099.63 104.081 1097.45 104.079H754.298Z" fill="#CCCCCC"/>
<path d="M769.156 274.805H1082.75C1085.84 274.805 1088.8 273.576 1090.98 271.389C1093.17 269.202 1094.39 266.236 1094.39 263.143V127.179C1094.39 124.086 1093.17 121.12 1090.98 118.933C1088.8 116.746 1085.84 115.518 1082.75 115.518H769.156C766.067 115.518 763.105 116.746 760.921 118.933C758.737 121.12 757.51 124.086 757.51 127.179V263.143C757.51 266.236 758.737 269.202 760.921 271.389C763.105 273.576 766.067 274.805 769.156 274.805Z" fill="#F2F2F2"/>
<path d="M804.762 155.076C808.38 155.076 811.313 152.139 811.313 148.517C811.313 144.894 808.38 141.957 804.762 141.957C801.144 141.957 798.211 144.894 798.211 148.517C798.211 152.139 801.144 155.076 804.762 155.076Z" fill="#CCCCCC"/>
<path d="M804.762 179.856C808.38 179.856 811.313 176.92 811.313 173.297C811.313 169.674 808.38 166.737 804.762 166.737C801.144 166.737 798.211 169.674 798.211 173.297C798.211 176.92 801.144 179.856 804.762 179.856Z" fill="#CCCCCC"/>
<path d="M804.762 204.637C808.38 204.637 811.313 201.7 811.313 198.077C811.313 194.454 808.38 191.518 804.762 191.518C801.144 191.518 798.211 194.454 798.211 198.077C798.211 201.7 801.144 204.637 804.762 204.637Z" fill="#CCCCCC"/>
<path d="M804.762 229.418C808.38 229.418 811.313 226.481 811.313 222.858C811.313 219.236 808.38 216.299 804.762 216.299C801.144 216.299 798.211 219.236 798.211 222.858C798.211 226.481 801.144 229.418 804.762 229.418Z" fill="#CCCCCC"/>
<path d="M1052.96 149.244H837.515C837.322 149.244 837.137 149.167 837.001 149.031C836.864 148.894 836.788 148.709 836.788 148.516C836.788 148.322 836.864 148.137 837.001 148.001C837.137 147.864 837.322 147.787 837.515 147.787H1052.96C1053.16 147.787 1053.34 147.864 1053.48 148.001C1053.61 148.137 1053.69 148.322 1053.69 148.516C1053.69 148.709 1053.61 148.894 1053.48 149.031C1053.34 149.167 1053.16 149.244 1052.96 149.244Z" fill="#CCCCCC"/>
<path d="M1052.96 174.025H837.515C837.322 174.025 837.137 173.948 837.001 173.811C836.864 173.675 836.788 173.489 836.788 173.296C836.788 173.103 836.864 172.917 837.001 172.781C837.137 172.644 837.322 172.567 837.515 172.567H1052.96C1053.16 172.567 1053.34 172.644 1053.48 172.781C1053.61 172.917 1053.69 173.103 1053.69 173.296C1053.69 173.489 1053.61 173.675 1053.48 173.811C1053.34 173.948 1053.16 174.025 1052.96 174.025Z" fill="#CCCCCC"/>
<path d="M1052.96 198.805H837.515C837.322 198.805 837.137 198.728 837.001 198.591C836.864 198.455 836.788 198.269 836.788 198.076C836.788 197.883 836.864 197.698 837.001 197.561C837.137 197.424 837.322 197.348 837.515 197.348H1052.96C1053.16 197.348 1053.34 197.424 1053.48 197.561C1053.61 197.698 1053.69 197.883 1053.69 198.076C1053.69 198.269 1053.61 198.455 1053.48 198.591C1053.34 198.728 1053.16 198.805 1052.96 198.805Z" fill="#CCCCCC"/>
<path d="M1052.96 223.586H837.515C837.322 223.586 837.137 223.509 837.001 223.373C836.864 223.236 836.788 223.051 836.788 222.857C836.788 222.664 836.864 222.479 837.001 222.342C837.137 222.206 837.322 222.129 837.515 222.129H1052.96C1053.16 222.129 1053.34 222.206 1053.48 222.342C1053.61 222.479 1053.69 222.664 1053.69 222.857C1053.69 223.051 1053.61 223.236 1053.48 223.373C1053.34 223.509 1053.16 223.586 1052.96 223.586Z" fill="#CCCCCC"/>
<path d="M878.277 248.367H857.169C856.204 248.365 855.279 247.981 854.596 247.298C853.914 246.615 853.53 245.689 853.529 244.722V225.044C853.53 224.077 853.914 223.151 854.596 222.468C855.279 221.785 856.204 221.401 857.169 221.399H878.277C879.242 221.401 880.167 221.785 880.849 222.468C881.531 223.151 881.915 224.077 881.916 225.044V244.722C881.915 245.689 881.531 246.615 880.849 247.298C880.167 247.981 879.242 248.365 878.277 248.367Z" fill="#3765FF"/>
<path d="M925.588 248.368H904.48C903.515 248.367 902.59 247.983 901.908 247.299C901.225 246.616 900.842 245.69 900.84 244.724V200.264C900.842 199.298 901.225 198.372 901.908 197.689C902.59 197.006 903.515 196.621 904.48 196.62H925.588C926.553 196.621 927.478 197.006 928.16 197.689C928.842 198.372 929.226 199.298 929.227 200.264V244.724C929.226 245.69 928.842 246.616 928.16 247.299C927.478 247.983 926.553 248.367 925.588 248.368Z" fill="#3765FF"/>
<path d="M973.627 248.368H952.519C951.554 248.367 950.629 247.983 949.947 247.3C949.265 246.617 948.881 245.69 948.88 244.724V175.484C948.881 174.518 949.265 173.592 949.947 172.908C950.629 172.225 951.554 171.841 952.519 171.84H973.627C974.592 171.841 975.517 172.225 976.2 172.908C976.882 173.592 977.266 174.518 977.267 175.484V244.724C977.266 245.69 976.882 246.617 976.2 247.3C975.517 247.983 974.592 248.367 973.627 248.368Z" fill="#3765FF"/>
<path d="M1023.12 248.367H1002.01C1001.05 248.366 1000.12 247.982 999.442 247.299C998.76 246.616 998.376 245.689 998.375 244.723V151.431C998.376 150.465 998.76 149.539 999.442 148.856C1000.12 148.173 1001.05 147.788 1002.01 147.787H1023.12C1024.09 147.788 1025.01 148.173 1025.69 148.856C1026.38 149.539 1026.76 150.465 1026.76 151.431V244.723C1026.76 245.689 1026.38 246.616 1025.69 247.299C1025.01 247.982 1024.09 248.366 1023.12 248.367Z" fill="#3765FF"/>
<path d="M1052.96 248.367H837.515C837.322 248.367 837.137 248.291 837.001 248.154C836.864 248.017 836.788 247.832 836.788 247.639C836.788 247.445 836.864 247.26 837.001 247.124C837.137 246.987 837.322 246.91 837.515 246.91H1052.96C1053.16 246.91 1053.34 246.987 1053.48 247.124C1053.61 247.26 1053.69 247.445 1053.69 247.639C1053.69 247.832 1053.61 248.017 1053.48 248.154C1053.34 248.291 1053.16 248.367 1052.96 248.367Z" fill="#3C4F90"/>
<path d="M1147.62 384.331C1148.21 383.437 1148.99 382.683 1149.9 382.123C1150.82 381.563 1151.84 381.21 1152.9 381.088C1153.97 380.967 1155.04 381.081 1156.06 381.422C1157.07 381.762 1158 382.322 1158.77 383.06L1181.89 371.115L1180.45 384.573L1158.72 393.853C1157.4 395.075 1155.67 395.767 1153.87 395.8C1152.07 395.832 1150.32 395.202 1148.95 394.028C1147.58 392.854 1146.69 391.219 1146.45 389.432C1146.2 387.644 1146.62 385.829 1147.62 384.331Z" fill="#FFB8B8"/>
<path d="M1167.51 389.351C1166.99 388.939 1166.6 388.376 1166.4 387.739L1164.56 381.792C1164.36 381.148 1164.37 380.458 1164.58 379.816C1164.78 379.175 1165.18 378.612 1165.72 378.205L1184.45 364.036L1204.74 326.346C1205.59 325.25 1206.65 324.332 1207.85 323.645C1209.06 322.958 1210.38 322.516 1211.76 322.342C1213.13 322.169 1214.53 322.269 1215.86 322.636C1217.2 323.002 1218.45 323.629 1219.55 324.48C1220.64 325.331 1221.56 326.39 1222.24 327.595C1222.93 328.801 1223.37 330.13 1223.54 331.507C1223.72 332.884 1223.62 334.281 1223.25 335.619C1222.88 336.957 1222.26 338.21 1221.41 339.306L1209.87 363.701C1206.36 371.105 1200.29 376.984 1192.79 380.243L1170.83 389.778C1170.41 389.961 1169.95 390.053 1169.49 390.048C1169.03 390.043 1168.58 389.942 1168.16 389.749C1167.93 389.643 1167.71 389.509 1167.51 389.351Z" fill="#E6E6E6"/>
<path d="M1221.92 310.616C1231.79 310.616 1239.8 302.601 1239.8 292.715C1239.8 282.828 1231.79 274.813 1221.92 274.813C1212.05 274.813 1204.04 282.828 1204.04 292.715C1204.04 302.601 1212.05 310.616 1221.92 310.616Z" fill="#FFB8B8"/>
<path d="M1214.67 527.544L1205.74 527.544L1201.5 493.078L1214.67 493.079L1214.67 527.544Z" fill="#FFB8B8"/>
<path d="M1199.37 524.991H1216.58V535.841H1188.53C1188.53 534.417 1188.81 533.006 1189.36 531.689C1189.9 530.373 1190.7 529.177 1191.71 528.169C1192.71 527.162 1193.91 526.362 1195.22 525.817C1196.54 525.272 1197.95 524.991 1199.37 524.991Z" fill="#04144E"/>
<path d="M1243.78 527.547L1234.86 527.546L1230.61 493.08L1243.78 493.082L1243.78 527.547Z" fill="#FFB8B8"/>
<path d="M1228.48 524.991H1245.69V535.841H1217.65C1217.65 534.417 1217.93 533.006 1218.47 531.689C1219.02 530.373 1219.82 529.177 1220.82 528.169C1221.83 527.162 1223.02 526.362 1224.34 525.817C1225.65 525.272 1227.06 524.991 1228.48 524.991Z" fill="#04144E"/>
<path d="M1244.43 518.801L1233.98 518.8C1233.26 518.799 1232.56 518.561 1231.99 518.123C1231.41 517.684 1231 517.07 1230.81 516.374L1215.76 460.471C1215.74 460.384 1215.68 460.308 1215.61 460.259C1215.53 460.211 1215.44 460.192 1215.35 460.206C1215.26 460.221 1215.18 460.268 1215.13 460.338C1215.07 460.408 1215.04 460.497 1215.05 460.587L1218.09 513.605C1218.11 514.074 1218.04 514.543 1217.87 514.981C1217.7 515.418 1217.44 515.815 1217.1 516.142C1216.77 516.47 1216.37 516.721 1215.92 516.88C1215.48 517.039 1215.01 517.1 1214.55 517.061L1202.79 516.08C1202.04 516.015 1201.33 515.693 1200.79 515.166C1200.25 514.64 1199.9 513.942 1199.81 513.191L1189.1 401.864L1193.25 404.353L1232.06 397.754L1247.68 515.088C1247.74 515.551 1247.7 516.022 1247.57 516.469C1247.43 516.917 1247.21 517.33 1246.9 517.681C1246.59 518.033 1246.21 518.315 1245.79 518.508C1245.36 518.701 1244.9 518.801 1244.43 518.801Z" fill="#04144E"/>
<path d="M1202.08 413.614C1197.8 413.579 1193.61 412.397 1189.94 410.19C1189.37 409.854 1188.92 409.355 1188.64 408.758C1188.36 408.161 1188.27 407.494 1188.38 406.845C1189.75 398.473 1196.88 355.529 1203.38 332.117C1206.03 322.582 1211.88 317.446 1220.77 316.853C1233.77 315.999 1245.33 326.187 1246.54 339.593C1248.66 363.242 1240.03 396.843 1236.23 410.192C1236.08 410.708 1235.81 411.179 1235.44 411.565C1235.06 411.951 1234.6 412.24 1234.09 412.406C1233.58 412.572 1233.04 412.61 1232.51 412.517C1231.99 412.424 1231.49 412.203 1231.07 411.873L1223.31 405.829C1222.83 405.463 1222.24 405.277 1221.64 405.302C1221.04 405.327 1220.47 405.562 1220.02 405.966C1213.48 411.808 1207.27 413.614 1202.08 413.614Z" fill="#E6E6E6"/>
<path opacity="0.2" d="M1227.75 351.166L1234.3 378.863L1224.84 402.185L1231.39 379.592L1227.75 351.166Z" fill="black"/>
<path d="M1232.12 307.436C1233.71 307.465 1235.29 307.179 1236.77 306.594C1237.42 306.343 1238.09 306.136 1238.74 305.885C1244.48 303.666 1248.26 297.548 1248.4 291.391C1248.53 285.234 1245.35 279.258 1240.62 275.32C1235.89 271.382 1229.77 269.359 1223.64 268.892C1217.03 268.388 1209.59 270.065 1205.9 275.573C1204.92 277.039 1204.23 278.818 1204.81 280.589C1204.99 281.123 1205.3 281.602 1205.72 281.978C1207.36 283.446 1209.01 282.342 1210.69 282.245C1213 282.111 1215.07 283.983 1215.82 286.176C1216.56 288.369 1216.23 290.783 1215.63 293.02C1215.17 294.366 1214.88 295.764 1214.77 297.182C1214.72 297.893 1214.86 298.604 1215.16 299.249C1215.46 299.894 1215.92 300.451 1216.5 300.866C1217.95 301.74 1219.84 301.234 1221.29 300.362C1222.73 299.49 1223.98 298.278 1225.54 297.636C1227.1 296.994 1229.19 297.137 1230.1 298.56C1230.39 299.077 1230.58 299.642 1230.68 300.228C1231.49 303.941 1231.3 303.722 1232.12 307.436Z" fill="#04144E"/>
<path d="M1204.41 502.541L1092.47 463.504C1090.55 462.832 1088.97 461.424 1088.09 459.589C1087.2 457.755 1087.08 455.644 1087.74 453.719L1116.83 370.078C1117.33 368.669 1118.36 367.512 1119.7 366.863C1121.04 366.213 1122.58 366.123 1123.99 366.612L1239.72 406.969C1241.15 407.47 1242.33 408.52 1242.99 409.887C1243.65 411.254 1243.74 412.827 1243.24 414.262L1214.18 497.811C1213.51 499.735 1212.11 501.313 1210.27 502.2C1208.44 503.086 1206.33 503.209 1204.41 502.541Z" fill="#E6E6E6"/>
<path d="M1102.02 458.698L1199.91 492.833C1201.77 493.483 1203.82 493.365 1205.59 492.505C1207.37 491.645 1208.73 490.113 1209.38 488.246L1232.87 420.707C1233.52 418.84 1233.4 416.792 1232.54 415.012C1231.68 413.233 1230.16 411.868 1228.29 411.218L1130.4 377.083C1128.54 376.432 1126.5 376.551 1124.72 377.411C1122.94 378.271 1121.58 379.803 1120.93 381.669L1097.44 449.209C1097.12 450.133 1096.98 451.112 1097.04 452.089C1097.09 453.066 1097.34 454.022 1097.77 454.903C1098.19 455.784 1098.79 456.573 1099.52 457.224C1100.25 457.875 1101.1 458.376 1102.02 458.698Z" fill="white"/>
<path d="M1126.6 411.245L1121.75 409.555C1121.49 409.463 1121.27 409.27 1121.15 409.019C1121.03 408.768 1121.01 408.479 1121.11 408.216L1122.79 403.362C1122.89 403.098 1123.08 402.882 1123.33 402.761C1123.58 402.64 1123.87 402.623 1124.13 402.714L1128.98 404.405C1129.24 404.497 1129.46 404.69 1129.58 404.941C1129.7 405.192 1129.72 405.48 1129.62 405.744L1127.94 410.598C1127.84 410.861 1127.65 411.077 1127.4 411.198C1127.15 411.32 1126.86 411.337 1126.6 411.245Z" fill="#3765FF"/>
<path d="M1122.23 423.822L1117.38 422.132C1117.12 422.04 1116.9 421.847 1116.78 421.596C1116.66 421.345 1116.64 421.056 1116.73 420.793L1118.42 415.939C1118.51 415.676 1118.7 415.46 1118.96 415.338C1119.21 415.217 1119.49 415.2 1119.76 415.292L1124.61 416.982C1124.87 417.074 1125.08 417.267 1125.2 417.518C1125.33 417.769 1125.34 418.058 1125.25 418.321L1123.56 423.175C1123.47 423.438 1123.28 423.654 1123.03 423.776C1122.78 423.897 1122.49 423.914 1122.23 423.822Z" fill="#3C4F90"/>
<path d="M1117.85 436.399L1113.01 434.709C1112.74 434.617 1112.53 434.424 1112.41 434.173C1112.28 433.922 1112.27 433.633 1112.36 433.37L1114.05 428.516C1114.14 428.253 1114.33 428.037 1114.58 427.915C1114.83 427.794 1115.12 427.777 1115.38 427.869L1120.23 429.559C1120.49 429.651 1120.71 429.844 1120.83 430.095C1120.95 430.346 1120.97 430.635 1120.88 430.898L1119.19 435.752C1119.1 436.015 1118.91 436.231 1118.65 436.353C1118.4 436.474 1118.12 436.491 1117.85 436.399Z" fill="#CCCCCC"/>
<path d="M1159.18 419.882L1135.82 411.737C1135.69 411.692 1135.57 411.621 1135.46 411.529C1135.36 411.437 1135.28 411.326 1135.22 411.202C1135.16 411.077 1135.12 410.942 1135.11 410.804C1135.1 410.666 1135.12 410.528 1135.17 410.397C1135.21 410.266 1135.28 410.146 1135.38 410.043C1135.47 409.94 1135.58 409.856 1135.7 409.796C1135.83 409.736 1135.96 409.701 1136.1 409.693C1136.24 409.685 1136.38 409.705 1136.51 409.751L1159.87 417.896C1160 417.941 1160.12 418.012 1160.22 418.104C1160.32 418.195 1160.41 418.307 1160.47 418.431C1160.53 418.556 1160.56 418.691 1160.57 418.829C1160.58 418.967 1160.56 419.105 1160.51 419.236C1160.47 419.366 1160.4 419.487 1160.31 419.59C1160.21 419.693 1160.1 419.777 1159.98 419.837C1159.85 419.897 1159.72 419.932 1159.58 419.94C1159.44 419.947 1159.31 419.928 1159.18 419.882Z" fill="#CCCCCC"/>
<path d="M1154.8 432.46L1131.44 424.315C1131.18 424.223 1130.96 424.031 1130.84 423.78C1130.72 423.528 1130.71 423.239 1130.8 422.976C1130.89 422.713 1131.08 422.497 1131.33 422.375C1131.58 422.254 1131.87 422.237 1132.13 422.329L1155.49 430.474C1155.62 430.52 1155.74 430.59 1155.85 430.682C1155.95 430.774 1156.03 430.885 1156.09 431.009C1156.15 431.134 1156.19 431.269 1156.2 431.407C1156.2 431.545 1156.19 431.683 1156.14 431.814C1156.09 431.944 1156.02 432.065 1155.93 432.168C1155.84 432.271 1155.73 432.355 1155.6 432.415C1155.48 432.475 1155.35 432.51 1155.21 432.518C1155.07 432.526 1154.93 432.506 1154.8 432.46Z" fill="#CCCCCC"/>
<path d="M1150.43 445.037L1127.07 436.892C1126.81 436.8 1126.59 436.608 1126.47 436.357C1126.35 436.106 1126.33 435.817 1126.42 435.553C1126.51 435.29 1126.71 435.074 1126.96 434.952C1127.21 434.831 1127.5 434.814 1127.76 434.906L1151.12 443.052C1151.38 443.143 1151.6 443.336 1151.72 443.587C1151.84 443.838 1151.86 444.127 1151.76 444.39C1151.67 444.654 1151.48 444.87 1151.23 444.991C1150.98 445.112 1150.69 445.129 1150.43 445.037Z" fill="#CCCCCC"/>
<path d="M1212.59 451.85C1212.76 451.442 1212.92 451.026 1213.06 450.603C1214.98 445.083 1214.64 439.025 1212.1 433.762C1209.56 428.5 1205.03 424.463 1199.52 422.541L1191.84 444.616L1212.59 451.85Z" fill="#3765FF"/>
<path d="M1189.61 445.959L1197.28 423.885C1193.23 422.469 1188.85 422.274 1184.68 423.323C1180.51 424.372 1176.74 426.619 1173.84 429.788C1170.93 432.956 1169.01 436.907 1168.32 441.153C1167.63 445.399 1168.2 449.754 1169.95 453.683C1171.7 457.611 1174.56 460.94 1178.18 463.259C1181.8 465.579 1186.02 466.787 1190.31 466.735C1194.61 466.683 1198.79 465.373 1202.36 462.967C1205.92 460.561 1208.7 457.163 1210.35 453.194L1189.61 445.959Z" fill="#3C4F90"/>
<path d="M1217.09 414.293C1217.01 413.225 1217.15 412.151 1217.53 411.147C1217.9 410.143 1218.49 409.232 1219.25 408.48C1220.01 407.728 1220.93 407.152 1221.94 406.793C1222.94 406.434 1224.02 406.301 1225.08 406.403L1235.91 382.721L1243.07 394.198L1231.69 414.927C1231.4 416.708 1230.47 418.32 1229.08 419.459C1227.68 420.597 1225.91 421.183 1224.11 421.105C1222.31 421.027 1220.6 420.29 1219.31 419.035C1218.02 417.779 1217.23 416.092 1217.09 414.293Z" fill="#FFB8B8"/>
<path d="M1235.83 405.955C1235.17 405.955 1234.52 405.751 1233.97 405.372L1228.86 401.828C1228.3 401.443 1227.88 400.898 1227.65 400.265C1227.42 399.633 1227.38 398.944 1227.55 398.292L1233.56 375.567L1226.3 333.372C1226.29 331.983 1226.56 330.606 1227.08 329.321C1227.6 328.035 1228.37 326.865 1229.35 325.878C1230.32 324.89 1231.48 324.105 1232.76 323.567C1234.04 323.029 1235.41 322.749 1236.8 322.742C1238.19 322.736 1239.56 323.003 1240.84 323.528C1242.13 324.054 1243.3 324.828 1244.28 325.805C1245.27 326.783 1246.05 327.945 1246.58 329.226C1247.12 330.507 1247.4 331.881 1247.4 333.269L1253.35 359.598C1255.16 367.588 1254.01 375.964 1250.11 383.167L1238.71 404.237C1238.49 404.642 1238.19 404.996 1237.83 405.277C1237.46 405.557 1237.04 405.758 1236.59 405.865C1236.34 405.925 1236.09 405.955 1235.83 405.955Z" fill="#E6E6E6"/>
<path d="M1291.23 536.25H1152.93C1152.74 536.25 1152.56 536.173 1152.42 536.037C1152.28 535.9 1152.21 535.715 1152.21 535.522C1152.21 535.328 1152.28 535.143 1152.42 535.006C1152.56 534.87 1152.74 534.793 1152.93 534.793H1291.23C1291.42 534.793 1291.61 534.87 1291.74 535.006C1291.88 535.143 1291.96 535.328 1291.96 535.522C1291.96 535.715 1291.88 535.9 1291.74 536.037C1291.61 536.173 1291.42 536.25 1291.23 536.25Z" fill="#CCCCCC"/>
<path d="M924.779 527.182L933.703 527.182L937.948 492.717H924.778L924.779 527.182Z" fill="#A0616A"/>
<path d="M922.501 524.264L940.075 524.264C941.545 524.264 943.002 524.554 944.361 525.117C945.72 525.681 946.955 526.507 947.995 527.548C949.034 528.589 949.859 529.826 950.422 531.186C950.985 532.547 951.275 534.005 951.275 535.478V535.842L922.502 535.843L922.501 524.264Z" fill="#04144E"/>
<path d="M889.113 527.182L898.037 527.182L902.282 492.717H889.112L889.113 527.182Z" fill="#A0616A"/>
<path d="M886.837 524.264L904.41 524.264C905.881 524.264 907.338 524.554 908.697 525.117C910.056 525.681 911.29 526.507 912.33 527.548C913.37 528.589 914.195 529.826 914.758 531.186C915.321 532.547 915.61 534.005 915.61 535.478V535.842L886.838 535.843L886.837 524.264Z" fill="#04144E"/>
<path d="M926.56 288.573C936.434 288.573 944.437 280.558 944.437 270.672C944.437 260.785 936.434 252.771 926.56 252.771C916.687 252.771 908.683 260.785 908.683 270.672C908.683 280.558 916.687 288.573 926.56 288.573Z" fill="#A0616A"/>
<path d="M938.582 519.743H922.022C921.589 519.743 921.16 519.657 920.76 519.49C920.36 519.322 919.997 519.077 919.692 518.768C919.388 518.459 919.147 518.093 918.985 517.691C918.823 517.288 918.742 516.857 918.747 516.423L919.71 437.686C919.713 437.406 919.609 437.136 919.42 436.93C919.23 436.725 918.97 436.6 918.691 436.581C918.412 436.562 918.137 436.651 917.922 436.83C917.707 437.008 917.568 437.262 917.534 437.54L907.897 516.86C907.799 517.655 907.415 518.387 906.816 518.918C906.217 519.449 905.445 519.742 904.645 519.743H887.927C887.475 519.743 887.028 519.65 886.614 519.468C886.201 519.287 885.829 519.022 885.522 518.69C885.215 518.358 884.981 517.966 884.832 517.539C884.684 517.112 884.626 516.659 884.661 516.208L895.701 374.757L896.001 374.725L948.865 369.008L941.854 516.619C941.815 517.461 941.453 518.256 940.843 518.838C940.234 519.42 939.424 519.744 938.582 519.743Z" fill="#04144E"/>
<path d="M896.344 383.44C895.495 383.438 894.68 383.106 894.071 382.513C893.462 381.92 893.107 381.114 893.081 380.264C892.792 371.32 892.298 340.372 898.046 317.652C899.615 311.446 903.137 305.909 908.091 301.862C913.044 297.814 919.167 295.47 925.554 295.176C931.841 294.832 938.076 296.479 943.375 299.883C948.674 303.288 952.768 308.277 955.076 314.143C964.738 338.707 973.867 368.985 962.486 373.734C947.568 379.958 908.243 382.732 896.545 383.434C896.478 383.438 896.411 383.44 896.344 383.44Z" fill="#3C4F90"/>
<path d="M964.67 252.578C964.951 252.867 965.255 253.133 965.577 253.375L963.701 289.471L955.895 293.473L960.386 306.059L974.893 300.319C976.064 299.855 977.055 299.024 977.714 297.948C978.374 296.873 978.667 295.613 978.551 294.357L974.75 253.411C975.994 252.482 976.926 251.195 977.421 249.723C977.917 248.251 977.954 246.663 977.526 245.169C977.098 243.676 976.226 242.348 975.026 241.363C973.827 240.378 972.356 239.782 970.81 239.654C969.263 239.526 967.715 239.873 966.37 240.648C965.025 241.423 963.948 242.589 963.282 243.992C962.615 245.395 962.391 246.968 962.639 248.502C962.887 250.036 963.596 251.457 964.67 252.578Z" fill="#A0616A"/>
<path d="M963.849 290.815L969.34 306.441C969.496 306.885 969.555 307.358 969.512 307.828C969.469 308.297 969.326 308.752 969.092 309.161C968.858 309.569 968.538 309.923 968.155 310.197C967.772 310.471 967.335 310.66 966.873 310.749L950.681 313.889C948.405 314.677 945.91 314.529 943.743 313.477C941.575 312.425 939.913 310.556 939.12 308.278C938.328 306.001 938.469 303.502 939.514 301.329C940.558 299.156 942.421 297.487 944.693 296.687L959.231 289.003C959.647 288.783 960.106 288.655 960.576 288.629C961.046 288.603 961.516 288.678 961.954 288.85C962.392 289.022 962.788 289.287 963.115 289.626C963.442 289.965 963.692 290.37 963.849 290.815Z" fill="#3C4F90"/>
<path d="M887.235 252.578C886.954 252.867 886.65 253.133 886.328 253.375L888.204 289.471L896.01 293.473L891.519 306.059L877.012 300.319C875.841 299.855 874.85 299.024 874.191 297.948C873.531 296.873 873.238 295.613 873.354 294.357L877.155 253.411C875.911 252.482 874.979 251.195 874.484 249.723C873.988 248.251 873.952 246.663 874.379 245.169C874.807 243.676 875.679 242.348 876.879 241.363C878.078 240.378 879.549 239.782 881.095 239.654C882.642 239.526 884.19 239.873 885.535 240.648C886.88 241.423 887.957 242.589 888.623 243.992C889.29 245.395 889.514 246.968 889.266 248.502C889.018 250.036 888.309 251.457 887.235 252.578Z" fill="#A0616A"/>
<path d="M889.95 288.85C890.388 288.678 890.858 288.603 891.328 288.629C891.798 288.656 892.257 288.783 892.673 289.003L907.211 296.687C909.483 297.487 911.346 299.157 912.391 301.33C913.435 303.502 913.577 306.002 912.784 308.279C911.991 310.556 910.329 312.425 908.162 313.477C905.994 314.529 903.499 314.677 901.223 313.889L885.031 310.75C884.569 310.66 884.132 310.472 883.749 310.198C883.366 309.923 883.047 309.57 882.813 309.161C882.578 308.752 882.435 308.297 882.392 307.828C882.349 307.359 882.408 306.886 882.564 306.441L888.056 290.815C888.212 290.371 888.462 289.965 888.789 289.626C889.116 289.287 889.512 289.022 889.95 288.85Z" fill="#3C4F90"/>
<path d="M933.503 273.722C933.409 271.439 933.981 269.177 935.15 267.214C936.318 265.251 938.032 263.671 940.083 262.668C945.517 259.859 948.931 253.867 947.435 248.395C945.52 241.392 936.001 236.85 928.288 239.259C926.201 240.001 924.188 240.938 922.276 242.058L917.237 244.762C915.084 245.841 913.008 247.068 911.025 248.434C908.054 250.627 905.725 253.577 904.282 256.979C902.839 260.38 902.335 264.107 902.822 267.77C903.814 274.89 908.47 281.42 914.844 285.89C917.282 287.714 920.097 288.967 923.083 289.557C926.138 290.061 929.539 289.488 931.773 287.586C935.264 284.612 934.903 279.633 933.774 275.475C933.625 274.901 933.534 274.314 933.503 273.722Z" fill="#04144E"/>
<path d="M994.26 536.25H855.965C855.772 536.25 855.587 536.173 855.451 536.037C855.314 535.9 855.238 535.715 855.238 535.522C855.238 535.328 855.314 535.143 855.451 535.006C855.587 534.87 855.772 534.793 855.965 534.793H994.26C994.453 534.793 994.638 534.87 994.775 535.006C994.911 535.143 994.988 535.328 994.988 535.522C994.988 535.715 994.911 535.9 994.775 536.037C994.638 536.173 994.453 536.25 994.26 536.25Z" fill="#CCCCCC"/>
<path d="M768.556 403.29L654.443 450.167C652.483 450.97 650.285 450.961 648.332 450.143C646.379 449.325 644.829 447.765 644.023 445.804L609.092 360.542C608.505 359.104 608.511 357.492 609.109 356.059C609.708 354.626 610.849 353.489 612.284 352.898L730.254 304.436C731.715 303.838 733.353 303.845 734.808 304.454C736.264 305.064 737.419 306.227 738.02 307.688L772.913 392.857C773.714 394.819 773.706 397.02 772.889 398.976C772.072 400.932 770.514 402.483 768.556 403.29Z" fill="#E6E6E6"/>
<path d="M658.576 439.825L758.36 398.834C760.26 398.053 761.773 396.549 762.565 394.651C763.357 392.754 763.365 390.619 762.585 388.717L734.378 319.868C733.992 318.926 733.425 318.069 732.708 317.346C731.991 316.624 731.14 316.05 730.201 315.657C729.263 315.264 728.257 315.06 727.24 315.057C726.223 315.053 725.215 315.25 724.274 315.637L624.491 356.628C623.55 357.014 622.694 357.583 621.973 358.3C621.251 359.018 620.678 359.871 620.285 360.81C619.893 361.75 619.689 362.757 619.686 363.776C619.683 364.794 619.879 365.803 620.265 366.745L648.472 435.594C648.858 436.536 649.426 437.393 650.143 438.115C650.859 438.838 651.711 439.412 652.649 439.805C653.587 440.198 654.594 440.402 655.611 440.405C656.628 440.408 657.635 440.211 658.576 439.825Z" fill="white"/>
<path d="M733.827 338.643L732.359 339.246L732.46 339.491L733.927 338.888L733.827 338.643Z" fill="#E6E6E6"/>
<path d="M729.496 340.708L726.532 341.925L726.432 341.68L729.395 340.463L729.496 340.708ZM723.568 343.143L720.605 344.36L720.504 344.115L723.468 342.898L723.568 343.143ZM717.641 345.578L714.677 346.795L714.577 346.55L717.541 345.333L717.641 345.578ZM711.714 348.013L708.75 349.23L708.65 348.985L711.613 347.768L711.714 348.013ZM705.786 350.448L702.823 351.665L702.722 351.42L705.686 350.203L705.786 350.448ZM699.859 352.883L696.895 354.1L696.795 353.855L699.758 352.638L699.859 352.883ZM693.931 355.317L690.968 356.535L690.867 356.29L693.831 355.073L693.931 355.317ZM688.004 357.752L685.04 358.97L684.94 358.725L687.904 357.508L688.004 357.752ZM682.077 360.187L679.113 361.405L679.013 361.16L681.976 359.943L682.077 360.187ZM676.149 362.622L673.186 363.84L673.085 363.595L676.049 362.378L676.149 362.622ZM670.222 365.057L667.258 366.275L667.158 366.03L670.122 364.812L670.222 365.057ZM664.294 367.492L661.331 368.71L661.231 368.465L664.194 367.247L664.294 367.492ZM658.367 369.927L655.403 371.145L655.303 370.9L658.267 369.682L658.367 369.927ZM652.44 372.362L649.476 373.58L649.376 373.335L652.339 372.117L652.44 372.362ZM646.512 374.797L643.549 376.015L643.448 375.77L646.412 374.552L646.512 374.797ZM640.585 377.232L637.621 378.45L637.521 378.205L640.485 376.987L640.585 377.232Z" fill="#E6E6E6"/>
<path d="M634.558 379.423L633.091 380.025L633.191 380.27L634.659 379.667L634.558 379.423Z" fill="#E6E6E6"/>
<path d="M694.989 381.2L693.521 381.803L693.622 382.048L695.089 381.445L694.989 381.2Z" fill="#E6E6E6"/>
<path d="M690.702 383.247L687.782 384.446L687.682 384.201L690.602 383.002L690.702 383.247ZM684.863 385.646L681.943 386.845L681.843 386.6L684.762 385.401L684.863 385.646ZM679.023 388.044L676.104 389.244L676.003 388.999L678.923 387.8L679.023 388.044ZM673.184 390.443L670.264 391.643L670.164 391.398L673.084 390.198L673.184 390.443ZM667.345 392.842L664.425 394.041L664.325 393.797L667.244 392.597L667.345 392.842ZM661.505 395.241L658.585 396.44L658.485 396.195L661.405 394.996L661.505 395.241ZM655.666 397.64L652.746 398.839L652.646 398.594L655.566 397.395L655.666 397.64ZM649.826 400.038L646.907 401.238L646.807 400.993L649.726 399.794L649.826 400.038Z" fill="#E6E6E6"/>
<path d="M643.887 402.192L642.419 402.795L642.52 403.04L643.987 402.437L643.887 402.192Z" fill="#E6E6E6"/>
<path d="M670.795 403.725L669.327 404.328L669.428 404.573L670.895 403.97L670.795 403.725Z" fill="#E6E6E6"/>
<path d="M666.425 405.805L663.421 407.039L663.32 406.795L666.324 405.561L666.425 405.805ZM660.417 408.273L657.413 409.507L657.313 409.263L660.317 408.029L660.417 408.273ZM654.409 410.741L651.405 411.975L651.305 411.731L654.309 410.497L654.409 410.741Z" fill="#E6E6E6"/>
<path d="M648.3 412.966L646.833 413.568L646.933 413.813L648.401 413.21L648.3 412.966Z" fill="#E6E6E6"/>
<path d="M678.327 422.108L676.86 422.711L676.96 422.956L678.427 422.353L678.327 422.108Z" fill="#E6E6E6"/>
<path d="M673.955 424.19L670.951 425.424L670.851 425.179L673.855 423.945L673.955 424.19ZM667.947 426.658L664.943 427.892L664.843 427.647L667.847 426.413L667.947 426.658ZM661.939 429.126L658.936 430.36L658.835 430.115L661.839 428.881L661.939 429.126Z" fill="#E6E6E6"/>
<path d="M655.833 431.348L654.365 431.951L654.465 432.196L655.933 431.593L655.833 431.348Z" fill="#E6E6E6"/>
<path d="M662.812 428.986L747.372 394.249C749.419 393.406 751.047 391.784 751.901 389.74C752.755 387.695 752.764 385.395 751.926 383.344L734.841 341.643L734.676 341.716L713.925 391.399L698.535 384.956C698.251 384.836 697.943 384.784 697.636 384.803C697.328 384.822 697.029 384.913 696.762 385.067C696.361 385.308 696.051 385.676 695.88 386.111L685.005 412.147L673.752 407.437C673.509 407.335 673.249 407.282 672.986 407.281C672.722 407.28 672.462 407.331 672.218 407.431C671.974 407.531 671.753 407.678 671.566 407.864C671.38 408.05 671.231 408.271 671.13 408.514C671.058 408.691 664.119 425.737 662.812 428.986Z" fill="#3765FF"/>
<path d="M662.552 429.38L662.308 429.278L671.01 408.443C671.24 407.893 671.679 407.457 672.23 407.231C672.781 407.004 673.399 407.006 673.949 407.236L684.979 411.855L695.793 385.963C696.023 385.413 696.462 384.977 697.013 384.75C697.564 384.524 698.182 384.526 698.732 384.755L713.9 391.107L734.757 341.164L735.001 341.266L714.042 391.453L698.63 384.999C698.39 384.899 698.132 384.847 697.872 384.846C697.611 384.845 697.354 384.895 697.113 384.994C696.872 385.093 696.653 385.239 696.468 385.422C696.284 385.606 696.137 385.824 696.036 386.065L685.121 412.201L673.847 407.48C673.362 407.277 672.816 407.276 672.33 407.475C671.844 407.675 671.457 408.06 671.254 408.545L662.552 429.38Z" fill="#3C4F90"/>
<path d="M670.845 405.699C671.867 405.699 672.695 404.87 672.695 403.847C672.695 402.824 671.867 401.994 670.845 401.994C669.824 401.994 668.995 402.824 668.995 403.847C668.995 404.87 669.824 405.699 670.845 405.699Z" fill="#3C4F90"/>
<path d="M695.037 383.176C696.059 383.176 696.887 382.346 696.887 381.323C696.887 380.3 696.059 379.471 695.037 379.471C694.016 379.471 693.187 380.3 693.187 381.323C693.187 382.346 694.016 383.176 695.037 383.176Z" fill="#3C4F90"/>
<path d="M732.71 340.553C733.731 340.553 734.56 339.723 734.56 338.7C734.56 337.677 733.731 336.848 732.71 336.848C731.688 336.848 730.86 337.677 730.86 338.7C730.86 339.723 731.688 340.553 732.71 340.553Z" fill="#3C4F90"/>
<path d="M629.164 401.745C630.126 401.266 630.971 400.581 631.64 399.74C632.308 398.898 632.785 397.92 633.035 396.874C633.286 395.828 633.304 394.74 633.089 393.686C632.875 392.632 632.431 391.638 631.791 390.774L637.286 336.982H625.412L621.045 389.507C619.667 390.68 618.767 392.318 618.515 394.112C618.262 395.905 618.676 397.729 619.676 399.237C620.677 400.745 622.196 401.834 623.944 402.296C625.693 402.758 627.55 402.562 629.164 401.745Z" fill="#FFB8B8"/>
<path d="M640.066 307.296C649.344 307.296 656.865 299.764 656.865 290.474C656.865 281.184 649.344 273.652 640.066 273.652C630.788 273.652 623.267 281.184 623.267 290.474C623.267 299.764 630.788 307.296 640.066 307.296Z" fill="#FFB8B8"/>
<path d="M643.229 368.309C642.556 368.309 641.903 368.088 641.368 367.68C640.833 367.272 640.446 366.699 640.268 366.05C638.922 361.153 635.42 352.874 629.86 341.442C628.606 338.857 627.911 336.037 627.822 333.165C627.732 330.293 628.25 327.434 629.342 324.777C630.434 322.119 632.074 319.723 634.155 317.745C636.237 315.767 638.713 314.252 641.42 313.299C643.986 312.392 646.707 312.009 649.423 312.174C652.139 312.338 654.794 313.047 657.232 314.257C659.67 315.467 661.84 317.154 663.615 319.219C665.39 321.284 666.734 323.684 667.566 326.278C671.876 339.808 671.668 354.3 671.378 359.902C671.342 360.577 671.086 361.222 670.65 361.737C670.213 362.252 669.62 362.61 668.961 362.755L643.889 368.238C643.672 368.285 643.451 368.309 643.229 368.309Z" fill="#FF6584"/>
<path d="M667.507 528.047H675.892L679.882 495.659L667.506 495.66L667.507 528.047Z" fill="#FFB8B8"/>
<path d="M692.065 535.843L665.711 535.844L665.71 525.648L681.882 525.647C683.219 525.647 684.543 525.911 685.779 526.423C687.014 526.936 688.137 527.687 689.082 528.633C690.028 529.58 690.778 530.704 691.29 531.941C691.801 533.178 692.065 534.504 692.065 535.843Z" fill="#04144E"/>
<path d="M583.658 517.164L591.006 521.209L610.085 494.754L599.24 488.783L583.658 517.164Z" fill="#FFB8B8"/>
<path d="M601.427 535.843L578.333 523.129L583.239 514.194L597.41 521.996C599.776 523.299 601.529 525.49 602.282 528.086C603.036 530.683 602.728 533.473 601.427 535.843Z" fill="#04144E"/>
<path d="M667.116 510.069C666.369 510.069 665.648 509.796 665.087 509.302C664.526 508.808 664.163 508.126 664.067 507.384L653.58 426.465C653.534 426.107 653.376 425.773 653.128 425.51C652.881 425.247 652.557 425.07 652.203 425.003C651.849 424.935 651.483 424.982 651.157 425.135C650.83 425.289 650.561 425.542 650.387 425.858L606.682 505.258C606.321 505.907 605.74 506.404 605.045 506.659C604.349 506.915 603.585 506.912 602.891 506.652L593.364 503.017C592.981 502.871 592.631 502.65 592.334 502.366C592.038 502.082 591.801 501.742 591.637 501.366C591.474 500.989 591.387 500.584 591.382 500.173C591.378 499.763 591.455 499.356 591.609 498.975L621.885 424.502C621.962 424.312 622.014 424.114 622.04 423.912C626.14 392.13 636.574 375.968 639.674 371.772C639.9 371.463 640.049 371.105 640.108 370.727C640.167 370.349 640.135 369.962 640.013 369.599L639.587 368.319C639.417 367.811 639.382 367.267 639.486 366.741C639.589 366.215 639.828 365.726 640.179 365.321C651.349 352.581 670.819 359.533 671.014 359.604L671.112 359.64L671.173 359.724C693.003 389.704 684.932 487.077 683.092 506.292C683.024 507.014 682.702 507.688 682.185 508.196C681.667 508.704 680.987 509.012 680.265 509.065L667.356 510.061C667.275 510.067 667.196 510.069 667.116 510.069Z" fill="#04144E"/>
<path d="M705.373 310.015C705.289 310.384 705.235 310.76 705.21 311.138L675.828 328.111L668.686 323.994L661.073 333.975L673.008 342.493C673.973 343.181 675.134 343.538 676.317 343.509C677.501 343.48 678.644 343.067 679.573 342.333L709.871 318.399C711.238 318.905 712.727 318.983 714.14 318.622C715.553 318.261 716.822 317.477 717.779 316.376C718.736 315.275 719.336 313.908 719.499 312.457C719.661 311.006 719.378 309.54 718.688 308.254C717.998 306.968 716.934 305.923 715.636 305.257C714.338 304.592 712.869 304.338 711.424 304.529C709.978 304.72 708.625 305.347 707.544 306.327C706.464 307.307 705.706 308.593 705.373 310.015Z" fill="#FFB8B8"/>
<path d="M674.846 328.914L665.35 341.238C665.08 341.589 664.737 341.877 664.346 342.083C663.954 342.289 663.523 342.409 663.082 342.433C662.64 342.457 662.198 342.386 661.787 342.224C661.375 342.062 661.003 341.812 660.696 341.493L649.946 330.315C648.162 328.921 647.003 326.875 646.724 324.626C646.444 322.378 647.066 320.11 648.454 318.32C649.841 316.53 651.881 315.364 654.126 315.077C656.371 314.791 658.638 315.408 660.429 316.792L673.912 324.342C674.298 324.558 674.633 324.855 674.894 325.213C675.155 325.57 675.336 325.98 675.425 326.414C675.513 326.848 675.508 327.296 675.408 327.727C675.308 328.159 675.116 328.564 674.846 328.914Z" fill="#FF6584"/>
<path d="M638.041 350.326L622.743 347.56C622.308 347.481 621.895 347.309 621.532 347.056C621.169 346.803 620.864 346.475 620.639 346.094C620.415 345.712 620.274 345.287 620.229 344.846C620.183 344.406 620.232 343.96 620.374 343.541L625.333 328.838C625.748 326.61 627.028 324.638 628.892 323.354C630.757 322.07 633.054 321.578 635.28 321.987C637.506 322.397 639.479 323.673 640.766 325.537C642.054 327.4 642.551 329.699 642.148 331.929L641.664 347.39C641.65 347.833 641.541 348.267 641.344 348.664C641.147 349.061 640.868 349.41 640.524 349.689C640.18 349.967 639.78 350.169 639.352 350.278C638.923 350.388 638.476 350.405 638.041 350.326Z" fill="#FF6584"/>
<path d="M642.724 286.605C647.041 289.564 652.711 292.605 657.121 289.454C658.5 288.402 659.502 286.931 659.977 285.262C660.452 283.592 660.374 281.813 659.754 280.191C657.643 274.144 651.841 271.482 646.293 269.442C639.081 266.789 631.228 264.679 623.783 266.579C616.337 268.478 609.757 275.697 611.101 283.272C612.182 289.363 617.921 294.432 617.106 300.565C616.286 306.737 609.354 309.986 603.234 311.089C597.114 312.193 590.266 312.547 585.867 316.949C580.257 322.564 581.658 332.601 586.937 338.53C592.217 344.458 600.184 347.146 607.904 348.973C618.132 351.393 629.195 352.665 638.91 348.648C648.624 344.631 656.184 333.817 653.37 323.677C652.181 319.394 649.381 315.774 646.675 312.25C643.969 308.726 641.228 305.041 640.196 300.717C639.336 297.114 639.972 292.931 642.359 290.228C642.793 289.755 643.066 289.156 643.139 288.518C643.212 287.88 643.081 287.235 642.765 286.676L642.724 286.605Z" fill="#04144E"/>
<path d="M706.753 536.25H568.459C568.266 536.25 568.081 536.173 567.944 536.037C567.808 535.9 567.731 535.715 567.731 535.522C567.731 535.328 567.808 535.143 567.944 535.006C568.081 534.87 568.266 534.793 568.459 534.793H706.753C706.946 534.793 707.131 534.87 707.268 535.006C707.404 535.143 707.481 535.328 707.481 535.522C707.481 535.715 707.404 535.9 707.268 536.037C707.131 536.173 706.946 536.25 706.753 536.25Z" fill="#CCCCCC"/>
<path d="M1057.76 364.773H1079.44L1090.28 346.039L1079.44 327.305H1057.76L1046.93 346.039L1057.76 364.773Z" fill="#F2F2F2"/>
<path d="M1169.33 163.241H1200.64L1216.29 136.179L1200.64 109.116H1169.33L1153.68 136.179L1169.33 163.241Z" fill="#F2F2F2"/>
<path d="M663.118 106.137H684.793L695.63 87.4022L684.793 68.668H663.118L652.281 87.4022L663.118 106.137Z" fill="#F2F2F2"/>
<path d="M687.54 112.455H660.371C660.096 112.455 659.825 112.382 659.586 112.244C659.347 112.107 659.149 111.909 659.011 111.671L645.426 88.1872C645.289 87.9486 645.216 87.6783 645.216 87.4031C645.216 87.128 645.289 86.8576 645.426 86.6191L659.011 63.1356C659.149 62.8975 659.347 62.6998 659.586 62.5622C659.825 62.4246 660.096 62.352 660.371 62.3516H687.54C687.816 62.352 688.087 62.4246 688.326 62.5622C688.564 62.6998 688.763 62.8975 688.901 63.1356L702.486 86.6191C702.623 86.8576 702.695 87.128 702.695 87.4031C702.695 87.6783 702.623 87.9487 702.486 88.1872L688.901 111.671C688.763 111.909 688.564 112.107 688.326 112.244C688.087 112.382 687.816 112.455 687.54 112.455ZM660.371 62.9788C660.206 62.9791 660.043 63.0227 659.9 63.1052C659.757 63.1878 659.638 63.3064 659.555 63.4492L645.97 86.9327C645.888 87.0758 645.844 87.238 645.844 87.4031C645.844 87.5682 645.888 87.7305 645.97 87.8736L659.555 111.357C659.638 111.5 659.757 111.619 659.9 111.701C660.043 111.784 660.206 111.827 660.371 111.828H687.54C687.706 111.828 687.868 111.784 688.011 111.701C688.155 111.619 688.274 111.5 688.357 111.357L701.941 87.8736C702.024 87.7304 702.067 87.5682 702.067 87.4031C702.067 87.238 702.024 87.0758 701.941 86.9327L688.357 63.4492C688.274 63.3064 688.155 63.1877 688.011 63.1052C687.868 63.0226 687.706 62.9791 687.54 62.9788L660.371 62.9788Z" fill="#CCCCCC"/>
<path d="M1204.61 172.838H1165.36C1164.96 172.838 1164.57 172.733 1164.23 172.534C1163.88 172.335 1163.59 172.05 1163.39 171.706L1143.77 137.783C1143.57 137.438 1143.47 137.047 1143.47 136.65C1143.47 136.252 1143.57 135.862 1143.77 135.517L1163.39 101.595C1163.59 101.251 1163.88 100.965 1164.23 100.766C1164.57 100.567 1164.96 100.463 1165.36 100.462H1204.61C1205 100.463 1205.4 100.567 1205.74 100.766C1206.09 100.965 1206.37 101.251 1206.57 101.595L1226.2 135.517C1226.39 135.862 1226.5 136.252 1226.5 136.65C1226.5 137.047 1226.39 137.438 1226.2 137.783L1206.57 171.706C1206.37 172.05 1206.09 172.335 1205.74 172.534C1205.4 172.733 1205 172.838 1204.61 172.838ZM1165.36 101.368C1165.12 101.368 1164.89 101.431 1164.68 101.551C1164.47 101.67 1164.3 101.841 1164.18 102.048L1144.56 135.97C1144.44 136.177 1144.38 136.411 1144.38 136.65C1144.38 136.888 1144.44 137.123 1144.56 137.329L1164.18 171.253C1164.3 171.459 1164.47 171.63 1164.68 171.75C1164.89 171.869 1165.12 171.932 1165.36 171.932H1204.61C1204.85 171.932 1205.08 171.869 1205.29 171.75C1205.49 171.63 1205.67 171.459 1205.79 171.253L1225.41 137.329C1225.53 137.123 1225.59 136.888 1225.59 136.65C1225.59 136.411 1225.53 136.177 1225.41 135.97L1205.79 102.048C1205.67 101.841 1205.49 101.67 1205.29 101.551C1205.08 101.431 1204.85 101.368 1204.61 101.368H1165.36Z" fill="#CCCCCC"/>
<path d="M1082.19 371.115H1055.02C1054.74 371.115 1054.47 371.042 1054.23 370.904C1053.99 370.767 1053.79 370.569 1053.66 370.331L1040.07 346.847C1039.93 346.609 1039.86 346.338 1039.86 346.063C1039.86 345.788 1039.93 345.518 1040.07 345.279L1053.66 321.796C1053.79 321.558 1053.99 321.36 1054.23 321.222C1054.47 321.085 1054.74 321.012 1055.02 321.012H1082.19C1082.46 321.012 1082.73 321.085 1082.97 321.222C1083.21 321.36 1083.41 321.558 1083.55 321.796L1097.13 345.279C1097.27 345.518 1097.34 345.788 1097.34 346.063C1097.34 346.338 1097.27 346.609 1097.13 346.847L1083.55 370.331C1083.41 370.569 1083.21 370.767 1082.97 370.904C1082.73 371.042 1082.46 371.115 1082.19 371.115ZM1055.02 321.639C1054.85 321.639 1054.69 321.683 1054.55 321.765C1054.4 321.848 1054.28 321.967 1054.2 322.109L1040.62 345.593C1040.53 345.736 1040.49 345.898 1040.49 346.063C1040.49 346.228 1040.53 346.391 1040.62 346.534L1054.2 370.017C1054.28 370.16 1054.4 370.279 1054.55 370.362C1054.69 370.444 1054.85 370.488 1055.02 370.488H1082.19C1082.35 370.488 1082.51 370.444 1082.66 370.362C1082.8 370.279 1082.92 370.16 1083 370.017L1096.59 346.534C1096.67 346.391 1096.71 346.228 1096.71 346.063C1096.71 345.898 1096.67 345.736 1096.59 345.593L1083 322.109C1082.92 321.967 1082.8 321.848 1082.66 321.765C1082.51 321.683 1082.35 321.639 1082.19 321.639H1055.02Z" fill="#CCCCCC"/>
<path d="M1184.99 121.239C1182.03 121.239 1179.13 122.115 1176.67 123.757C1174.21 125.399 1172.29 127.732 1171.16 130.462C1170.02 133.192 1169.73 136.195 1170.31 139.093C1170.88 141.991 1172.31 144.653 1174.4 146.743C1176.5 148.832 1179.16 150.255 1182.07 150.831C1184.97 151.408 1187.98 151.112 1190.71 149.981C1193.45 148.851 1195.79 146.936 1197.43 144.479C1199.08 142.022 1199.95 139.134 1199.95 136.179C1199.95 134.217 1199.57 132.274 1198.82 130.462C1198.06 128.649 1196.96 127.002 1195.57 125.615C1194.18 124.228 1192.53 123.127 1190.71 122.376C1188.9 121.626 1186.95 121.239 1184.99 121.239ZM1184.99 125.721C1185.87 125.721 1186.74 125.984 1187.48 126.476C1188.22 126.969 1188.8 127.669 1189.14 128.488C1189.48 129.307 1189.56 130.208 1189.39 131.077C1189.22 131.947 1188.79 132.745 1188.16 133.372C1187.53 133.999 1186.73 134.426 1185.86 134.599C1184.99 134.772 1184.09 134.683 1183.27 134.344C1182.45 134.005 1181.75 133.43 1181.25 132.693C1180.76 131.956 1180.5 131.089 1180.5 130.203C1180.5 129.014 1180.97 127.874 1181.81 127.034C1182.65 126.193 1183.8 125.721 1184.99 125.721ZM1184.99 147.297C1183.21 147.289 1181.47 146.849 1179.9 146.016C1178.34 145.182 1177 143.98 1176.01 142.514C1176.08 139.526 1181.99 137.881 1184.99 137.881C1187.98 137.881 1193.9 139.526 1193.97 142.514C1192.97 143.979 1191.63 145.18 1190.07 146.014C1188.5 146.847 1186.76 147.288 1184.99 147.297Z" fill="#3C4F90"/>
<path d="M673.935 80.1996C673.423 79.6626 672.809 79.2317 672.129 78.9315C671.45 78.6313 670.718 78.4676 669.975 78.4499C669.232 78.4321 668.493 78.5606 667.8 78.828C667.106 79.0954 666.473 79.4965 665.935 80.0084C665.397 80.5203 664.966 81.1329 664.665 81.8112C664.365 82.4895 664.201 83.2203 664.183 83.9618C664.166 84.7033 664.295 85.441 664.563 86.1327C664.831 86.8244 665.233 87.4567 665.746 87.9932C665.808 88.058 665.872 88.1212 665.937 88.1829L674.128 96.3583L682.126 88.3749C683.17 87.2823 683.745 85.8254 683.727 84.3157C683.709 82.806 683.1 81.3632 682.03 80.2956C680.961 79.228 679.515 78.6203 678.002 78.6024C676.49 78.5844 675.03 79.1577 673.935 80.1996Z" fill="#3C4F90"/>
<path d="M1075.28 339.774C1075.28 343.452 1068.6 351.526 1068.6 351.526C1068.6 351.526 1061.93 343.452 1061.93 339.774C1061.93 338.899 1062.1 338.033 1062.44 337.225C1062.77 336.416 1063.26 335.682 1063.88 335.063C1064.5 334.444 1065.23 333.953 1066.04 333.617C1066.85 333.282 1067.72 333.109 1068.6 333.108C1069.47 333.108 1070.34 333.279 1071.15 333.613C1071.96 333.947 1072.7 334.437 1073.32 335.055C1073.94 335.673 1074.43 336.407 1074.77 337.215C1075.1 338.022 1075.27 338.888 1075.28 339.763L1075.28 339.774Z" fill="#3C4F90"/>
<path d="M1068.6 342.39C1070.05 342.39 1071.22 341.219 1071.22 339.774C1071.22 338.329 1070.05 337.157 1068.6 337.157C1067.15 337.157 1065.98 338.329 1065.98 339.774C1065.98 341.219 1067.15 342.39 1068.6 342.39Z" fill="white"/>
<path d="M1068.36 358.969C1069.81 358.969 1070.99 357.798 1070.99 356.353C1070.99 354.908 1069.81 353.736 1068.36 353.736C1066.92 353.736 1065.74 354.908 1065.74 356.353C1065.74 357.798 1066.92 358.969 1068.36 358.969Z" fill="#3C4F90"/>
</svg>
