<svg width="1324" height="608" viewBox="0 0 1324 608" fill="none" xmlns="http://www.w3.org/2000/svg">
<g clip-path="url(#clip0_533_3107)" filter="url(#filter0_d_533_3107)">
<path d="M254.274 374.124C215.754 336.38 199.485 297.003 208.462 263.248C219.983 219.93 271.166 189.98 348.887 181.076L349.174 183.561C272.535 192.34 222.133 221.618 210.891 263.887C202.154 296.738 218.187 335.255 256.037 372.343L254.274 374.124Z" fill="#F0F0F0"/>
<path d="M625.931 508.106C577.855 508.106 525.612 500.995 473.72 487.321C409.549 470.411 350.711 444.888 303.566 413.509L304.962 411.431C351.88 442.658 410.457 468.064 474.363 484.904C532.114 500.122 590.298 507.174 642.603 505.313L642.694 507.811C637.17 508.009 631.582 508.107 625.931 508.106Z" fill="#F0F0F0"/>
<path d="M736.222 492.382L735.418 490.013C778.415 475.543 805.308 452.233 813.189 422.601C823.208 384.932 801.442 341.22 751.902 299.516C702.109 257.6 630.306 222.821 549.718 201.586L550.361 199.168C631.301 220.497 703.453 255.456 753.524 297.607C803.847 339.969 825.899 384.587 815.618 423.241C807.511 453.722 780.056 477.631 736.222 492.382Z" fill="#F0F0F0"/>
<path d="M341.408 509.152C246.942 467.449 174.149 413.345 136.438 356.805L138.531 355.422C175.981 411.57 248.392 465.354 342.426 506.866L341.408 509.152Z" fill="#F0F0F0"/>
<path d="M673.543 581.398C663.799 581.398 653.889 581.182 643.812 580.749L643.92 578.251C719.119 581.491 785.468 572.534 835.807 552.342L836.746 554.662C792.834 572.274 736.864 581.398 673.543 581.398Z" fill="#F0F0F0"/>
<path d="M618.733 183.319C603.12 178.259 587.06 173.548 571 169.316C478.58 144.963 387.731 136.316 308.27 144.315L308.018 141.827C387.775 133.801 478.935 142.469 571.643 166.898C587.748 171.142 603.853 175.867 619.511 180.942L618.733 183.319Z" fill="#F0F0F0"/>
<path d="M195.235 377.876C156.715 340.132 140.445 300.754 149.423 266.999C160.944 223.682 212.127 193.732 289.848 184.828L290.135 187.313C213.496 196.092 163.094 225.37 151.852 267.639C143.115 300.49 159.148 339.007 196.998 376.095L195.235 377.876Z" fill="#F0F0F0"/>
<path d="M566.892 511.857C518.816 511.857 466.573 504.746 414.681 491.072C350.51 474.162 291.671 448.639 244.527 417.26L245.923 415.182C292.84 446.409 351.418 471.815 415.324 488.654C473.075 503.873 531.259 510.925 583.564 509.064L583.655 511.562C578.131 511.76 572.543 511.858 566.892 511.857Z" fill="#F0F0F0"/>
<path d="M677.183 496.133L676.378 493.764C719.376 479.294 746.269 455.984 754.15 426.352C764.169 388.683 742.403 344.971 692.863 303.267C643.07 261.351 571.267 226.572 490.679 205.337L491.321 202.919C572.262 224.248 644.414 259.207 694.485 301.358C744.808 343.72 766.86 388.338 756.579 426.992C748.472 457.473 721.017 481.382 677.183 496.133Z" fill="#F0F0F0"/>
<path d="M282.369 512.903C187.903 471.201 115.109 417.097 77.3994 360.557L79.4922 359.174C116.942 415.322 189.353 469.106 283.387 510.618L282.369 512.903Z" fill="#F0F0F0"/>
<path d="M614.504 585.149C604.76 585.149 594.85 584.933 584.773 584.5L584.881 582.002C660.08 585.242 726.428 576.285 776.767 556.093L777.707 558.413C733.795 576.025 677.825 585.149 614.504 585.149Z" fill="#F0F0F0"/>
<path d="M559.694 187.071C544.081 182.011 528.021 177.3 511.961 173.068C419.541 148.714 328.692 140.068 249.231 148.067L248.979 145.579C328.736 137.553 419.896 146.221 512.603 170.65C528.709 174.894 544.814 179.619 560.472 184.694L559.694 187.071Z" fill="#F0F0F0"/>
<path d="M120.22 310.897C138.274 290.75 167.072 278.47 193.17 285.821C169.094 302.78 151.82 327.67 144.405 356.086C141.585 367.055 139.597 379.547 130.432 386.254C124.729 390.427 117.173 391.424 110.16 390.474C103.146 389.523 96.5151 386.809 89.9732 384.118L88.2129 384.27C93.274 357.747 102.166 331.045 120.22 310.897Z" fill="#F2F2F2"/>
<path d="M193.09 286.382C171.27 291.64 151.67 303.609 137.073 320.586C133.865 324.186 131.247 328.266 129.316 332.677C127.575 337.034 127.037 341.776 127.759 346.41C128.345 350.744 129.449 355.11 128.966 359.51C128.686 361.759 127.931 363.923 126.751 365.861C125.571 367.799 123.993 369.467 122.12 370.756C117.537 374.087 112.025 375.58 106.583 376.854C100.542 378.268 94.244 379.642 89.3191 383.639C88.7224 384.123 88.0024 383.173 88.5983 382.689C97.1667 375.736 109.075 376.629 118.555 371.578C122.979 369.222 126.715 365.524 127.624 360.45C128.419 356.013 127.284 351.51 126.653 347.127C125.882 342.616 126.232 337.987 127.673 333.642C129.372 329.148 131.827 324.974 134.933 321.3C141.794 312.916 149.935 305.659 159.061 299.793C169.438 293.041 180.899 288.105 192.949 285.2C193.694 285.021 193.831 286.203 193.09 286.382Z" fill="white"/>
<path d="M141.45 314.844C138.921 312.019 137.483 308.392 137.392 304.61C137.302 300.827 138.565 297.136 140.957 294.195C141.442 293.601 142.392 294.325 141.905 294.919C139.673 297.654 138.497 301.093 138.588 304.615C138.68 308.137 140.033 311.51 142.404 314.126C142.918 314.695 141.962 315.41 141.45 314.844Z" fill="white"/>
<path d="M127.172 344.252C134.925 344.764 142.588 342.349 148.632 337.488C149.23 337.006 149.95 337.956 149.353 338.437C143.054 343.484 135.074 345.981 127.007 345.43C126.238 345.377 126.407 344.199 127.172 344.252Z" fill="white"/>
<path d="M169.708 294.595C170.457 295.891 171.519 296.981 172.797 297.768C174.074 298.554 175.528 299.013 177.028 299.102C177.797 299.145 177.628 300.323 176.863 300.28C175.207 300.174 173.602 299.666 172.188 298.8C170.775 297.934 169.595 296.737 168.754 295.313C168.663 295.185 168.625 295.028 168.647 294.873C168.668 294.718 168.748 294.578 168.87 294.48C168.997 294.385 169.156 294.344 169.313 294.366C169.47 294.388 169.611 294.47 169.708 294.595Z" fill="white"/>
<path d="M230.217 369.46C229.736 369.447 229.255 369.433 228.767 369.428C222.299 369.28 215.829 369.656 209.422 370.551C208.925 370.613 208.423 370.682 207.929 370.758C192.516 373.079 177.669 378.228 164.144 385.943C158.765 389.018 153.629 392.496 148.78 396.347C142.084 401.665 135.248 407.962 127.409 410.688C126.594 410.981 125.762 411.224 124.917 411.416L88.5352 386.396C88.4812 386.298 88.4211 386.207 88.3667 386.109L86.8682 385.176C87.1043 384.96 87.3539 384.741 87.59 384.525C87.7265 384.399 87.8711 384.279 88.0075 384.153C88.1011 384.071 88.1951 383.989 88.2747 383.91C88.3058 383.882 88.3372 383.855 88.3625 383.836C88.4422 383.756 88.5247 383.691 88.5987 383.62C89.9904 382.392 91.3932 381.172 92.8071 379.959C92.8129 379.951 92.8129 379.951 92.8267 379.948C103.624 370.737 115.288 362.341 127.862 355.975C128.24 355.783 128.624 355.583 129.019 355.403C134.703 352.565 140.61 350.194 146.682 348.313C150.01 347.294 153.387 346.444 156.802 345.765C165.628 344.027 174.673 343.682 183.607 344.742C201.416 346.858 218.346 354.62 229.384 368.399C229.666 368.752 229.94 369.099 230.217 369.46Z" fill="#F2F2F2"/>
<path d="M229.817 369.863C209.214 360.986 186.325 358.796 164.401 363.604C159.663 364.555 155.105 366.245 150.895 368.609C146.869 371.044 143.571 374.508 141.345 378.641C139.191 382.453 137.432 386.6 134.385 389.824C132.8 391.452 130.888 392.727 128.774 393.568C126.66 394.408 124.391 394.794 122.116 394.7C116.442 394.613 111.137 392.502 106.022 390.259C100.343 387.767 94.4835 385.09 88.1339 385.33C87.3646 385.359 87.3643 384.169 88.1325 384.14C99.1797 383.723 108.148 391.572 118.772 393.221C123.729 393.99 128.95 393.277 132.744 389.77C136.063 386.704 137.881 382.428 140.028 378.55C142.14 374.487 145.22 371 148.998 368.395C153.074 365.825 157.559 363.964 162.261 362.891C172.81 360.309 183.7 359.393 194.535 360.178C206.905 361.006 219.041 363.934 230.419 368.835C231.123 369.139 230.516 370.165 229.817 369.863Z" fill="white"/>
<path d="M171.368 361.642C171.057 357.872 172.103 354.113 174.319 351.039C176.534 347.965 179.776 345.775 183.464 344.859C184.211 344.677 184.531 345.824 183.783 346.006C180.347 346.852 177.328 348.893 175.27 351.76C173.213 354.627 172.253 358.131 172.564 361.641C172.63 362.404 171.434 362.401 171.368 361.642Z" fill="white"/>
<path d="M142.18 376.566C148.061 381.621 155.64 384.285 163.406 384.026C164.175 383.999 164.176 385.189 163.407 385.216C155.325 385.47 147.444 382.682 141.336 377.408C140.754 376.905 141.602 376.065 142.18 376.566Z" fill="white"/>
<path d="M206.178 362.409C205.993 363.893 206.181 365.399 206.725 366.793C207.27 368.187 208.154 369.424 209.297 370.394C209.885 370.889 209.037 371.729 208.453 371.236C207.194 370.159 206.22 368.791 205.615 367.253C205.01 365.714 204.793 364.051 204.982 362.41C204.987 362.254 205.052 362.105 205.163 361.995C205.273 361.884 205.423 361.82 205.579 361.814C205.738 361.815 205.889 361.878 206.001 361.989C206.113 362.1 206.177 362.251 206.178 362.409Z" fill="white"/>
<path d="M827.627 476.06C817.427 451.044 794.45 429.845 767.388 428.037C784.337 452.064 792.202 481.285 789.59 510.528C788.542 521.803 786.197 534.234 792.564 543.617C796.525 549.455 803.305 552.921 810.231 554.373C817.158 555.823 824.32 555.485 831.39 555.14L832.996 555.872C837.186 529.199 837.827 501.075 827.627 476.06Z" fill="#F2F2F2"/>
<path d="M767.273 428.593C786.048 440.845 800.467 458.674 808.482 479.548C810.287 484.011 811.375 488.729 811.704 493.529C811.873 498.216 810.779 502.862 808.534 506.984C806.518 510.87 804.005 514.613 802.973 518.919C802.478 521.131 802.458 523.422 802.915 525.642C803.372 527.862 804.295 529.961 805.624 531.801C808.816 536.471 813.503 539.722 818.198 542.742C823.41 546.095 828.878 549.496 832.167 554.907C832.565 555.563 833.564 554.909 833.166 554.255C827.444 544.839 815.927 541.696 808.704 533.768C805.333 530.069 803.062 525.336 803.92 520.253C804.67 515.808 807.259 511.947 809.334 508.03C811.583 504.04 812.816 499.563 812.926 494.989C812.844 490.187 811.94 485.435 810.256 480.935C806.625 470.745 801.408 461.185 794.794 452.608C787.3 442.777 778.172 434.294 767.805 427.527C767.163 427.109 766.635 428.177 767.273 428.593Z" fill="white"/>
<path d="M806.299 472.675C809.635 470.861 812.215 467.926 813.577 464.393C814.939 460.861 814.996 456.962 813.737 453.392C813.479 452.671 812.341 453.035 812.599 453.757C813.777 457.079 813.724 460.711 812.449 463.998C811.173 467.285 808.76 470.009 805.643 471.68C804.967 472.044 805.626 473.037 806.299 472.675Z" fill="white"/>
<path d="M809.817 505.149C802.341 503.038 795.94 498.2 791.889 491.599C791.488 490.945 790.489 491.599 790.89 492.252C795.118 499.113 801.79 504.134 809.574 506.314C810.316 506.521 810.555 505.355 809.817 505.149Z" fill="white"/>
<path d="M786.523 444.151C785.379 445.121 784.011 445.792 782.542 446.106C781.073 446.419 779.549 446.364 778.106 445.946C777.367 445.73 777.129 446.896 777.863 447.111C779.459 447.566 781.143 447.624 782.767 447.281C784.39 446.939 785.905 446.206 787.179 445.146C787.307 445.056 787.396 444.921 787.428 444.768C787.46 444.615 787.432 444.455 787.35 444.322C787.263 444.191 787.127 444.099 786.972 444.067C786.817 444.035 786.656 444.065 786.523 444.151Z" fill="white"/>
<path d="M704.254 494.417C704.712 494.566 705.169 494.714 705.63 494.872C711.772 496.897 717.738 499.415 723.471 502.402C723.917 502.626 724.367 502.859 724.806 503.095C738.54 510.438 750.784 520.254 760.917 532.045C764.945 536.741 768.608 541.735 771.874 546.984C776.385 554.233 780.697 562.451 787.16 567.64C787.828 568.189 788.53 568.697 789.261 569.159L831.975 557.766C832.059 557.692 832.146 557.627 832.23 557.552L833.957 557.175C833.807 556.893 833.646 556.603 833.497 556.321C833.41 556.156 833.315 555.995 833.229 555.831C833.169 555.722 833.108 555.613 833.059 555.512C833.039 555.476 833.019 555.44 833.002 555.413C832.953 555.311 832.898 555.222 832.852 555.13C831.956 553.509 831.047 551.89 830.125 550.275C830.122 550.265 830.122 550.265 830.11 550.258C823.052 537.97 814.901 526.161 805.208 515.958C804.916 515.652 804.622 515.335 804.311 515.033C799.917 510.459 795.154 506.249 790.07 502.447C787.28 500.374 784.386 498.442 781.399 496.661C773.673 492.071 765.271 488.72 756.499 486.73C739.011 482.766 720.445 484.412 705.397 493.697C705.012 493.935 704.636 494.17 704.254 494.417Z" fill="#F2F2F2"/>
<path d="M704.496 494.932C726.898 493.464 749.195 499.058 768.22 510.921C772.361 513.403 776.084 516.519 779.25 520.154C782.22 523.794 784.156 528.16 784.858 532.797C785.599 537.107 785.855 541.602 787.636 545.658C788.579 547.721 789.949 549.562 791.657 551.061C793.364 552.56 795.371 553.682 797.545 554.355C802.918 556.171 808.627 555.958 814.202 555.556C820.392 555.109 826.815 554.548 832.714 556.898C833.429 557.183 833.831 556.062 833.117 555.778C822.854 551.689 811.757 556.082 801.194 554.08C796.265 553.146 791.589 550.728 789.2 546.156C787.11 542.158 786.841 537.523 786.129 533.152C785.511 528.618 783.788 524.304 781.109 520.587C778.138 516.803 774.543 513.549 770.476 510.966C761.413 505.005 751.465 500.499 740.996 497.614C729.066 494.255 716.647 492.953 704.276 493.762C703.51 493.813 703.735 494.982 704.496 494.932Z" fill="white"/>
<path d="M762.32 506.742C763.887 503.295 764.171 499.405 763.122 495.769C762.073 492.132 759.76 488.985 756.595 486.889C755.953 486.467 755.265 487.44 755.907 487.862C758.858 489.809 761.013 492.74 761.982 496.129C762.952 499.517 762.673 503.139 761.195 506.341C760.875 507.037 762.002 507.434 762.32 506.742Z" fill="white"/>
<path d="M784.77 530.561C777.524 533.356 769.487 533.329 762.26 530.487C761.544 530.204 761.142 531.325 761.857 531.607C769.383 534.551 777.747 534.561 785.28 531.637C785.998 531.358 785.484 530.284 784.77 530.561Z" fill="white"/>
<path d="M729.276 495.818C728.95 497.278 728.264 498.634 727.28 499.764C726.297 500.895 725.047 501.765 723.642 502.295C722.921 502.565 723.437 503.64 724.153 503.371C725.702 502.778 727.081 501.815 728.171 500.569C729.26 499.322 730.026 497.829 730.402 496.22C730.45 496.071 730.439 495.909 730.372 495.768C730.305 495.627 730.187 495.516 730.041 495.459C729.891 495.406 729.727 495.415 729.584 495.482C729.441 495.549 729.331 495.67 729.276 495.818Z" fill="white"/>
<path d="M629.737 561.241C635.287 561.241 639.786 556.763 639.786 551.239C639.786 545.715 635.287 541.236 629.737 541.236C624.187 541.236 619.688 545.715 619.688 551.239C619.688 556.763 624.187 561.241 629.737 561.241Z" fill="#FD6584"/>
<path d="M665.332 390.876C670.882 390.876 675.382 386.398 675.382 380.874C675.382 375.349 670.882 370.871 665.332 370.871C659.782 370.871 655.283 375.349 655.283 380.874C655.283 386.398 659.782 390.876 665.332 390.876Z" fill="#E6E6E6"/>
<path d="M478.34 113.423C483.89 113.423 488.389 108.945 488.389 103.421C488.389 97.8963 483.89 93.418 478.34 93.418C472.79 93.418 468.291 97.8963 468.291 103.421C468.291 108.945 472.79 113.423 478.34 113.423Z" fill="#E6E6E6"/>
<path d="M267.756 487.118C267.756 489.664 267.84 492.21 268.019 494.735C268.209 497.753 268.535 500.75 268.977 503.726C270.463 513.745 273.303 523.519 277.42 532.782C277.63 533.243 277.841 533.704 278.051 534.165L278.367 534.856C278.473 535.087 278.588 535.318 278.694 535.538C278.841 535.841 278.978 536.135 279.125 536.428C279.304 536.795 279.483 537.162 279.673 537.528C279.694 537.57 279.715 537.623 279.746 537.675C279.904 537.989 280.052 538.293 280.22 538.608C280.251 538.676 280.286 538.743 280.325 538.807C280.504 539.163 280.694 539.53 280.883 539.886C281.094 540.263 281.294 540.651 281.504 541.028C282.01 541.961 282.536 542.883 283.073 543.805C283.231 544.077 283.389 544.35 283.557 544.622C283.704 544.874 283.852 545.125 284.01 545.377C284.115 545.544 284.22 545.722 284.326 545.89C284.494 546.173 284.662 546.445 284.841 546.728C285.231 547.347 285.631 547.965 286.02 548.583H286.031C286.21 548.866 286.399 549.149 286.589 549.421V549.432C287.147 550.27 287.726 551.108 288.305 551.936L288.309 551.937L288.312 551.939L288.315 551.942L288.315 551.946C288.779 552.617 289.263 553.267 289.736 553.916V553.927C290.052 554.336 290.358 554.755 290.673 555.163C290.926 555.499 291.189 555.844 291.452 556.18C291.505 556.253 291.568 556.316 291.621 556.389V556.4C291.695 556.494 291.768 556.578 291.842 556.672C292.958 558.097 294.109 559.491 295.295 560.853L295.484 561.073C295.547 561.146 295.621 561.22 295.684 561.304C295.79 561.419 295.884 561.534 295.99 561.649C296.084 561.765 296.19 561.88 296.295 561.995C302.477 568.927 309.488 575.082 317.17 580.322C318.191 581.024 319.233 581.705 320.276 582.365C320.539 582.533 320.802 582.7 321.065 582.857C321.139 582.91 321.223 582.962 321.297 583.015C321.444 583.098 321.581 583.182 321.728 583.276C321.865 583.36 322.002 583.444 322.149 583.528C322.707 583.874 323.276 584.209 323.844 584.544C323.981 584.628 324.128 584.712 324.276 584.796C324.413 584.869 324.56 584.953 324.707 585.037C324.707 585.047 324.707 585.047 324.718 585.047H324.728V585.058H324.739C325.444 585.466 326.16 585.865 326.887 586.252C327.276 586.462 327.676 586.682 328.076 586.881C328.981 587.373 329.897 587.845 330.813 588.296C331.139 588.453 331.476 588.61 331.803 588.778C332.076 588.903 332.35 589.04 332.624 589.165C332.708 589.207 332.782 589.239 332.855 589.28C333.087 589.385 333.308 589.49 333.54 589.595C333.792 589.71 334.045 589.825 334.287 589.941C334.571 590.066 334.845 590.192 335.129 590.307C336.182 590.779 337.245 591.229 338.308 591.659C342.119 593.214 346.013 594.557 349.972 595.683C350.151 595.735 350.341 595.787 350.53 595.84C352.225 596.311 353.931 596.741 355.647 597.129C358.647 597.82 361.675 598.386 364.731 598.826H364.752C365.121 598.879 365.479 598.931 365.847 598.983C365.879 598.983 365.91 598.994 365.953 598.994C365.953 599.004 365.953 599.004 365.963 598.994C366.363 599.046 366.774 599.099 367.174 599.151C367.201 599.159 367.229 599.163 367.258 599.161C367.637 599.214 368.026 599.256 368.405 599.298C368.816 599.34 369.226 599.382 369.637 599.423C369.953 599.455 370.269 599.486 370.584 599.518C370.611 599.527 370.64 599.531 370.669 599.528C370.953 599.549 371.237 599.581 371.521 599.602H371.563C371.806 599.623 372.058 599.644 372.3 599.665C375.237 599.895 378.185 600 381.175 600C384.406 600 387.617 599.874 390.786 599.602H390.817C391.502 599.539 392.175 599.476 392.849 599.413C393.028 599.392 393.197 599.382 393.376 599.361C393.407 599.361 393.449 599.35 393.481 599.35C393.533 599.34 393.586 599.34 393.649 599.329C393.678 599.33 393.706 599.327 393.733 599.319C393.965 599.298 394.197 599.266 394.439 599.245L395.228 599.151C395.491 599.12 395.755 599.078 396.018 599.046C396.081 599.036 396.134 599.036 396.197 599.025C396.386 599.004 396.576 598.973 396.765 598.942C396.86 598.931 396.955 598.921 397.039 598.91C397.228 598.879 397.407 598.858 397.597 598.826H397.607C403.384 597.998 409.086 596.72 414.661 595.002C414.956 594.907 415.251 594.824 415.546 594.729C415.556 594.729 415.567 594.719 415.577 594.719C415.661 594.687 415.756 594.666 415.84 594.635C416.63 594.383 417.409 594.121 418.188 593.849C419.262 593.493 420.325 593.105 421.388 592.707C421.672 592.592 421.957 592.487 422.241 592.372C422.82 592.152 423.388 591.921 423.957 591.691C424.925 591.303 425.894 590.894 426.852 590.475C427.746 590.077 428.631 589.679 429.515 589.26C429.536 589.249 429.568 589.249 429.589 589.228C429.789 589.134 429.989 589.04 430.178 588.945H430.189C435.037 586.629 439.712 583.972 444.179 580.992C445.611 580.039 447.021 579.054 448.411 578.037C449.527 577.21 450.622 576.371 451.717 575.512C457.118 571.236 462.118 566.48 466.654 561.304V561.293C466.981 560.937 467.286 560.57 467.602 560.203C467.655 560.151 467.697 560.099 467.739 560.057C467.939 559.816 468.128 559.585 468.328 559.355V559.344C468.591 559.04 468.855 558.726 469.107 558.412C469.17 558.338 469.223 558.275 469.276 558.212V558.202C469.486 557.951 469.686 557.699 469.897 557.437C470.002 557.311 470.097 557.186 470.202 557.06V557.049C470.823 556.274 471.423 555.499 472.023 554.702C472.181 554.493 472.339 554.273 472.508 554.053C473.265 553.036 474.002 551.999 474.718 550.962V550.951C474.992 550.563 475.255 550.165 475.529 549.778C475.792 549.379 476.055 548.981 476.318 548.583C476.582 548.164 476.855 547.755 477.118 547.336L477.15 547.273C477.413 546.875 477.676 546.456 477.929 546.047C478.129 545.712 478.329 545.387 478.529 545.062C478.655 544.842 478.792 544.622 478.919 544.392C478.968 544.321 479.014 544.247 479.055 544.172C479.35 543.658 479.645 543.145 479.94 542.631C480.287 542.034 480.624 541.426 480.961 540.819C481.087 540.567 481.224 540.316 481.361 540.064C481.413 539.98 481.456 539.897 481.498 539.813C481.656 539.519 481.813 539.216 481.961 538.912C482.119 538.618 482.277 538.314 482.435 538.011C482.582 537.717 482.74 537.413 482.887 537.109C483.003 536.879 483.108 536.648 483.224 536.418C483.232 536.399 483.243 536.381 483.256 536.365C483.308 536.25 483.361 536.145 483.403 536.041C483.416 536.025 483.427 536.007 483.435 535.988C483.55 535.758 483.656 535.517 483.772 535.286C483.919 534.982 484.056 534.668 484.203 534.364C484.298 534.155 484.403 533.934 484.498 533.714C484.635 533.411 484.782 533.107 484.908 532.792C485.056 532.478 485.193 532.164 485.329 531.839C485.369 531.76 485.404 531.68 485.435 531.598C485.508 531.451 485.561 531.304 485.624 531.158C485.793 530.77 485.961 530.372 486.119 529.984C486.309 529.544 486.487 529.094 486.656 528.653C486.824 528.245 486.982 527.826 487.14 527.407L487.203 527.26C489.656 520.829 491.517 514.19 492.762 507.425V507.414C493.464 503.551 493.966 499.655 494.267 495.741C494.277 495.521 494.299 495.312 494.309 495.102C494.499 492.451 494.583 489.79 494.583 487.118C494.583 485.934 494.562 484.76 494.53 483.586C493.795 459.043 485.002 435.414 469.497 416.316C469.16 415.897 468.823 415.478 468.476 415.059C468.128 414.64 467.77 414.231 467.423 413.822C455.883 400.37 441.329 389.806 424.934 382.98C408.539 376.154 390.762 373.258 373.037 374.526C355.311 375.793 338.133 381.188 322.887 390.276C307.64 399.364 294.753 411.891 285.263 426.847C284.747 427.664 284.231 428.492 283.736 429.32C283.231 430.158 282.747 430.996 282.262 431.845C272.725 448.718 267.729 467.757 267.756 487.118Z" fill="#F2F2F2"/>
<path d="M376.667 413.282C395.316 418.045 414.428 420.791 433.669 421.471C436.579 421.629 439.495 421.609 442.403 421.412C448.792 420.877 454.264 418.879 460.359 417.786C463.289 417.263 466.553 416.88 469.502 416.314C468.821 415.472 468.127 414.641 467.421 413.82C461.06 414.355 454.601 416.106 448.164 416.919C437.221 418.304 424.961 416.759 416.666 412.947C412.642 411.098 409.559 408.789 405.548 406.931C405.003 406.653 404.412 406.472 403.804 406.399C402.647 406.365 401.505 406.66 400.511 407.249C393.783 410.63 384.015 413.378 374.947 411.866C374.272 412.393 375.556 412.992 376.667 413.282Z" fill="white"/>
<path d="M336.544 425.179C336.461 425.164 336.378 425.153 336.295 425.138C336.643 424.923 336.971 424.677 337.275 424.403L336.544 425.179Z" fill="white"/>
<path d="M282.264 431.85C286.051 432.151 289.857 432.375 293.684 432.523C296.594 432.679 299.51 432.659 302.417 432.464C308.806 431.926 314.279 429.93 320.374 428.838C325.959 427.838 332.747 427.357 336.293 425.139C327.127 423.559 317.63 426.774 308.178 427.971C300.533 428.906 292.783 428.526 285.267 426.845C284.221 428.483 283.22 430.151 282.264 431.85Z" fill="white"/>
<path d="M328.075 586.882C328.981 587.375 329.896 587.846 330.812 588.297C331.139 588.454 331.475 588.611 331.802 588.779C332.075 588.905 332.349 589.041 332.623 589.167C332.707 589.209 332.781 589.24 332.854 589.282C333.086 589.387 333.307 589.492 333.539 589.596C333.791 589.712 334.044 589.827 334.286 589.942C334.57 590.068 334.844 590.194 335.128 590.309C336.181 590.78 337.244 591.231 338.308 591.66C342.118 593.215 346.012 594.558 349.972 595.684C350.15 595.737 350.34 595.789 350.529 595.841C352.224 596.313 353.93 596.742 355.646 597.13C358.646 597.822 361.674 598.388 364.731 598.828H364.752C365.12 598.88 365.478 598.932 365.846 598.985C365.878 598.985 365.91 598.995 365.952 598.995C365.952 599.006 365.952 599.006 365.962 598.995C366.362 599.048 366.773 599.1 367.173 599.152C367.2 599.161 367.229 599.164 367.257 599.163C367.636 599.215 368.025 599.257 368.404 599.299C368.815 599.341 369.226 599.383 369.636 599.425C369.952 599.456 370.268 599.488 370.584 599.519C370.611 599.528 370.639 599.532 370.668 599.53C370.952 599.551 371.236 599.582 371.52 599.603H371.563C371.805 599.624 372.057 599.645 372.299 599.666C375.237 599.896 378.184 600.001 381.174 600.001C384.406 600.001 387.616 599.875 390.785 599.603H390.817C391.501 599.54 392.175 599.477 392.848 599.414C393.027 599.393 393.196 599.383 393.375 599.362C393.406 599.362 393.448 599.352 393.48 599.352C393.533 599.341 393.585 599.341 393.648 599.331C393.677 599.332 393.705 599.328 393.733 599.32C393.964 599.299 394.196 599.268 394.438 599.247L395.227 599.152C395.491 599.121 395.754 599.079 396.017 599.048C396.08 599.037 396.133 599.037 396.196 599.027C396.385 599.006 396.575 598.974 396.764 598.943C396.859 598.932 396.954 598.922 397.038 598.911C397.228 598.88 397.407 598.859 397.596 598.828H397.607C403.383 598 409.085 596.721 414.66 595.003C414.955 594.909 415.25 594.825 415.545 594.731C414.185 588.421 411.387 582.507 407.366 577.445C403.345 572.383 398.208 568.31 392.354 565.538C393.802 564.165 394.803 562.391 395.227 560.446C395.501 559.192 395.522 557.896 395.291 556.634C395.06 555.372 394.58 554.167 393.88 553.09C392.514 551.002 390.371 549.54 387.922 549.025L372.321 545.776C369.809 545.289 367.206 545.808 365.077 547.221C362.948 548.634 361.465 550.826 360.951 553.321C360.792 554.085 360.721 554.866 360.741 555.647C345.719 565.601 334.907 575.922 328.075 586.882Z" fill="#A4AFBC"/>
<path d="M374.142 539.642C392.092 539.642 406.645 525.157 406.645 507.29C406.645 489.422 392.092 474.938 374.142 474.938C356.191 474.938 341.639 489.422 341.639 507.29C341.639 525.157 356.191 539.642 374.142 539.642Z" fill="#FFB8B8"/>
<path d="M353.882 535.183C350.416 532.826 346.876 528.297 344.513 524.903C341.382 520.442 339.228 515.375 338.19 510.032C337.151 504.689 337.253 499.188 338.487 493.887C338.881 491.767 339.848 489.794 341.285 488.181C342.816 486.673 345.316 485.958 347.184 487.025C346.674 485.665 346.45 484.217 346.524 482.768C346.599 481.319 346.971 479.901 347.618 478.6C348.931 476.004 350.834 473.749 353.175 472.012C357.653 468.579 362.982 466.418 368.594 465.756C374.207 465.095 379.895 465.958 385.055 468.255C387.085 469.191 383.75 461.959 385.876 462.657C387.986 463.47 390.334 463.429 392.415 462.542C394.413 461.541 401.038 467.491 400.272 465.398C401.788 466.084 403.106 467.14 404.102 468.469C405.098 469.798 405.74 471.356 405.969 472.999C406.197 474.641 406.004 476.314 405.407 477.862C404.811 479.411 403.831 480.783 402.558 481.853C400.88 483.262 398.786 484.074 396.949 485.27C393.731 487.524 391.453 490.872 390.546 494.683C389.638 498.494 390.164 502.504 392.024 505.955C390.091 504.719 387.971 503.802 385.745 503.239C384.628 502.968 383.462 502.966 382.344 503.233C381.226 503.501 380.189 504.03 379.318 504.777C378.59 505.606 378.041 506.574 377.703 507.622C377.365 508.67 377.246 509.776 377.352 510.872C377.425 513.067 377.95 515.23 378.009 517.426C378.182 523.869 381.649 536.119 376.63 539.544C372.669 542.247 358.614 538.4 353.882 535.183Z" fill="#2F2E41"/>
<path d="M396.489 345.359C395.805 345.357 395.127 345.221 394.496 344.958C393.554 344.581 392.748 343.93 392.183 343.089C391.619 342.249 391.323 341.258 391.334 340.247V335.127C391.333 334.052 390.904 333.023 390.141 332.263C389.378 331.503 388.343 331.076 387.264 331.075C385.906 331.073 384.603 330.536 383.643 329.58C382.682 328.624 382.142 327.327 382.141 325.975V255.818C382.142 254.466 382.682 253.17 383.643 252.214C384.603 251.258 385.905 250.72 387.263 250.719H620.782C622.14 250.72 623.442 251.258 624.403 252.214C625.363 253.17 625.904 254.466 625.905 255.818V325.975C625.904 327.327 625.363 328.624 624.403 329.58C623.442 330.536 622.14 331.073 620.782 331.075H414.603C414.069 331.073 413.539 331.178 413.045 331.381C412.551 331.585 412.102 331.884 411.725 332.261L400.08 343.852C399.611 344.328 399.053 344.705 398.436 344.964C397.82 345.223 397.158 345.357 396.489 345.359Z" fill="white"/>
<path d="M396.489 346.406C395.666 346.405 394.852 346.241 394.093 345.925C392.957 345.47 391.985 344.685 391.305 343.672C390.625 342.659 390.268 341.465 390.281 340.246V335.126C390.28 334.33 389.962 333.566 389.397 333.003C388.831 332.44 388.064 332.123 387.264 332.122C385.626 332.12 384.057 331.472 382.899 330.319C381.741 329.166 381.09 327.604 381.088 325.974V255.817C381.09 254.187 381.741 252.625 382.899 251.473C384.056 250.32 385.626 249.672 387.263 249.67H620.782C622.419 249.672 623.989 250.32 625.147 251.472C626.305 252.625 626.956 254.187 626.958 255.817V325.974C626.956 327.604 626.305 329.166 625.147 330.319C623.989 331.472 622.419 332.12 620.782 332.122H414.603C414.207 332.121 413.814 332.198 413.448 332.349C413.081 332.5 412.749 332.722 412.469 333.002L400.824 344.592C400.258 345.165 399.583 345.62 398.839 345.931C398.095 346.243 397.297 346.404 396.489 346.406ZM387.263 251.766C386.184 251.767 385.15 252.194 384.387 252.954C383.624 253.713 383.194 254.743 383.193 255.817V325.974C383.194 327.048 383.624 328.078 384.387 328.838C385.15 329.598 386.185 330.025 387.264 330.026C388.622 330.028 389.924 330.566 390.885 331.522C391.845 332.478 392.385 333.774 392.387 335.126V340.247C392.387 341.048 392.626 341.831 393.073 342.497C393.52 343.163 394.156 343.682 394.9 343.989C395.643 344.295 396.462 344.376 397.251 344.219C398.041 344.063 398.766 343.677 399.335 343.111L410.981 331.52C411.455 331.045 412.02 330.668 412.642 330.412C413.263 330.155 413.93 330.024 414.603 330.026H620.782C621.861 330.025 622.896 329.598 623.659 328.838C624.422 328.078 624.851 327.048 624.852 325.974V255.817C624.851 254.743 624.422 253.713 623.659 252.954C622.896 252.194 621.861 251.767 620.782 251.766L387.263 251.766Z" fill="#3F3D56"/>
<path d="M600.716 282.48H411.356C410.633 282.48 409.939 282.194 409.428 281.685C408.916 281.176 408.629 280.486 408.629 279.766C408.629 279.046 408.916 278.355 409.428 277.846C409.939 277.337 410.633 277.051 411.356 277.051H600.716C601.439 277.051 602.133 277.337 602.644 277.846C603.156 278.355 603.443 279.046 603.443 279.766C603.443 280.486 603.156 281.176 602.644 281.685C602.133 282.194 601.439 282.48 600.716 282.48Z" fill="#3664FF"/>
<path d="M600.368 294.013H411.356C410.633 294.013 409.939 293.727 409.428 293.218C408.916 292.709 408.629 292.019 408.629 291.299C408.629 290.579 408.916 289.888 409.428 289.379C409.939 288.87 410.633 288.584 411.356 288.584H600.368C601.091 288.584 601.785 288.87 602.296 289.379C602.808 289.888 603.095 290.579 603.095 291.299C603.095 292.019 602.808 292.709 602.296 293.218C601.785 293.727 601.091 294.013 600.368 294.013Z" fill="#E6E6E6"/>
<path d="M600.179 305.547H411.356C410.633 305.547 409.939 305.261 409.428 304.752C408.916 304.242 408.629 303.552 408.629 302.832C408.629 302.112 408.916 301.421 409.428 300.912C409.939 300.403 410.633 300.117 411.356 300.117H600.179C600.903 300.117 601.597 300.403 602.108 300.912C602.619 301.421 602.907 302.112 602.907 302.832C602.907 303.552 602.619 304.242 602.108 304.752C601.597 305.261 600.903 305.547 600.179 305.547Z" fill="#E6E6E6"/>
<path d="M898.917 239.831C898.917 242.378 898.833 244.924 898.654 247.449C898.464 250.467 898.138 253.464 897.696 256.439C896.21 266.459 893.37 276.233 889.253 285.496C889.042 285.957 888.832 286.418 888.621 286.879L888.305 287.57C888.2 287.801 888.084 288.031 887.979 288.251C887.832 288.555 887.695 288.849 887.548 289.142C887.369 289.509 887.19 289.876 887 290.242C886.979 290.284 886.958 290.337 886.926 290.389C886.769 290.703 886.621 291.007 886.453 291.322C886.422 291.39 886.387 291.457 886.347 291.521C886.168 291.877 885.979 292.244 885.79 292.6C885.579 292.977 885.379 293.365 885.168 293.742C884.663 294.675 884.137 295.597 883.6 296.519C883.442 296.791 883.284 297.064 883.116 297.336C882.968 297.588 882.821 297.839 882.663 298.091C882.558 298.258 882.452 298.436 882.347 298.604C882.179 298.887 882.01 299.159 881.831 299.442C881.442 300.06 881.042 300.679 880.652 301.297H880.642C880.463 301.58 880.273 301.863 880.084 302.135V302.146C879.526 302.984 878.947 303.822 878.368 304.65C878.367 304.65 878.365 304.65 878.364 304.651C878.363 304.651 878.361 304.652 878.36 304.653C878.359 304.654 878.359 304.655 878.358 304.656C878.358 304.658 878.357 304.659 878.357 304.66C877.894 305.331 877.41 305.981 876.936 306.63V306.641C876.62 307.049 876.315 307.469 875.999 307.877C875.747 308.212 875.484 308.558 875.22 308.894C875.168 308.967 875.105 309.03 875.052 309.103V309.114C874.978 309.208 874.904 309.292 874.831 309.386C873.715 310.811 872.564 312.205 871.378 313.567L871.188 313.787C871.125 313.86 871.052 313.934 870.988 314.017C870.883 314.133 870.788 314.248 870.683 314.363C870.588 314.478 870.483 314.594 870.378 314.709C864.195 321.641 857.185 327.796 849.503 333.035C848.482 333.738 847.439 334.419 846.397 335.079C846.134 335.246 845.871 335.414 845.608 335.571C845.534 335.624 845.45 335.676 845.376 335.728C845.229 335.812 845.092 335.896 844.944 335.99C844.808 336.074 844.671 336.158 844.523 336.242C843.965 336.588 843.397 336.923 842.829 337.258C842.692 337.342 842.544 337.426 842.397 337.51C842.26 337.583 842.113 337.667 841.965 337.751C841.965 337.761 841.965 337.761 841.955 337.761H841.944V337.772H841.934C841.228 338.18 840.512 338.579 839.786 338.966C839.397 339.176 838.997 339.396 838.597 339.595C837.691 340.087 836.775 340.559 835.86 341.009C835.533 341.167 835.196 341.324 834.87 341.491C834.596 341.617 834.323 341.753 834.049 341.879C833.965 341.921 833.891 341.952 833.817 341.994C833.586 342.099 833.365 342.204 833.133 342.309C832.88 342.424 832.628 342.539 832.386 342.655C832.101 342.78 831.828 342.906 831.543 343.021C830.491 343.493 829.428 343.943 828.364 344.373C824.554 345.928 820.66 347.271 816.7 348.397C816.521 348.449 816.332 348.501 816.142 348.554C814.447 349.025 812.742 349.455 811.026 349.843C808.026 350.534 804.998 351.1 801.941 351.54H801.92C801.552 351.593 801.194 351.645 800.825 351.697C800.794 351.697 800.762 351.708 800.72 351.708C800.72 351.718 800.72 351.718 800.71 351.708C800.31 351.76 799.899 351.813 799.499 351.865C799.472 351.873 799.443 351.876 799.415 351.875C799.036 351.928 798.646 351.97 798.267 352.012C797.857 352.054 797.446 352.095 797.036 352.137C796.72 352.169 796.404 352.2 796.088 352.232C796.061 352.241 796.033 352.245 796.004 352.242C795.72 352.263 795.436 352.295 795.151 352.316H795.109C794.867 352.336 794.614 352.357 794.372 352.378C791.435 352.609 788.488 352.714 785.498 352.714C782.266 352.714 779.055 352.588 775.887 352.316H775.855C775.171 352.253 774.497 352.19 773.823 352.127C773.645 352.106 773.476 352.095 773.297 352.074C773.266 352.074 773.223 352.064 773.192 352.064C773.139 352.054 773.087 352.054 773.023 352.043C772.995 352.044 772.967 352.041 772.939 352.033C772.708 352.012 772.476 351.98 772.234 351.959L771.444 351.865C771.181 351.834 770.918 351.792 770.655 351.76C770.592 351.75 770.539 351.75 770.476 351.739C770.286 351.718 770.097 351.687 769.907 351.655C769.813 351.645 769.718 351.634 769.634 351.624C769.444 351.593 769.265 351.572 769.076 351.54H769.065C763.289 350.712 757.586 349.434 752.011 347.716C751.717 347.621 751.422 347.537 751.127 347.443C751.117 347.443 751.106 347.433 751.096 347.433C751.011 347.401 750.917 347.38 750.832 347.349C750.043 347.097 749.264 346.835 748.485 346.563C747.411 346.207 746.348 345.819 745.285 345.421C745 345.306 744.716 345.201 744.432 345.086C743.853 344.866 743.284 344.635 742.716 344.404C741.748 344.017 740.779 343.608 739.821 343.189C738.926 342.791 738.042 342.393 737.158 341.973C737.137 341.963 737.105 341.963 737.084 341.942C736.884 341.848 736.684 341.753 736.494 341.659H736.484C731.636 339.343 726.961 336.686 722.493 333.706C721.062 332.753 719.651 331.768 718.262 330.751C717.146 329.924 716.051 329.085 714.956 328.226C709.555 323.95 704.555 319.194 700.018 314.018V314.007C699.692 313.651 699.387 313.284 699.071 312.917C699.018 312.865 698.976 312.813 698.934 312.771C698.734 312.53 698.544 312.299 698.344 312.069V312.058C698.081 311.754 697.818 311.44 697.565 311.126C697.502 311.052 697.45 310.989 697.397 310.926V310.916C697.186 310.664 696.986 310.413 696.776 310.151C696.671 310.025 696.576 309.9 696.471 309.774V309.763C695.849 308.988 695.249 308.213 694.649 307.416C694.491 307.207 694.334 306.987 694.165 306.767C693.407 305.75 692.67 304.713 691.954 303.675V303.665C691.681 303.277 691.418 302.879 691.144 302.491C690.881 302.093 690.617 301.695 690.354 301.297C690.091 300.878 689.817 300.469 689.554 300.05L689.523 299.987C689.259 299.589 688.996 299.17 688.744 298.761C688.544 298.426 688.344 298.101 688.144 297.776C688.017 297.556 687.88 297.336 687.754 297.106C687.705 297.035 687.659 296.961 687.617 296.886C687.323 296.372 687.028 295.859 686.733 295.345C686.386 294.748 686.049 294.14 685.712 293.533C685.586 293.281 685.449 293.03 685.312 292.778C685.259 292.694 685.217 292.61 685.175 292.527C685.017 292.233 684.859 291.929 684.712 291.626C684.554 291.332 684.396 291.028 684.238 290.724C684.091 290.431 683.933 290.127 683.785 289.823C683.67 289.593 683.564 289.362 683.449 289.132C683.44 289.113 683.43 289.095 683.417 289.079C683.364 288.964 683.312 288.859 683.27 288.754C683.257 288.739 683.246 288.721 683.238 288.702C683.122 288.472 683.017 288.231 682.901 288C682.754 287.696 682.617 287.382 682.47 287.078C682.375 286.868 682.27 286.648 682.175 286.428C682.038 286.124 681.891 285.821 681.764 285.506C681.617 285.192 681.48 284.878 681.343 284.553C681.304 284.474 681.269 284.394 681.238 284.312C681.164 284.165 681.112 284.018 681.048 283.872C680.88 283.484 680.711 283.086 680.554 282.698C680.364 282.258 680.185 281.807 680.017 281.367C679.848 280.959 679.69 280.54 679.532 280.12L679.469 279.974C677.017 273.543 675.156 266.904 673.911 260.138V260.128C673.209 256.265 672.706 252.369 672.406 248.455C672.395 248.235 672.374 248.025 672.364 247.816C672.174 245.165 672.09 242.503 672.09 239.831C672.09 238.647 672.111 237.474 672.142 236.3C672.877 211.756 681.67 188.128 697.176 169.03C697.513 168.611 697.85 168.192 698.197 167.772C698.544 167.353 698.902 166.945 699.25 166.536C710.79 153.084 725.344 142.52 741.739 135.694C758.134 128.868 775.91 125.972 793.636 127.239C811.361 128.507 828.54 133.902 843.786 142.99C859.032 152.078 871.92 164.605 881.41 179.561C881.926 180.378 882.442 181.206 882.937 182.033C883.442 182.872 883.926 183.71 884.41 184.559C893.947 201.432 898.944 220.471 898.917 239.831Z" fill="#F2F2F2"/>
<path d="M790.005 165.994C771.356 170.757 752.245 173.503 733.003 174.183C730.094 174.341 727.177 174.321 724.27 174.124C717.881 173.589 712.408 171.59 706.313 170.498C703.383 169.975 700.12 169.592 697.17 169.026C697.852 168.184 698.545 167.353 699.251 166.532C705.612 167.067 712.072 168.818 718.509 169.631C729.451 171.016 741.711 169.471 750.006 165.659C754.031 163.809 757.113 161.501 761.124 159.643C761.669 159.364 762.26 159.184 762.869 159.111C764.025 159.077 765.167 159.372 766.161 159.961C772.889 163.342 782.658 166.09 791.725 164.578C792.401 165.104 791.117 165.704 790.005 165.994Z" fill="white"/>
<path d="M830.13 177.891C830.212 177.876 830.295 177.864 830.378 177.85C830.03 177.635 829.702 177.389 829.398 177.115L830.13 177.891Z" fill="white"/>
<path d="M884.409 184.563C880.622 184.864 876.815 185.088 872.988 185.235C870.079 185.392 867.162 185.372 864.255 185.176C857.866 184.639 852.394 182.643 846.299 181.551C840.713 180.551 833.925 180.07 830.379 177.852C839.545 176.272 849.042 179.487 858.494 180.683C866.139 181.619 873.89 181.238 881.405 179.557C882.452 181.196 883.453 182.864 884.409 184.563Z" fill="white"/>
<path d="M772.712 289.228C791.525 289.228 806.776 273.709 806.776 254.566C806.776 235.423 791.525 219.904 772.712 219.904C753.899 219.904 738.648 235.423 738.648 254.566C738.648 273.709 753.899 289.228 772.712 289.228Z" fill="#FFB6B6"/>
<path d="M838.597 339.594C837.692 340.087 836.776 340.558 835.86 341.009C835.534 341.166 835.197 341.323 834.871 341.491C834.597 341.617 834.323 341.753 834.05 341.879C833.965 341.921 833.892 341.952 833.818 341.994C833.587 342.099 833.365 342.203 833.134 342.308C832.881 342.424 832.629 342.539 832.386 342.654C832.102 342.78 831.829 342.905 831.544 343.021C830.492 343.492 829.428 343.943 828.365 344.372C824.555 345.927 820.661 347.27 816.701 348.396C816.522 348.449 816.333 348.501 816.143 348.553C814.448 349.025 812.743 349.454 811.027 349.842C808.027 350.534 804.998 351.1 801.942 351.54H801.921C801.553 351.592 801.195 351.644 800.826 351.697C800.795 351.697 800.763 351.707 800.721 351.707C800.721 351.718 800.721 351.718 800.71 351.707C800.31 351.76 799.9 351.812 799.5 351.864C799.473 351.872 799.444 351.876 799.416 351.875C799.037 351.927 798.647 351.969 798.268 352.011C797.858 352.053 797.447 352.095 797.036 352.137C796.721 352.168 796.405 352.2 796.089 352.231C796.062 352.24 796.033 352.244 796.005 352.242C795.721 352.263 795.436 352.294 795.152 352.315H795.11C794.868 352.336 794.615 352.357 794.373 352.378C791.436 352.608 788.489 352.713 785.499 352.713C782.267 352.713 779.056 352.587 775.888 352.315H775.856C775.172 352.252 774.498 352.189 773.824 352.126C773.645 352.105 773.477 352.095 773.298 352.074C773.266 352.074 773.224 352.064 773.193 352.064C773.14 352.053 773.087 352.053 773.024 352.043C772.996 352.044 772.967 352.04 772.94 352.032C772.708 352.011 772.477 351.98 772.235 351.959L771.445 351.864C771.182 351.833 770.919 351.791 770.656 351.76C770.592 351.749 770.54 351.749 770.477 351.739C770.287 351.718 770.098 351.686 769.908 351.655C769.813 351.644 769.719 351.634 769.635 351.623C769.445 351.592 769.266 351.571 769.077 351.54H769.066C763.289 350.712 757.587 349.433 752.012 347.715C751.717 347.621 751.423 347.537 751.128 347.443C752.487 341.133 755.285 335.219 759.307 330.157C763.328 325.095 768.464 321.021 774.319 318.25C772.871 316.877 771.87 315.103 771.445 313.158C771.172 311.904 771.15 310.608 771.381 309.346C771.613 308.084 772.092 306.879 772.793 305.802C774.159 303.714 776.302 302.252 778.751 301.736L794.352 298.488C796.864 298.001 799.467 298.52 801.596 299.933C803.725 301.345 805.207 303.538 805.721 306.033C805.88 306.797 805.951 307.578 805.932 308.359C820.954 318.313 831.765 328.634 838.597 339.594Z" fill="#FF6584"/>
<path d="M863.864 239.532C858.073 232.811 855.321 223.894 850.692 216.262C846.063 208.63 838.008 201.799 829.498 203.575C823.632 204.8 819.099 209.952 816.804 215.696C814.509 221.44 814.079 227.775 813.677 233.981C813.819 221.228 805.377 208.864 793.749 204.795C782.122 200.725 768.206 205.265 760.899 215.51C757.711 212.569 753.549 210.894 749.202 210.803C744.856 210.712 740.627 212.212 737.317 215.018C730.782 220.832 729.335 231.898 734.142 239.314C738.948 246.73 749.357 249.493 756.995 245.38L759.696 247.852C758.176 253.144 761.124 259.394 766.079 261.386C770.097 263.002 775.769 262.733 777.273 266.93C778.324 269.863 776.36 272.993 774.27 275.246C772.182 277.5 769.702 279.827 769.451 282.945C769.072 287.651 773.957 290.947 778.397 291.939C789.105 294.333 800.986 289.398 807.157 279.992C807.276 279.811 807.405 279.629 807.545 279.447C811.007 275.04 813.531 269.976 814.961 264.565C816.391 259.154 816.697 253.51 815.862 247.977C815.515 245.803 815.865 244.186 817.37 243.672C823.879 241.446 842.114 246.117 847.632 250.338C853.151 254.559 857.57 260.145 862.886 264.638C868.202 269.132 874.976 272.598 881.725 271.374C887.131 270.394 891.73 266.488 894.823 261.776C897.916 257.064 899.696 251.572 901.29 246.114C889.337 252.987 872.977 250.11 863.864 239.532Z" fill="#2F2E41"/>
<path d="M164.59 169.626C164.59 172.173 164.674 174.719 164.853 177.244C165.043 180.262 165.369 183.259 165.811 186.234C167.297 196.254 170.137 206.028 174.254 215.291C174.464 215.752 174.675 216.213 174.885 216.674L175.201 217.365C175.307 217.596 175.422 217.826 175.528 218.046C175.675 218.35 175.812 218.644 175.959 218.937C176.138 219.304 176.317 219.67 176.507 220.037C176.528 220.079 176.549 220.132 176.58 220.184C176.738 220.498 176.886 220.802 177.054 221.116C177.085 221.185 177.12 221.251 177.159 221.316C177.338 221.672 177.528 222.039 177.717 222.395C177.928 222.772 178.128 223.16 178.338 223.537C178.844 224.47 179.37 225.392 179.907 226.314C180.065 226.586 180.223 226.859 180.391 227.131C180.538 227.382 180.686 227.634 180.844 227.885C180.949 228.053 181.054 228.231 181.16 228.399C181.328 228.682 181.496 228.954 181.675 229.237C182.065 229.855 182.465 230.474 182.854 231.092H182.865C183.044 231.375 183.233 231.658 183.423 231.93V231.941C183.981 232.779 184.56 233.617 185.139 234.445C185.14 234.445 185.142 234.445 185.143 234.446C185.144 234.446 185.145 234.447 185.146 234.448C185.147 234.449 185.148 234.45 185.149 234.451C185.149 234.453 185.149 234.454 185.149 234.455C185.613 235.126 186.097 235.776 186.57 236.425V236.436C186.886 236.844 187.192 237.263 187.507 237.672C187.76 238.007 188.023 238.353 188.286 238.688C188.339 238.762 188.402 238.825 188.455 238.898V238.909C188.528 239.003 188.602 239.087 188.676 239.181C189.792 240.606 190.943 242 192.129 243.362L192.318 243.582C192.381 243.655 192.455 243.729 192.518 243.812C192.624 243.928 192.718 244.043 192.824 244.158C192.918 244.273 193.024 244.389 193.129 244.504C199.311 251.436 206.322 257.591 214.004 262.83C215.025 263.532 216.067 264.214 217.11 264.874C217.373 265.041 217.636 265.209 217.899 265.366C217.973 265.419 218.057 265.471 218.131 265.523C218.278 265.607 218.415 265.691 218.562 265.785C218.699 265.869 218.836 265.953 218.983 266.037C219.541 266.383 220.11 266.718 220.678 267.053C220.815 267.137 220.962 267.221 221.11 267.305C221.247 267.378 221.394 267.462 221.541 267.546C221.541 267.556 221.541 267.556 221.552 267.556H221.562V267.567H221.573C222.278 267.975 222.994 268.373 223.721 268.761C224.11 268.971 224.51 269.191 224.91 269.39C225.815 269.882 226.731 270.354 227.647 270.804C227.973 270.962 228.31 271.119 228.637 271.286C228.91 271.412 229.184 271.548 229.458 271.674C229.542 271.716 229.616 271.747 229.689 271.789C229.921 271.894 230.142 271.999 230.374 272.104C230.626 272.219 230.879 272.334 231.121 272.449C231.405 272.575 231.679 272.701 231.963 272.816C233.016 273.288 234.079 273.738 235.142 274.168C238.953 275.723 242.847 277.066 246.806 278.192C246.985 278.244 247.175 278.296 247.364 278.349C249.059 278.82 250.765 279.25 252.481 279.638C255.481 280.329 258.509 280.895 261.565 281.335H261.586C261.955 281.387 262.313 281.44 262.681 281.492C262.713 281.492 262.744 281.503 262.787 281.503C262.787 281.513 262.787 281.513 262.797 281.503C263.197 281.555 263.608 281.607 264.008 281.66C264.035 281.668 264.063 281.671 264.092 281.67C264.471 281.723 264.86 281.765 265.239 281.807C265.65 281.848 266.06 281.89 266.471 281.932C266.787 281.964 267.103 281.995 267.418 282.027C267.445 282.036 267.474 282.039 267.503 282.037C267.787 282.058 268.071 282.089 268.355 282.11H268.397C268.64 282.131 268.892 282.152 269.134 282.173C272.071 282.404 275.019 282.509 278.009 282.509C281.24 282.509 284.451 282.383 287.62 282.11H287.651C288.336 282.048 289.009 281.985 289.683 281.922C289.862 281.901 290.031 281.89 290.21 281.869C290.241 281.869 290.283 281.859 290.315 281.859C290.367 281.848 290.42 281.848 290.483 281.838C290.512 281.839 290.54 281.836 290.567 281.827C290.799 281.807 291.031 281.775 291.273 281.754L292.062 281.66C292.325 281.628 292.589 281.586 292.852 281.555C292.915 281.545 292.968 281.545 293.031 281.534C293.22 281.513 293.41 281.482 293.599 281.45C293.694 281.44 293.789 281.429 293.873 281.419C294.062 281.387 294.241 281.367 294.431 281.335H294.441C300.218 280.507 305.92 279.228 311.495 277.51C311.79 277.416 312.085 277.332 312.38 277.238C312.39 277.238 312.401 277.228 312.411 277.228C312.495 277.196 312.59 277.175 312.674 277.144C313.464 276.892 314.243 276.63 315.022 276.358C316.096 276.002 317.159 275.614 318.222 275.216C318.506 275.101 318.791 274.996 319.075 274.88C319.654 274.66 320.222 274.43 320.791 274.199C321.759 273.812 322.728 273.403 323.686 272.984C324.58 272.586 325.465 272.188 326.349 271.768C326.37 271.758 326.402 271.758 326.423 271.737C326.623 271.643 326.823 271.548 327.012 271.454H327.023C331.871 269.138 336.546 266.48 341.013 263.501C342.445 262.548 343.856 261.563 345.245 260.546C346.361 259.718 347.456 258.88 348.551 258.021C353.952 253.745 358.952 248.989 363.488 243.812V243.802C363.815 243.446 364.12 243.079 364.436 242.712C364.489 242.66 364.531 242.607 364.573 242.566C364.773 242.325 364.962 242.094 365.162 241.863V241.853C365.425 241.549 365.689 241.235 365.941 240.92C366.004 240.847 366.057 240.784 366.11 240.721V240.711C366.32 240.459 366.52 240.208 366.731 239.946C366.836 239.82 366.931 239.694 367.036 239.569V239.558C367.657 238.783 368.257 238.007 368.857 237.211C369.015 237.002 369.173 236.781 369.342 236.561C370.099 235.545 370.836 234.508 371.552 233.47V233.46C371.826 233.072 372.089 232.674 372.363 232.286C372.626 231.888 372.889 231.49 373.152 231.092C373.416 230.673 373.689 230.264 373.952 229.845L373.984 229.782C374.247 229.384 374.51 228.965 374.763 228.556C374.963 228.221 375.163 227.896 375.363 227.571C375.489 227.351 375.626 227.131 375.753 226.901C375.802 226.83 375.848 226.756 375.889 226.68C376.184 226.167 376.479 225.654 376.774 225.14C377.121 224.543 377.458 223.935 377.795 223.327C377.921 223.076 378.058 222.825 378.195 222.573C378.247 222.489 378.29 222.405 378.332 222.322C378.49 222.028 378.647 221.724 378.795 221.42C378.953 221.127 379.111 220.823 379.269 220.519C379.416 220.226 379.574 219.922 379.721 219.618C379.837 219.388 379.942 219.157 380.058 218.927C380.066 218.908 380.077 218.89 380.09 218.874C380.142 218.759 380.195 218.654 380.237 218.549C380.25 218.533 380.261 218.516 380.269 218.497C380.384 218.266 380.49 218.025 380.606 217.795C380.753 217.491 380.89 217.177 381.037 216.873C381.132 216.663 381.237 216.443 381.332 216.223C381.469 215.919 381.616 215.615 381.742 215.301C381.89 214.987 382.027 214.672 382.164 214.348C382.203 214.269 382.238 214.189 382.269 214.107C382.342 213.96 382.395 213.813 382.458 213.667C382.627 213.279 382.795 212.881 382.953 212.493C383.143 212.053 383.321 211.602 383.49 211.162C383.658 210.754 383.816 210.334 383.974 209.915L384.037 209.769C386.49 203.338 388.351 196.699 389.596 189.933V189.923C390.298 186.06 390.8 182.164 391.101 178.25C391.112 178.03 391.133 177.82 391.143 177.611C391.333 174.96 391.417 172.298 391.417 169.626C391.417 168.442 391.396 167.269 391.364 166.095C390.629 141.551 381.836 117.923 366.331 98.8248C365.994 98.4056 365.657 97.9865 365.31 97.5674C364.962 97.1482 364.604 96.7396 364.257 96.3309C352.717 82.8791 338.163 72.3145 321.768 65.4887C305.373 58.6629 287.596 55.7669 269.871 57.0343C252.145 58.3017 234.967 63.6969 219.721 72.7851C204.474 81.8732 191.587 94.3999 182.097 109.355C181.581 110.173 181.065 111.001 180.57 111.828C180.065 112.667 179.581 113.505 179.096 114.354C169.559 131.227 164.563 150.266 164.59 169.626Z" fill="#F2F2F2"/>
<path d="M273.501 95.7899C292.15 100.553 311.262 103.299 330.503 103.979C333.413 104.137 336.329 104.117 339.237 103.92C345.626 103.385 351.098 101.386 357.193 100.294C360.123 99.7704 363.387 99.3875 366.336 98.8217C365.655 97.98 364.961 97.1486 364.255 96.3276C357.894 96.8624 351.435 98.6134 344.998 99.427C334.055 100.812 321.795 99.2665 313.5 95.4549C309.476 93.6054 306.393 91.297 302.382 89.4391C301.837 89.1603 301.246 88.9802 300.637 88.907C299.481 88.8725 298.339 89.1674 297.345 89.7572C290.617 93.1381 280.849 95.8856 271.781 94.3739C271.105 94.9003 272.389 95.4999 273.501 95.7899Z" fill="white"/>
<path d="M233.378 107.688C233.295 107.673 233.212 107.661 233.129 107.647C233.477 107.432 233.805 107.186 234.109 106.912L233.378 107.688Z" fill="white"/>
<path d="M179.1 114.358C182.887 114.659 186.693 114.883 190.52 115.03C193.43 115.187 196.346 115.167 199.253 114.971C205.642 114.434 211.115 112.438 217.21 111.345C222.795 110.346 229.583 109.865 233.129 107.646C223.963 106.067 214.466 109.282 205.014 110.478C197.369 111.414 189.619 111.033 182.103 109.352C181.057 110.991 180.056 112.659 179.1 114.358Z" fill="white"/>
<path d="M224.91 269.39C225.815 269.883 226.731 270.354 227.647 270.805C227.974 270.962 228.31 271.119 228.637 271.287C228.91 271.413 229.184 271.549 229.458 271.675C229.542 271.716 229.616 271.748 229.689 271.79C229.921 271.895 230.142 271.999 230.374 272.104C230.626 272.219 230.879 272.335 231.121 272.45C231.405 272.576 231.679 272.701 231.963 272.817C233.016 273.288 234.079 273.739 235.142 274.168C238.953 275.723 242.847 277.066 246.806 278.192C246.985 278.244 247.175 278.297 247.364 278.349C249.059 278.821 250.765 279.25 252.481 279.638C255.481 280.33 258.509 280.895 261.565 281.335H261.587C261.955 281.388 262.313 281.44 262.681 281.493C262.713 281.493 262.745 281.503 262.787 281.503C262.787 281.514 262.787 281.514 262.797 281.503C263.197 281.556 263.608 281.608 264.008 281.66C264.035 281.668 264.064 281.672 264.092 281.671C264.471 281.723 264.86 281.765 265.239 281.807C265.65 281.849 266.061 281.891 266.471 281.933C266.787 281.964 267.103 281.996 267.419 282.027C267.446 282.036 267.474 282.04 267.503 282.038C267.787 282.058 268.071 282.09 268.355 282.111H268.398C268.64 282.132 268.892 282.153 269.134 282.174C272.072 282.404 275.019 282.509 278.009 282.509C281.241 282.509 284.451 282.383 287.62 282.111H287.652C288.336 282.048 289.01 281.985 289.683 281.922C289.862 281.901 290.031 281.891 290.21 281.87C290.241 281.87 290.283 281.859 290.315 281.859C290.368 281.849 290.42 281.849 290.483 281.838C290.512 281.84 290.54 281.836 290.568 281.828C290.799 281.807 291.031 281.776 291.273 281.755L292.062 281.66C292.326 281.629 292.589 281.587 292.852 281.556C292.915 281.545 292.968 281.545 293.031 281.535C293.22 281.514 293.41 281.482 293.599 281.451C293.694 281.44 293.789 281.43 293.873 281.419C294.063 281.388 294.242 281.367 294.431 281.336H294.442C300.218 280.508 305.92 279.229 311.495 277.511C311.79 277.417 312.085 277.333 312.38 277.239C311.02 270.929 308.222 265.015 304.201 259.953C300.18 254.891 295.043 250.817 289.189 248.046C290.637 246.673 291.638 244.899 292.062 242.954C292.336 241.7 292.357 240.404 292.126 239.142C291.895 237.88 291.415 236.675 290.715 235.598C289.349 233.51 287.206 232.048 284.757 231.532L269.156 228.284C266.644 227.797 264.041 228.316 261.912 229.729C259.783 231.141 258.3 233.334 257.786 235.828C257.627 236.593 257.556 237.374 257.576 238.155C242.554 248.109 231.742 258.43 224.91 269.39Z" fill="#3C4F90"/>
<path d="M286.629 217.802C307.602 217.802 324.603 200.879 324.603 180.003C324.603 159.128 307.602 142.205 286.629 142.205C265.656 142.205 248.654 159.128 248.654 180.003C248.654 200.879 265.656 217.802 286.629 217.802Z" fill="#FFB6B6"/>
<path d="M281.233 215.782C271.726 218.337 261.245 214.939 253.826 208.494C246.406 202.049 241.765 192.916 239.091 183.483C237.133 176.574 236.204 168.905 239.295 162.418C242.385 155.932 250.703 151.556 257.12 154.833C253.162 150.242 255.139 142.649 259.763 138.721C264.386 134.794 270.735 133.668 276.782 133.053C285.557 132.159 294.621 132.059 302.972 134.889C311.322 137.719 318.909 143.906 321.523 152.292C324.192 153.529 327.198 153.85 330.07 153.204C332.942 152.559 335.518 150.983 337.394 148.725C337.878 151.319 337.489 153.999 336.288 156.351C335.088 158.703 333.142 160.596 330.751 161.736L343.546 157.607C345.746 162.243 341.891 167.981 336.96 169.465C332.03 170.95 326.707 169.327 322.029 167.182C317.35 165.037 312.816 162.326 307.734 161.489C302.652 160.653 296.682 162.278 294.331 166.84C293.1 169.23 293.036 172.028 292.321 174.618C291.606 177.207 289.795 179.892 287.106 180.104C285.407 180.238 283.743 179.337 282.048 179.521C281.009 179.725 280.051 180.226 279.293 180.963C278.535 181.701 278.009 182.642 277.78 183.672C277.358 185.739 277.353 187.869 277.765 189.938L281.015 214.665L281.233 215.782Z" fill="#2F2E41"/>
<path d="M921.576 180.003C920.753 180.002 919.939 179.839 919.179 179.522C918.044 179.068 917.072 178.283 916.392 177.269C915.712 176.256 915.355 175.063 915.368 173.844V168.724C915.367 167.927 915.049 167.164 914.484 166.6C913.918 166.037 913.151 165.72 912.351 165.719C910.713 165.717 909.143 165.069 907.986 163.917C906.828 162.764 906.177 161.201 906.175 159.572V89.4149C906.177 87.7851 906.828 86.2226 907.985 85.0702C909.143 83.9177 910.713 83.2695 912.35 83.2676H1145.87C1147.51 83.2694 1149.08 83.9177 1150.23 85.0701C1151.39 86.2226 1152.04 87.7851 1152.04 89.4149V159.572C1152.04 161.201 1151.39 162.764 1150.23 163.917C1149.08 165.069 1147.51 165.718 1145.87 165.719H939.69C939.294 165.718 938.901 165.795 938.535 165.946C938.168 166.098 937.836 166.319 937.556 166.599L925.911 178.19C925.345 178.763 924.67 179.218 923.926 179.529C923.182 179.84 922.383 180.001 921.576 180.003ZM912.35 85.3633C911.271 85.3645 910.237 85.7918 909.474 86.5514C908.71 87.3109 908.281 88.3408 908.28 89.4149V159.572C908.281 160.646 908.71 161.676 909.474 162.436C910.237 163.195 911.271 163.623 912.351 163.624C913.709 163.625 915.011 164.163 915.971 165.119C916.932 166.076 917.472 167.372 917.473 168.724V173.844C917.474 174.645 917.712 175.429 918.16 176.095C918.607 176.761 919.243 177.28 919.987 177.586C920.73 177.893 921.549 177.973 922.338 177.817C923.127 177.661 923.853 177.275 924.422 176.708L936.067 165.118C936.542 164.643 937.107 164.266 937.728 164.009C938.35 163.753 939.017 163.622 939.69 163.624H1145.87C1146.95 163.623 1147.98 163.195 1148.75 162.436C1149.51 161.676 1149.94 160.646 1149.94 159.572V89.4149C1149.94 88.3406 1149.51 87.3108 1148.75 86.5512C1147.98 85.7916 1146.95 85.3644 1145.87 85.3632L912.35 85.3633Z" fill="#3F3D56"/>
<path d="M1125.8 116.078H936.443C935.72 116.078 935.026 115.792 934.515 115.283C934.003 114.774 933.716 114.083 933.716 113.363C933.716 112.643 934.003 111.953 934.515 111.444C935.026 110.934 935.72 110.648 936.443 110.648H1125.8C1126.53 110.648 1127.22 110.934 1127.73 111.444C1128.24 111.953 1128.53 112.643 1128.53 113.363C1128.53 114.083 1128.24 114.774 1127.73 115.283C1127.22 115.792 1126.53 116.078 1125.8 116.078Z" fill="#3664FF"/>
<path d="M1125.45 127.611H936.443C935.72 127.611 935.026 127.325 934.515 126.816C934.003 126.307 933.716 125.616 933.716 124.896C933.716 124.176 934.003 123.486 934.515 122.977C935.026 122.468 935.72 122.182 936.443 122.182H1125.45C1126.18 122.182 1126.87 122.468 1127.38 122.977C1127.89 123.486 1128.18 124.176 1128.18 124.896C1128.18 125.616 1127.89 126.307 1127.38 126.816C1126.87 127.325 1126.18 127.611 1125.45 127.611Z" fill="#E6E6E6"/>
<path d="M1125.27 139.144H936.443C935.72 139.144 935.026 138.858 934.515 138.349C934.003 137.84 933.716 137.15 933.716 136.43C933.716 135.71 934.003 135.019 934.515 134.51C935.026 134.001 935.72 133.715 936.443 133.715H1125.27C1125.99 133.715 1126.68 134.001 1127.19 134.51C1127.71 135.019 1127.99 135.71 1127.99 136.43C1127.99 137.15 1127.71 137.84 1127.19 138.349C1126.68 138.858 1125.99 139.144 1125.27 139.144Z" fill="#E6E6E6"/>
</g>
<defs>
<filter id="filter0_d_533_3107" x="-4" y="0" width="1332" height="608" filterUnits="userSpaceOnUse" color-interpolation-filters="sRGB">
<feFlood flood-opacity="0" result="BackgroundImageFix"/>
<feColorMatrix in="SourceAlpha" type="matrix" values="0 0 0 0 0 0 0 0 0 0 0 0 0 0 0 0 0 0 127 0" result="hardAlpha"/>
<feOffset dy="4"/>
<feGaussianBlur stdDeviation="2"/>
<feComposite in2="hardAlpha" operator="out"/>
<feColorMatrix type="matrix" values="0 0 0 0 0 0 0 0 0 0 0 0 0 0 0 0 0 0 0.25 0"/>
<feBlend mode="normal" in2="BackgroundImageFix" result="effect1_dropShadow_533_3107"/>
<feBlend mode="normal" in="SourceGraphic" in2="effect1_dropShadow_533_3107" result="shape"/>
</filter>
<clipPath id="clip0_533_3107">
<rect width="1324" height="600" fill="white"/>
</clipPath>
</defs>
</svg>
