<svg width="38" height="38" viewBox="0 0 38 38" fill="none" xmlns="http://www.w3.org/2000/svg">
<path d="M17.3333 37.25V33.9167C13.8611 33.5278 10.8822 32.0906 8.39667 29.605C5.91 27.1183 4.47222 24.1389 4.08333 20.6667H0.75V17.3333H4.08333C4.47222 13.8611 5.91 10.8817 8.39667 8.395C10.8822 5.90944 13.8611 4.47222 17.3333 4.08333V0.75H20.6667V4.08333C24.1389 4.47222 27.1183 5.90944 29.605 8.395C32.0906 10.8817 33.5278 13.8611 33.9167 17.3333H37.25V20.6667H33.9167C33.5278 24.1389 32.0906 27.1183 29.605 29.605C27.1183 32.0906 24.1389 33.5278 20.6667 33.9167V37.25H17.3333ZM19 30.6667C22.2222 30.6667 24.9722 29.5278 27.25 27.25C29.5278 24.9722 30.6667 22.2222 30.6667 19C30.6667 15.7778 29.5278 13.0278 27.25 10.75C24.9722 8.47222 22.2222 7.33333 19 7.33333C15.7778 7.33333 13.0278 8.47222 10.75 10.75C8.47222 13.0278 7.33333 15.7778 7.33333 19C7.33333 22.2222 8.47222 24.9722 10.75 27.25C13.0278 29.5278 15.7778 30.6667 19 30.6667ZM19 25.6667C17.1667 25.6667 15.5972 25.0139 14.2917 23.7083C12.9861 22.4028 12.3333 20.8333 12.3333 19C12.3333 17.1667 12.9861 15.5972 14.2917 14.2917C15.5972 12.9861 17.1667 12.3333 19 12.3333C20.8333 12.3333 22.4028 12.9861 23.7083 14.2917C25.0139 15.5972 25.6667 17.1667 25.6667 19C25.6667 20.8333 25.0139 22.4028 23.7083 23.7083C22.4028 25.0139 20.8333 25.6667 19 25.6667Z" fill="#545454"/>
</svg>
